<mxfile host="app.diagrams.net" modified="2022-07-15T16:53:42.638Z" agent="5.0 (Windows NT 10.0; Win64; x64) AppleWebKit/537.36 (KHTML, like Gecko) Chrome/103.0.5060.114 Safari/537.36 Edg/103.0.1264.49" etag="JbKQhhmipOf1QdPV-__I" version="20.1.1" type="github">
  <diagram id="2wqolK1YbHdrgj3bFHOo" name="Robustez">
    <mxGraphModel dx="3382" dy="1150" grid="1" gridSize="10" guides="1" tooltips="1" connect="1" arrows="1" fold="1" page="1" pageScale="1" pageWidth="827" pageHeight="1169" math="0" shadow="0">
      <root>
        <mxCell id="0" />
        <mxCell id="1" parent="0" />
        <mxCell id="B0jKKp4YpZ9J5N5QM19t-1" value="&lt;font style=&quot;font-size: 18px;&quot; face=&quot;Comic Sans MS&quot;&gt;ADMINISTRADOR&lt;/font&gt;" style="text;html=1;strokeColor=none;fillColor=none;align=center;verticalAlign=middle;whiteSpace=wrap;rounded=0;" vertex="1" parent="1">
          <mxGeometry x="-30" y="20" width="60" height="30" as="geometry" />
        </mxCell>
        <mxCell id="B0jKKp4YpZ9J5N5QM19t-16" style="edgeStyle=orthogonalEdgeStyle;rounded=0;orthogonalLoop=1;jettySize=auto;html=1;exitX=0.5;exitY=0.5;exitDx=0;exitDy=0;exitPerimeter=0;fontFamily=Comic Sans MS;fontSize=18;" edge="1" parent="1" source="B0jKKp4YpZ9J5N5QM19t-7" target="B0jKKp4YpZ9J5N5QM19t-15">
          <mxGeometry relative="1" as="geometry" />
        </mxCell>
        <mxCell id="B0jKKp4YpZ9J5N5QM19t-7" value="Administrador" style="shape=umlActor;verticalLabelPosition=bottom;verticalAlign=top;html=1;outlineConnect=0;fontFamily=Comic Sans MS;fontSize=18;" vertex="1" parent="1">
          <mxGeometry x="-750" y="350" width="60" height="130" as="geometry" />
        </mxCell>
        <mxCell id="B0jKKp4YpZ9J5N5QM19t-11" value="" style="shape=image;verticalLabelPosition=bottom;labelBackgroundColor=default;verticalAlign=top;aspect=fixed;imageAspect=0;image=data:image/png,iVBORw0KGgoAAAANSUhEUgAAAggAAAGiCAYAAACCkz52AAAAAXNSR0IArs4c6QAAIABJREFUeF7svQd4nNd5JvoCmD6YgumD3nsjCRBsYpFIilSzbNlWbCdOWSdZJ3uvc3efJ7m5uXc3u3eTzd57s5vdbHbTnMT2uluyrE5RYu8kCBC9A4MBZoDpvc/gPt8BQVOyJKIMiBng/6nRAJj/P/8573fmP+/5ak4wGFwCd3AIcAikFQFr90VMTVthOP5LqFIuN3398nWYbQ4c3FOGc+91w+lLorVaA2F5K6anb8DqsKNBWwlPQotn9+vhcTvgy9NBIJTAMTcKu9+P08+ehnidPU34zXjrXA8S4mI8f6gMb529gGReLsQpAZby5ChT+DHrTWBqKYVKJR8tyRTMgTwY6sowMu+AfXgCNaWFKG1rRM/dOQhUBgiiw4guDMElLoe2shO1oiUk+UFM3puCQqqDPm8B84l8jHpyUWIUQlOshVIgxpJpELMxCSr3HESpnLeqEUWtvXhzOIDCsgbsr1Lj3R+cBU+bi7kFDypKKyANjcHO08M9E0RhTSHkinyoCvIhjY7h2jwP16++jT3te9Bh1OCOCbg3eRtH9neiSZqD98bi0PBMWNLVQCfMh06rgboAeO+Ne6hqaMCuPVWr6uOjTpq/8irenc3B/kNPoFGbxLdfu44KsQ09US0Odx2A0GmHTBXDxfN2GOOjmC1oxMFDexF2jbNxnDEbcKRjFxIhE3TJBbwxLMcTnY1oKFE86tYb+9xvwX//px/Aw9Pjq587jWJ9Pt75/t/ipiUPX/mll1Alj+N8fxTtjYVw9Z/Dqxduour4F3FiVx0UIh7u9l1BdUUz5Ajiv/7d99D85EvY11QOCT933f0KTZzFX4+o8ZXDjdDLRaydv/zzf4tDL/0Wlu5+C++mnkDZwE00/OpX8eN3/xt+7+WvQ6/SI2brxv/+H3vwv/3+F1CsF+Ov/uxv8PzLHfjmd8z4xu8+A/PoFDT5U/jOTDn++fFq/Of/54/wpa/9XygX+9E9w8fYj/4HDL/2dTxZLkZP9wyMS+fxas4L+M3OKvzJ3/4R/vDX/xCK/E2Wx7pRW9uFORxBWBtg3NkcAqtBwGuegNPpg7x2NzSS5Sui3llcvnAWd6ajKC+qQWOZESKxG2cuXIMplodDe6pwrKIJ58+ewaA3B8eeOgGDwI/33n0bsYI6HH/6NBoL5au5/SeeE3FP4f33z+LSbRcOHT+OEyc7keOexNmz72PUJsGJEyfA4zmBHMCYWoInmguZrgA2bxABmwNapRwFhQbMzXnAk8qRF18AjydCMujE2fc/QEJah5MnDoDnd4AvkCE/1wdvUggkIhibNkOQm4LFNIH5lBynnz6B1tqyVY8n7p3H0GIEcpUBFRophu+OIk8uhU7px7tvnsVCzIjTJ4/BwLPg/L1Z6JU8TI+NotfBx0vPncLEzEVYB3ogUrTiyLGTaCmX491XfoZr5iCef/40Okul+NGrN2Go0sE9PYzu3jkc+dxnsb+zCZK8VXfzkSfO3LmAN85dgTmuwJe++AJaa8rQf/UM3r90A/LSQ3j2SB1sc34UlRfCNHwe5650w7DnaZw61AFL3wWcvXgDxQeexYmuGtz5wQ+hbj2C5rZ6SPiPvPW2OiFmH8VVmwQdVQbIRMuDj9lH8F+++RPoaxuhLN+FwkUT9Hs7cW/4Eo7sOgSZVMbO881ewV99+324fSF86et/gOZSNazX38a3zl5HxZ6X8GxbLrr9KhyoNUAStuBP//Kf4PGp8S/+j19FsTKJ7/3Jf8WQ148v/S9/hKLEPfQt1WNfqQZnr72F413HIRaul8Znlog4gpBZ8uB6s4MQ8M7048IHF9FvDkGhL0brgSM40la0gxB4vEP97jvfRXlhOQ62HXy8N+buxiGQpQhwBCFLBcd1m0OAQ4BDgEOAQ2AzEeAIwmaiy7XNIcAhwCHAIcAhkKUIcAQhSwXHdZtDgEOAQ4BDgENgMxHICQQCXBTDZiLMtc0hwCHAIcAhwCGQhQjkzM/PfyJBWFpaQk5OThYOi+vyCgJLSwAJeP3BRByWHAIcAhwCHAJrQSAJIG8bLJ05LpfrYwkCkYNQKASj0Yi8vDTG+KwFZe7cDSEQiAG3TUuwT6VwuoBTFG0ITO5iDgEOAQ6BVSLw71x5+D+P5UAhXOUFGXoaRxAyVDDp6BZHENKBItcGhwCHAIfA2hDgCMLa8OLO3gIEOIKwBaBzt+QQ4BDY8QhwBGHHT4HMB4AjCJkvI66HHAIcAtsPAY4gbD+ZbrsRcQRh24mUGxCHAIdAFiDAEYQsENJO7yJHEHb6DODGzyHAIbAVCHAEYStQ5+65JgQ4grAmuLiTOQQ4BDgE0oIARxDSAiPXyGYiwBGEzUSXa5tDgEOAQ+DjEeAIAjczMh4BjiBkvIi4DnIIcAhsQwQ4grANhbrdhsQRhPVJlJKE0Su1lGLvoN/X2BRlIF155eYs57HkspKuEUTudA6BLEWAIwhZKrid1G2OIHy6tNnijyUkU8tEgL2whHAkDIt9HrMLJljsFvgCXoSjYSQSCSA3B8jLRU5e7vLP1EQqBSRTWEotIRc5EPKFyJfkQ6/Wo8RQhmJ9CZQyBXJzljOSEmHIzc19QCB20pzkxsohsBMQ4AjCTpBylo+RIwgfFuAKAUilUqBXIpmA0+vA4NQgxs1jcAY8cEf9SOQuQWcoRGl5NYrLKqDS6pGfL4dQKGIL+6cd8XgcoWAAXo8TC9Y5mKbGYTHPIBoMQSGQQiVSoERbjKbqFpQaSiHgCVibebl5HGHI8u8b130OgRUEOILAzYWMR4AjCMsiImKQTCURi8fg9DoxPD2E/sl+zPsWIFar0Ln/CBpbd0Mklmy6TBOJOMymKdy6cg7miXEoeRLUFdehrbYNJfoSiIUS8PJ4jyQim97RbXSDZU3R/blw31iUg59X0uFMP9tI2BkyFI4gZIgguG58MgI7mSCsmAyIGPiCXtwbu4dzPefhSYXR2rEP7Z0HYDAWb/n08fu8GBnowc2r5+G1LKCzZg+e7HwKRboi8HKXiQK3gP2imFa0QWTWedhfZOXvjBjev4y0RaTZicQjiMViIG5AmhuhQAABX/iAjK1QBiIPH/Uhefj3LZ80XAcyHgGOIGS8iLgO7kSCsEIMovEoFpxWXL53GfdmB1FcX4/DT52GVleYsRMjFPSj58513L58DjqBAk/uOob68gZIRJIHJoiM7fwmd2xFC7RiHoon43B6XbA6rLC5FrHoXMSCwwqHzwVvLIpwMoF4agkJ8i+h0rt8PvgCEfh8Kq+3hHg8hngsgmQiznQJvJxc5OXkQJKXBxlfALWsAAaNAQa1ATqVDkZNIdRKNYT8n5uEGHm7TyY2efhc81mGAEcQskxgO7G7O40gUNQB7RSnLdM4c/sMHKkAuo6eQGPzbvD4/KyZArQYWudMuPzBu/DPW3Gs5TA6GjsfEIWsGcgGOsq0AqkUMw2RE6nb78aEeRJDU4OYsMxgzudGjiQfGkMptIYyaIxl0OhLIJEqkJuG8vShoA9O2xwcVhMcCybYLNNIBP3QiSWoKaxAY0UDasvqoJYXMJNQXl7ejidxGxD3truUIwjbTqTbb0A7hSCs7C5pF3nu7jmMuWdx5JkXUNvQmvVCtS9acensW4hYHXh27ymmUeDz+NvS7EAEL5lMslcwEsK4eQJ3RroxsjiPuFACY0UDyut2QaUtBI+3NYSP5prbYcXs+D3MTvYjN+RHZYEGHbW70FDRALlUBl5uHvLyeJzTadZ/+9Y/AI4grB877srHhMBOIAj0wA6GA7gxcBPv919A3d69OPzkM+BnkcZgNdNhfGQAF97+GUrFWrzwxPPQKLVsx5rtx4pJKJ6IY9FlQ+9oD26O3IXZ74Gushlt+05CrS/J6GF6XYvov30O5uFu6Ph8dNbvwr7mLuhVeggEAhbWyvmRZLQI0945jiCkHVKuwXQjsN0JAqmgPQEPPrjzAfodk3jxK78BjVafbhgzpj0Kn7z8wTtwjU3h+X3Poaa0hmkTsvVYiSwxL87h7K33cX28H+qqZuw59BwzF2Tj4XEu4t6NMzAP3kR7STWe7jqOysIKZh7iHE6zUaLr6zNHENaHG3fVY0RgOxOEpaUUFhwLONtzDkF5Hp757Jd2zC5toPc2ei6cQ1fZLhztOMZs4Nl0kNYglohhwjyBN669i3GPC/VdJ1DTtBcCoTibhvKpfZ0evYs7519FsVCMFw+eRn15HQtjfVQujW0DwA4eCEcQdrDws2Xo25Ug0ALj8rlwZeg6HKIYTjz7UraIJG39nBgbxOStO2jX12NPQ8e6Fx0WFbCUepDd8eEOftJntPMnGawkd1rLoOhah8eBd66fwS3zFGr3n0J1Y+e6+7+We2/VuVbTKG6e+T7a9UV47sBpFGkLOW3CVgnjMd2XIwiPCWjuNutHYLsShEAogOvDNzCTdOHpF19eP0BZfuXtaxdgGxrDM7tOoNRQ9kgNCosISCYfLE70s8UxjwWHBXq1EXqV4cGiT+e6fS4WKqpSqFGoKWIkIrmUxLhpFBRGWlFUBbFQ/CGiQLvjpfupq8lR7+HdMmWuHDWN4SdX3sKSoRwt+5+GWCLLcimsrvtEtu5efRPR6WG8tP9ptFQ3M80P55uwOvyy7SyOIGSbxHZgf7cjQaAHbfdoN67M3sVzX/51CIUU175zjxsXzyI158KLB56H6FPU87TgmxdMGJ4ZYkRAka/ExOwoIvEo5BIZyycwahpBTWkt5PkKTM6Nw6gpgkquhsfvAp8nYCRhdmEGg1P9aK3ZxXIADE73o6W6DWqFmmWqLC+sgN1th9fvRmNlMwq1xYwk0P37x/vwZu81yOp2o6Zl344UmnV2DHN3zuFUYwd21bZBwBfsSBy2+6A5grDdJbwNxrcdCcKicwFXx24hp6gAe/Yd3gZS2tgQKAxyqvsuygVadDR0fOKO1Gqfx8TcOCQiKeRSBexuG/JycyEWiUEaGavDAqVMBXm+HDOWKVQV18CgNmLCPMY+I3OCUCCCSCBi9yCzxOjMCMyLJhxoewIN5Y2wuW0skZBaqYHdZWMJiohwqBUazFim8bOeK8gpqUVNc9fGBv2Rq5cjIVIsdWLO/VoZmbwzd9stMN84g2eb96KpsnFbm1fSKugsaowjCFkkrJ3a1e1GEGghuDN8G+fGr+Fzv/F1VjxpIwdpI6jNFe/yleQ8pCKnxEoP/57HW7s6ePn6ZXs97bZpF83jkdo9veGJt69cAH/Rz/IkkFr/0445mxnRWBQl+lI4PHZMz0+yxd7j9zCtAr2m5sbhC/ogFUtRIFdh0bXASALlYKBxUGGr6pJaNrZ52xwqi6pRqC2CQWNEvjgf8/Y5RkQo+yAdkVgEr1x+Gw5ZAWr2HF23yFIsR0KC4ZdKJZBD2Q95fJZQiRIZpZIJFGiMEEny2d+INOTl8Te8AFM7TIZpDFfsuf4uyuNRnGw7AK1Kt25MuAszEwGOIGSmXLhePYTAdiMI9NC/PdaNq5Z7+Pwv/+aGZe12OeBxO6E3FrNwQdrxzptn4HE70NK+ly0ylrkZ0HnNbR3sfmSHZ4tF7nLJZlok6TzaYaful4xmdvil5YqR5plJBIMBiCVSmE2TaGjexUIxaaGljH/p8GgfGexFeMaKA2W7IZPK2Q5fKMgc00vfeB+6XTYIK5qgVBvWLbfF+SmM9d+Aobga86YRKAp0qGs9wGor9F4/A5/bjoZdT7AQyYmh24iGAyiv3QWZUrOsWSHHSh6fvRLxKJKJBFaIH8mKCADJk84DnU/H0hIoq2Ik5GftULpmaosvoBoOGyN6d9/8JzzXuAftNdmf0GvdQt2mF3IEYZsKdjsNa7sRhFA4iDvT9zCdcuHYyec3LKqx4T6MDvWhsroedvsC5PICKFVqBAN+ljo3HApCUaBCNBJh+fvdLieUBWpEwiFo9YXQG4sYAXA6bCgsLoPP6wYVXzIYi+B2O9kCIlcoEQ4Hmfqb2pPmy+H1uFgip+LSStbGRo+52WnM9vahIMbHlHkSSpkSL534IlvIiKjQwre8A6bfl9+X174P/+3BZw8tkJ98DmuBLaQ/P+fD96LFlUjXe9fehYknRMmeo+BtwOYej0Vx4/wrTFNAYwr43ExzUFLZyNZ008Q91DR1sUyHpok+Fh1Bx/zMCGQKNaKREJr2HEVty37cuvgaTON9KKtugVAkhce1wNI0260ziISDEEvlzNkyEiHZLSFB/hW17XDazJBI5eh68iXojOUbEt31M9/Di3Xt2FPVtKF2uIszDwGOIGSeTLgefQSB7UYQrHYLro3fhrDSiNbdG7djE0EY6r/LdpRT48Oorm2Edd6M+TkTqmobUF3TgJHBe6wMdF1jG25ePYfpyVEUl1bg+OnPQpovQ++d64hFI/D5vHDaF9mONBoJQ2coQnlVLeyLFoyNDLDrpVIpum9cRnlVHeSKAtbu6Re+uOF5a1uw4NXv/j1e/d43YXMu4uSB0/jGL/8rRkL8AR/ypXKWbZKS9VC5aUpTTJoQUv2TpoF8EMg0QOdI76vnl7UgSwiFQ8zUEAgHkC/JRygSYudSBAQLj8zNZX9j59AuWypHJBph8f50LyqqdHPgJiKGcrQ/+dKGvfZJNT/YfQEVte2IhAMY6L4AY3E1hOJ8OBZN0BVWMDJAMhEIRbDNT2G49wrLxrhr/yk07j7CijRNDt+B1lCKPJ4AczPDrO6C3+OE22GBUChGvlzNtBMLcxPMZEHaioDPxYhHMODFyc/+9oZ9Ka6f/SFerG3FnsrGDc8BroHMQoAjCJklD643H4PAdiIItFhNmsfx1u13oWupx8GjT29Y5pS+eHigByKxGFaLGaVlVRgbHoDLaUN1XRMzB0yMDmJspB+l5dVswR3s62bk5OQzL7GKgNRGf+9tzM/NoK6hFW279yEWi2JmaowRBvqZ3hlBkC0Tipr6ZsjkSiTicZx6/gsbHod1fhZD165htm8A3YO3cKTjSfyrX/uDDbebrgbO3z6H0UQc2ub9Gw5rtFlmcP6Nf0RpdTPIJ2F2cgBaYxnb4Ttt86ioa4ff68TC3CS0+hLEomEszE8hX65CbXMXW/QFIgluXXiNLfakcfA4F2CZHWNEg85Hbg6r+lhS0YiF+Ul2LWkfSDPB5wsQDgXQefgFVNTtWjdENJ9vvftdfKZ+F3ZXN6+7He7CzESAIwiZKReuVw8hsJ0IAtmIyaHup5dfQ65RhZe+/M82vBulnTcRA1r4yTxQoNLCtjjPFgF6gDvsiyivqEEw6Ge/T0+MMpNDUUk5Gpt3MbU2kYPZmXE0t3UyXwXbogU1dU2YnZlkPgiFJWXMREHqcZfTjsKiMma+EIpErEphU8vuDc/Z0aF7CE7NY3/ZLuYcSDt7Rb5iw+2mq4FZqwnnJgeRMJTDWF6/Ybmlq19b2Q7TRlx5A88170VDBadB2EpZbMa9OYKwGahybaYVge1EELwBL2ZIXWwawVzCjRe/+jUIMsgRL62CW0NjRELuXLsIvi2AZztPZWza5TM3z2IkFkdR6wFm38/kMMQ1wL+uU0nbceeDn+CQoQSHmjqY6Yc7thcCHEHYXvLclqPZTgRhdsGE6bkplBrLcGfmHqQ1JWhuX3ZC28kHaS1Gb9xEMeQ40H4oY6HwBbx49eo7WBCIUb3nKDM17ESSQJqk8XtXILXP49mOo2w+c8f2Q4AjCNtPpttuRNuFIJB6nxLtmCwzOLznKO6O9eDa/D2c/uJXNpwLIZuFTk6A3dcuI3fRi1O7TzBHwUw+XF4XfvDBK1gUitHQdQJSuYpFeuwEokDhk7FIGKN3ziHfY8MLXSdQVrixKIhMlvVO7xtHEHb6DMiC8W8XghCOhFl2P0rw016/G06vE9dGbsIjSeHAk08zn4GddtCCMzrYh5nuHuwtacOuho37MjwODEmT8OMPfoIhtxM1XSehp5LVAlFa8kE8jv6v9R4UZhqPxeCxz2Pg8uuoluTjhSeeZYmluGP7IsARhO0r220zsu1CECi8cXp+Cs3VLaxOAB3k+HZx6CrktWVo2d3FMh/ulINCDBctZvRfvYJKkR5P7T2edUPvHrqNn107A+hLUL3rMPLvJyHaLhoFirCgcMpwwIvpgZvwT/Xjha7jrPJmJiWxyrqJkyUd5ghClghqJ3dzOxAEMi+QaYEIwrG9T31InGMzI/hg4BLKO3ejuqEFAqFw26ur4/E4rHMm3Hz/DMpFWrz01MbDJLfqOxIMB3Hu5vs433cdQmMZypv3QakrhlAsBY8nYNkqs8n8QFodCl2lLI0euwVT/dfhmxnG0eYuPLX3KRQoVFsFNXffx4wARxAeM+Dc7daOwHYgCPFEHCbLNKsQuL/t4C+AQJENZ3vOQVRmQHvXIeTL5CyMcLsdFK1AyX/Gh/vRe/ECdhU24pknntsWwyQZ947cxeuX34QtHkNxQweKq1uRr9Qy8wNlX8xUsrBCCpLxKAJeJ6zTw5gdugVJNIwXnngOnU2dEHNRCttinq5lEBxBWAta3LlbgsB2IAgONxUUmkKRvgSF2uXiPx893D4XPug+hxHXDJ449TwMRSUQisTbwq5NGhSyYbuddvTevArv9CxO7HoKbRtI0rMlk3GVN3V5nbg1cAtX+67Bl5MLfXUrCqtaIFWqkZu3XOgql8djRanSWTxpNd0jkkZpnqlgFL0jlULI72akwDreC37Qj72NHTi8+zA0Ss22mH+rwYU75xcR4AgCNysyHoFsJwgPzAtzkzjW9el29lg8hnujPXj39ntQV5Vjz6EjKFDTDlSYlRoFWowoSiHg82J8sA9j3XfQqKvG8a6TkEllGT/30tFBylQ5ODWEi3fOY97rRI68APmaQii0xZBrDCyfQm4eHzm5Ocgh4pBLBGK5iNZy2eecByaKTzJV0ByjY/l9CUupJaSWkqwOA/kRsGqcKSolnUI46IPPucgcDgMOC1JeBzRiKY7sPoKWmlYun0E6hL5N2uAIwjYR5HYeRrYTBFokKbzRvDCLIx3HViWqSDSMuyPduDh4FfraatS1tEOl1bH8+usp2byqm6bppJXy0rFoFH6fB7MTYxjvvYtymREnuk5CJd/ZNmxyziTn1FuDN9E70gN3KACIpeBLFchX6SBTaiHOV7CXgP7OF7BaC1RrY5kwUG2pnxeqYsQglUIyEUcyGUcyHkc0EkQk4EM46IHf7YDfbUMs4EHS74VSLEZzTSv2tx5EeWEZBPzMqZiZpinINZMmBDiCkCYguWY2D4FsJwgUEkfmBUofXFNWuyagqBBR72gPPrh7DmKdCk0dXTAWl0Ekkdwv1Zs5DnBMWxCPMx8DMiWM3LuL+ZFRNBXV4VjnUzueGDxK8OTDYHfbYLKYmL8KkQi318WKUZFmKZGMAzm5yCFtQ14eVYdGKpXAUnJZO8DPzWNkQsAXMEfCYn0pIwBlxnLoNQYIBaJHdYH7nEPgQwhwBIGbEBmPQLYTBNIcTM9Noqv1wIZCwyz2ebx7/V3Meiyo2bUbZdV1kBeowBfw2cJAIZJk235cBxECsmOTbwGl3Q0FArDMzmBysB/whfFEyyG01+1iCxZ3cAhwCGQfAhxByD6Z7bgeZzNBWPY/mGYmhqOdHw5vXK8gqSzx0OQArt67CkfYDU1pKUqqaqAvLEa+Qsl8FcgMwV70M3OE+7kde633pTGQWpzIQDKx7NyWTCQRDgXhsFpgmhqDZXISvNgSWiqbcaDtIIyf4Ii51ntz53MIcAhsHQIcQdg67Lk7rxKBbCYI4WgYM/PTTE28qz79WQJp8XZ6nLjaexm3Bm4glIxCoddDYzRCozdCqdJAUaCGJF+6rF1gpuuHyML935dFsXT/v+V3KvO4HH0Qhc/jhsflgMu2CKoe6bJakQpFUVdSiyOdx1BZXA0+b+ckeVrl1OVO4xDIagQ4gpDV4tsZnc9mgrDgsGJqbhKNlc1QypWPRWCJZAJOjwNjplGMTg9j2jKNWCIGiUyGHB4PuXweC7HL5VGoXR5y8/IYEUglkkiRhiCRxFIigaVEEvFIBKl4AtoCHerLG1Bf0YAiSgLEVaB8LLLkbsIhsJUIcARhK9Hn7r0qBLKVIDDzgnUG0+ZHhzeuCgjuJA4BDoGsQWAlmieZSoK97oebJpdSLAyV/VuOTgUFpZAZMDdnObyVx8JdyTyYh7z7hcC2IhsnRxCyZrrt3I5mK0FIJBLM98DmWszoEsY7d2ZxI+cQSB8CqSXK+ZFgESeksaOibN6QH56gH76gHx6/B06fG76wH8FIGBFKZ51KMqsfLy8PYoEQMpEECokMGqUaMokcSqkMSpkCUpEUovsRKgIKeaUolvuhrukbwS+2xBGEzUSXazstCGQrQSA1//TcFIy6QqaW5w4OgUchQLvOh3eeLFIklQQtPqn7n62cs7wDpf8zr5L7jqjLP+fed0qld7YTZTvS5d0p/by8a13OpcAd60eApQ6Px0C+Rr5wAFaXDTMLsxiancCY1QShTImiigYUltVDX1QFsVT2yMyUlNjK41rE4vwkLJTyemoQMr4Q9YVlaCytRbHWCJ1Sg3wiDUIR8/3ZLFlyBGH9c4O78jEhkK0EgYozTZon8OQjsic+Jhi522QYAixvRDLBXrF4HPFkHLFEHJFYFMFICP5ICFQIyhv0wRsKIByLIBqPI5yIIRKPIUovSo6USoGXy4NQwIeIJ2A7TTF/+WepUAxlvgIyST6kYglkIin7G4WeCng8trjQi5fHY6/NWmgyDPoNd4dyVlA0kcvvwbR1FjdHezBkNaG4bheaO56EQqXblJBj8+QA7l0/g5jXga6qJrRUNKBUVwSFVAaRUMxMFOmUIUcQNjxVuAY2G4FsJAj08CeCMLtgWnX2xM3GkWt/axGgOUELC+02iQQEwgE4/V7YvU6YbPOYtM1h0ecCX5QPbWE5dEUVbNdJiw1/A9kOwyE/nItmLM5PwzY/CadtDoKcXJQWaFFJtUHUemjkKhQQO1laAAAgAElEQVTIFJAIRZAIxWyx4QjDL84Xkp8/FIDZNo8rgzdx1zyJ2j3HUNu6H0KR9LFOsIDPjdvnX0F40YwjjR1or2yCvkALqUSaNqLAEYTHKlLuZutBIBsJgi/gA1VoJBVgbXn9eobNXbMNECDzwLIKOgJPwIs5uwW9E/3omRpCIJVEUUUTGnYdhqG4imXGfNxHMODBzGgvRnqvwLU4C0O+Ap117WxnalTrmR1cLBSBR1EvOctpnnfiQeTOH/Jj2mrCO3cuwJ6Tg91HPwul2vhIk8HjwGt6uBvd53+KI7UtONDYgSJtIcRC8Ya1CRxBeBzS4+6xIQSykSDMLZoxZZ7A3pb9jCRwx85BgPwCyFktGAnC7nXBtGhG9+QghuanoS6tQfv+U9DoSzISEEqENT3Wg7tX3oIgHkFndQuay+pQrC1EAdWHIDU2FZHaQf4L5GxodS7g7dvnMBHwoePEy1Cq9Bkpv9nxPtz94Mf4bOdRdNS0sfTmG5EXRxAyUsxcpx5GINsIwoPqjfNTOLY3PdkTuRmR+QiQ3GkxIU2B2WHF9ZG7GLXNw1DThtrWA5Ap1Jk/iI/0cGFuAr3XzyDX78b+2la0VzQuO8hJ8neECYJ8QHrH+/Czu5dQdeA0jGX14GVBQrCLb30LxlQSp3cfRoWxbN2OjBxByLqv7M7rcLYRBKrESNkTyYlpd2PHzhPYDhwx2aadXhcGTaP4oO86YlIFWg+cgsZQti3QIBX75OAtjHafR4NGj8ONe1FuLEO+RPogKmJbDPShQQRCAbx35zxuWGfRfuxzUKoNWTXExblJ9L77P/Erh59HS1Uzc0xdq+aHIwhZJfKd2dlsIwiLjgVMzk2gsbIRyh1e2ni7z1jSGtAuc8Iyjbdvn0dMpUfj3uPI38ZyX5gdx9C1t9FuKMHBhg4YNXoI+cI1Lz6ZPDdC4SBev/YOZpCLqj3HIJU9niyo6cbE67bjwg/+Ar95/PNoq25Zs9aHIwjplgjXXtoRyCaCQAsGlenlwhvTPg0yrkHaVTu9TnzQcxn9zkWU7z6CovKGjOvnZnXo3o0zCE4P4UTzXuypbYdULF0XSYhEI6yLtMMle/nDRzgSYsXGPhrrT6SMzt+MSAvKePj2tXfQF/Sjeu+JrDQNPYyh12XD9Z/8Fb7x/K+x8t8reTBWMy84grAalLhzthSBbCIIiUSchTcuOhdxYNehLcWNu/nmIUBEcNFlw2tX34ZLokBt55OQ5Cs274YZ2rLLNofhS2/gifJaHGrZ96kkgTCLxaMs1FMoEGE57DOGwakBRgyMmkJQlkCZVI5oLMJSE/dN3GN/p9dKCuJQNISr966gpaoVCsI8JwcigZClLaZoC8ocRbkl+Dwe8xdYa/TF1PwUvn3tDGoOPY8CXVGGIr+2bpkn+hHuv45fe/plhtlqTQ0cQVgbztzZW4BANhGE5eyJkzBqi1Ck57InbsF0eSy39AV9+NGF1+DIL0B953EIdnCkit/rRM+Z7+HZxg7sa+wEn//xVT0pTHDCPAa724ba0jr4Al5YnVa2mAt4QgxND8DmWsCzhz6DUdMwSHtQIFfBoDGyZFDBUAAyqQyDk/3MrHOg7RC6h++w8uN7m/djCSkU5BcwjYPDa0eBTIXKoipIxfmrXhCpL3/+vf8CTddJ6MrrWVvb5Tjzo7/E1/Y+hYayumUitYqDIwirAIk7ZWsRyCaCMGudwbhpDE92nVj1Q2lr0eXuvlYEKO3xhbuXMBgMQNe0DzLl6qMTaBedTMTvzw2q0AOWcW81OzoWPhmPPbieJxA+cgEjjVYqmWDJmNluOm85zXK6j7mpQSQm+3G6dR/KjeUfO5574z1skS/WlTCSEE3EmGbA6rCAbP6egIf5MuTTgp6bg4rCSkzOTbK6A+TwS4TCG/Sgo7GLmfHCkSDGzWNM2/D5419i15kWplFmKGcpqGcXTagpqUORtvhTF0TSaKykojYvzOIfrr3HIhZU2sIHMBEJobLndAgEIuRsINQzHo+yUuo8noC186iDpXOOhpCTkws+3ft+Gu1HXffRz52Lc1i4+FP81vO/uqx5WcXBEYRVgMSdsrUIZAtBYNkTrTOYtczgSOeTWwsad/dNQyAUCeJH196DW6FBXfvazEikNp+d6AOPLwSPL0Aejw9FgZYt9LQALFHNhVSSLej0N1ZpgUpxU1GfnFzMTQ3B5ZiHJF8JY0n1fbNGDiLhAFtwHmgycnJAOf0XzOOIhIMQiiRQaowQiaXIpV3xgzaXrxUIxMjj8ZbV9Hz+utIEX3r9H/CZunbsrW//VDt3/0QvjJoiaJRaDEz2welxMh+DQMjPtA/aAj1Mlmk4fQ62+68trcf47CgrelZeWMEWSKvDisqiSkYc3H43ygxlKNaXQq82YMFuYURIr9JDsIoMlPdGe5AvkcGgNuCdq2/DrS+DtroFAqH4wRxy2uZhmrjHZFBcXg95AeVBWF7kU6llAkayoxfJlrCnn/Py+EzDkZuXi6UUfb4EWqiJ6GmMpQxnmgeUf2IplQSRPvYztcOja5MIB/0Y7b8KsUSG4vJGSOUFbD7Q56S9IdPWCsGkeyfiUdZPkiOrzPFQzoq3//bf4N9++fegkhesipRyBGHTHiNcw+lCIFsIAqmdZ+a47InpknsmtkPag4nZCVyZm0JOSQ30RZVr6mY8HsPr3/l/EY2EoNYXQ67UwFBczdoQiqUIBbwI+lzI4wuh1hWzhz2dS7tXSb4cA3fOM1JR27yPXUNplIVCCfrvfACtsRzlNa3sXFogiRj03XwfusJyVDbsYQuUx7EAiUyJZDLO7iXNV6Lv1vvsuny5mt2vuLKJpXdejVbj4cH3Xn8XNVjCgdo2yCQyJFPkB8BnPge0UNPYifTQ4kYFpmjXvuyPsPwZOR1S1knSGKwUrCJVONWpIB8Dqj0h4PMRj8cf7OBpMRUIlq8jvwbKQ0GOiyv3oCqJ9BmljqbP6F6kccjLJRX7EiuE9Qf/6V9ifnEOL5/6MsZmx1D/ma9BVVT1IbkO3b0I89QgW3BpsS8srUVqCVDritiCn69QIeh3M2KgMZQi6HMjGglDpStkaa4LNEZQamRa+OlcXp4A4ZAPQb8XGkMJa4M0S8bSGgT8HngcVuiLq9i1RBLG+q6x32ku1Lbsg9tuYW2//+rf4cDJl5msaMzG0lpYZkYhEuejtLr5gcZhZTA/+eb/jf/wxd+BTqFelXw5grCmrzd38lYgkC0EgR4yE+ZxdLXsYw8k7theCFB2RG/Ag/O3z2E6BRTvPsIW0rUctBBeOfM9zE4OsDK/So2BLcwBn4uprt1OK/weJxQFOhRoC9miQYsEVQSkRZNSIicSMbR1nWTkIBGLoriiAVbzBCMQtKOlWgsBvxu6wgo4rLNsJ0x1HShRk2VmBKGgF7FohBENupYWJ9q5xmg37rBi37GXUNPcxTQKaznGB2/BcvM97CmpRoFCBa/fA6O2EFa7he385xbnoFKo4At62VjIGZF2+1Wl1TAvzKG8sBwmq4mpv8k0Qn4GWpWOLd41ZbUstwj59Vjs8xAJRMwcYffYUVFUAZPFhOrSWkzNTUBboGPmCCJzKoWamSOaqpuZ6a+6tAbjpnEU3N+FE6l/5ewPcW+0FzqVHrk8Pr70+3+FoqrmXyAIYwM3IBBKIJEpYJ4YQEX9blCEwMTgTTxx6iugz4vLSRbjTEOgoPZyczE10o22fU/DYTVBKitgBCMnN4/NgZqmvXDbrZibHkJty36GubxAi4Hb5xhBnB7tQdv+p5lMdx94Btff/zEadx+GxTzGNAs+l40RBpJhOBxg8zHk9zDNxKFTX4FcSUTg52aM1779H/Gvn/8qClWGVaWI5gjCWr4B3LlbgkA2EASWPdE6wxwUj+09viU4cTfdHARWMiQuOqwYM40isZTCQk4eUoWVTM2/loMIwq0Lr7KH9vjALfCFQugLK9nCTAs8qaS1xjJWm+H2pdfZ36h8s0gqZypo2sVWNXSgom43Kwk8cOccs5VHyIFPqWELk91qYpoA2k267PNMhU07WJtlmpkSyMRAdnCJVIYCTSEooQ79jbQZan0JiisaWdz/WjUIPVffRodMgYN17SzTYrYcf/Gd/49FT7x08mW88v6Podj3NJSFlR/yDxi5d4XhVNd2CPmyAlx65ztQ60vhddsY3k++8Bu4ce4VplGiMs2kBZEV6JCiqo9BP+paDzDTklpXgmg0hFgkDMpSWV7bzmRP5IEWfhtFQFmmIFdqmexJC1HfegAD3edRVFYPr8cOu3UGFbW74LJbQLU0SioaEQn5mRZGZyxHKOjD0N0L+Oyv/SGbGw8ThFf//t/hT1/+XWg5DcLy9KQvdygUgtFoZELjjuxDIBsIAsVyU3Emyr+/p7Ez+0DmevyxCLAiPUEfpuen4Pa62A5UpzbgtdvnsCiRobJp35oc/8geTbtCshuT/Zh2mD63ne0Qy6rbmHnAaTOjqmEPUz/TQk2VHId7LzMVM6mxxwdusp0omQ6Cfg/KatuYuUAoFMPjXAAlxyHNAP3s8ziYJoFqB9BiRouRWJIPkVTGdsOU0Mk2P8U0Fm6HhdnL69sOMUKxFoIQj0XQ8/6P8WITVRVszKrZRGsEHTTety69gVmpEvq6XcxfY+UgDQ05CpI5iPw5pkbuYuTeVbR0PgXHwizKa9tw7o1/ZKcfOP4FRibIb6GmeR/8PgfKa9qZDElexpIaCEVihAI+pl2g2hx0PpkmouEg00CQKYFMRtQnuueld/4n0wAdOPFFRixmJwaYtkAoljDNE/WBTBHU1p3Lr0Oar0D7/tOsrytyJNm+/w9/gn/95W9ALS9YlYw4DcKqYOJO2koEsoEgLDoXMDk7gYaqRhaaxR3ZjwDZrt0+F/rH+iAVS9BaR8mAlnfGV3ouo9tlg6qhEypd0Yd2adk/8rWNgGzfU0O3IVk041TbARRncXgvmUO+efktlO87xXIgrJYkJeJxjPZdZRqBTM26SMTCf/M9/PqzvwK5VL4qIXMEYVUwcSdtJQKZThC47IlbOTvSf2+yXUciYZgXzczuXV5UgbqPlOyOxCL48bmfYiqZRF3XSba7W03IWvp7u7UtklOeg0J7r7yJL+59Em01rVvboTTc/X+8+jfIq9sDfVUz095sh4NMTxdf+Wv85qHTqC6uZI6cqzk4grAalLhzthSBTCcI5IlN/gc2yp64xrC3LQWWu/kvIEBqWnJEHJ0ZYeFm9ZWN0BRoPxYpt8+Nn156HZZcPir3HGU+AOT4txMOIsXxaARumxkjl17HM817sa9lH4sSyPaDiOF3r52BYfcRaIwVazIhZeLYScNjGrkLjPXgq6e+zJJNrfbgCMJqkeLO2zIEMp0gUBw3eU8XctkTt2yObPTGK2mA7W47xmZGUKBQo7Gy6ZELHnnan7l5FmMBH7S1u6DQF0MklmX9ovJpeFKEQcDjhMM8BsfQbTy3+zB21bWDzxdsVAwZc/1bl17HYDiMorZDUKgpGiE7/deIHNjmJjH6/o/w+1/8HajkqlWbTUgYHEHImCnJdeSTEMh0gkBhVOOmURzrOr7mvO+c1LceAXJEpCQ9FGJHYXeVJdWoWmN0AoXJne25jJhSC0NtO2QqPUSS/FVnSdx6FD69BytZHMOUzdA+D1PvZVTly/HM/qdZKON2PH5w5vuY54tgaOiEXK1/ZNbKTMOANGD2+Unce/d7+BfPfRWVRRVrdtTnCEKmSZXrzy8gkMkEgRYXSq9MBZq47InZN3nJEdHjd2N4cpDtgFtqWll8/noOqh3w/s2zuDkxgPzSWugoXFCphVCSz7LrfbRS4Xru8bivYSmGoxGEAx4EHAuwjnRDGPLhhYPPoK6iftW27Mfd73Td74dnvo/pZBKGpi4U6EpYyOhqHRfT1Yf1tEM5MjwLsxg59wp+6/SXWdbJ9UTxcQRhPehz1zxWBDKZILAQOMqeKBChtqL+seLC3Wz9CNCOmEJT5xbNLHdFsaEU9RUNaVnEiXRQEaHL/TeRkBVAUVwNsVIDibwAQnE++AIiC5mpsmYZDJMJxKJhFlsf9DgRci7AOTmAUnkBnt53nEUprLVC4voltfVXXrp7ETdN45BWNkFTUsPSXG+kFsNmjogSa/k9DljGehGfGcLXnv1VaAo06yY1HEHYTGlxbacFgUwmCBbbPCZmx9HZ0gUxlz0xLfLe7EYova4vQMRuEoFQANWl1SjUbU7lTfOCGWdvnMGoZQbyokooiqogkqsgzJczskBZDsmxcbUFm9KNDaVfJi0BZWeMhkOMFET8HkQoIc/kABBw40j7E9jfdgDyVRb4SXcfM6E9qgPx7Xe+BxjKoCqrh1xrhJB8TTZQtCmd4yK/kJDfDb/DitmeS2jXF+P0gVOQiCQbug1HEDYEH3fx40AgUwkCF974OKSfvnswz3tKXexxYGhqkFX/a6lt2/BDdLU9dHjs+ODGWdwcug0elTGuaoFUZUCeSAK+SAKBWMpSHlM2RUYYaPHJzb2/COWuaxe4XPwpxeowsHf6PZlgKZwT0Qii4QDikSASoQDclmlYJ/qRn5eL0wefQUfTXkgfSha02nFu5/NuD97GOzffh7y6BTJjOaQFOoilMmZCetymB5InJaii1Mphjx22sV7kOBfwzz7zG0xrkA4tD0cQtvNs3iZjy1SCQEVfKE6e8rl3NndtE7S35zAot0EwFARpfCgktcRQioYtzvi36FjA3ZFu3B64hWA8hoLiKigMpRBIZEAeD0mqEEilffN4y1oGygTLSv0uE4fld6rokMOqM7JqgvcrBi6//5wMIJVE7tIS8siEEI8h7HfBZR6H3zaPEl0x9rZ0oam6ZdUJdLbnLFn9qMiE9MalNyEtrWOaIZFCBVG+EgIie0QWNkGzsGL+oTTZkaAfkYAHcb8XlqGbUAL48tNfgrZAmxYz2QoSHEFY/ZzgztwiBDKVIFDeAyrORLZrKgrDHZmJABVZ8lBug+lhVkWwqaqZFevJxCORTMDptmPaMo2JuSlmBqEaEERGqV4CVXnMIy2DgMpFC8ETiFjhH8r5n4hHkIxF2SsRi7BCTkQfyOmyyFCKquJKFp1RaihjtRKy0Wky02RGDq4/O/8axiwzUFU1Q6YrQa5YukwURPT+cxMSETxG6h4qv/xx41mpZEkhiqTtoboa8UiYpWFORIJYigRhmxqEf34Kpw6cwv6W/RAJRZsCDUcQNgVWrtF0IpCJBIG+xOaFWVYh7ql9J9I5XK6tNCGwUmSJ7McUhqpRatBY3cJKEHMHh0C6ESB/lmu9V3Gp+zySfCGUJdVQGsqQJxRjicpL5+Uhjy9g4ZIPNED3yQLN1WWNT5KZf4jwIZlEbirBNAXu+Uk4TWMo0hhxYt8JNFQ2sfLYm31wBGGzEeba3zACmUgQaFdKqmra3R3Y9cSGx8g1kF4EyD7rDXhhXjDB5XWxcsOUMpk7OAQeJwIUJTM0OYjhmRGYLTOgFN3kayIQSZk2iJmNAKSSD/uEhKFUqFBRVIWmykY0VDUx089WaHw4gvA4Zwt3r3UhkIkEgRadKfMEDBojig0l6xrXZl5EOxLy1iciQ455FHqXSMZBtvgU260ssZ/ZzoUp3nOQy+zb9J6LXCoynJPDYqcFfCErh8ujHVAeb0seVGvBaqXI0uDEANtltdfvzqryw2sZK3cuh8BmIsARhM1El2s7LQhkIkEwW00sX/+TXSe2fMGk3TLZrml3Eo6EEY6FEaY49ngE0WQc4XgEbr+HOVPGEjHEknFEk8vvRB4SpMrMzQU/jw8Bjw8hvbOfBZAIxSjIV0ImlrG/ifhCFs4pFoiX34Vi8Pl85GVAXD8r7R4JwmqzYMYyzUIXG6ua0jIHuUY4BNKNwEqZ6ZV2H+WbkO77r6Y9jiCsBiXunC1FINMIwnL2RBNMluktyZ74gBBEw/CH/PBRQptYCP5YCHOOeUwtTMPmdSBfLkdldQMqaxpQXFoBaf7qi7SsCDwaCWPBYsbkxAimJ0ZgX7AiXyhBpbECZboyaPILIOaJIJfkQyaRQSKSMhv/41aHsiJLfg8mZscYCaLqi1qVfkvnLXfznYsAS01NDoaUiTIeZ06mUSLn8TjiFGZKDoj3I04IJaa1y81lGjt+Hg9CvoC9BAIhI+4r36nHTSI4grBz53DWjDzTCAItyjNzUyw1L0UwPI5j2bM5iUA4gEWXDU6/C56QFxPWScw45qApKsKho0+jrKLmcXSH3cPttOPOjUsY6e+FWqxAQ3EddAotFGIZdAU6KPIVLBXvZj7UmCNiPAqH244J0xjz2G+uaX1kkaXHBtIm3Ghl57ns2EbmoeVIx5z7ZiH26yM85TehWzu6yZUcG6S584cC8AX9CJEmL5FAMBbFotsOq9sGm8cJd9CLQCiIWDxK0anMxMfLzWNzlki2WqaEQamBUa2HWk4EnA8Rjw+ZWMqIOOXvoKgF0tpttpw5grCjp3V2DD7TCALF0pNX/N6WfRBvMFPZoySwXGWQ6gV4sOhZxNTiDLonehDJS2H/E8fR2LIHEqn0Uc1s+ufxeAzmmUncuHwO3sVFtJY2oq64Flq5Giq5mpki0q1VoB0YpbomR7AF5wJK9KWoLa/b9LFuxg1WfEJIE8JeqQSTeyQWZQQologjeT/ZEY2bXsu70CRbYCh8jhYMtgu9/067UvIbEZLZSCBiCxDtROlz2qnSKx3JdDYDj2xoc5kUxOAL+OHwEWEPwBnyYWBmDAOmUUiUapTWtKO0phVK1dqLPVG+A9v8FEzjfZgevQuZQIT28gZUF5ZBKZJAla+AWqFiyaw2iyxwBCEbZuIO72MmEYSV7ImU/+Cprs0Lb3ywM/Y4MO+0YHh+DOP2GdS0tKHr4JOQSvMzdlYQWRgfGcDtqxcggwC7yltRpDJCr9JDKpKmhSiQ2tbtd7HcBrQottS0ZU0q4BUHUvL/iMaiCEVCCIRDzFckmkgiRrUQkgm4A15YnQuYc1jh8LkRjITY+aSmpn0necBTbgTaRS6ThgRSyRRb+JdV1EK24zQUaFl4nEGlg5QyNtLntGNlPiYiSMUS5mtCzqg8Ho+Rhs3emWbs5F1FxwhrkpnNbYfN58bEwiwuD92BVFuE1n1PQ20o2bTKj5QWe2r4DnqvvYNCmRL769pRqFAzGasUKibzdMqOIwirmBDcKVuLQCYRBHIEJAc4n9/LNAjpPlZsl06vEzOLJvSZh+BaCuHA0adRXvn4zAfpGpfbZcftaxfhnp1He2kTaoxVzPxAGoX1PMgIH1LjWu1WTM9PwqA2oLGqOS2kI11j/rh2KGKESA2ZpygCxkMqaNp9RkKYsc1jeG4S8ZxcqA2lyy9dMZSaQojE0nXh9NE+kFYi4HPBZZ+He3EOdusMvE4rtPkK1BdXorBABwmfDylfBJVMyXamEkr9vMkmos3EPN1t09yjXAdzDgtmHYv4oP86luQq7Dr4LBQqPctt8LiP2Yk+dF96HW2F5WgprkaFvogRcYreWc/366P95wjC45Yod781I5BJBMHmsjFHuM3InshU5uTfsGhC/+wQHEtBHHzqNPTGojVjlmkXBAN+9Ny6Ave0Ge0lTag0VDCisJYStKRSJ0dESm8djARRWVyNIl3mYkPyJDMBRY+QCtpFBaJsc7g11gtnOIzS6hbUtR2EWl8C3hYmb4pGQjBPDWKk9zLs81OoMZRiT00Ligp00MgLoGFq7PwdTRZIjuZFM8ass3iv7zqKWvahqqkLwk02Ma72exwK+nDxzW+hVCzB/uoW1BRVQKNQb7iYFEcQVisB7rwtQyBTCALtIOYWZjFmGsVT+06mFQ9SN1Mxn7uTvZjwzaNl30FU122/ED2nfRHdVy8izxPG4aYDKNQUPbIK5oofhtNjx9jMGMQiMVpr2zbd/2O9Ama79VAAi24b7H4PxhbN6J4YQK5MiZa9J2Aoqd40FfR6+/zwdRS5Mj5wA8M9F2GUytFZ04riAg1znKNFh/wZ0u1Pko5+b0YbNPco4dbY/BReu/kBCmrbUd2yH8IMLWIVCnhx+c1/wi59MToqG1BdXLUhswNHEDZjVnFtphWBTCEItIhTeOOCw4qDacyeSCrzGesM7kz3Iq4Q4fDJZ1l403Y+Bu/dgamnD7tLmtFQWg+Z9ONDMGkXToutxT6P+UUzjNpCZlLIxINC2tw+N+YdVkzZ5tE9M4IclQGNe45CqTZkYpcf2SdygpybHsLgrfdRSQSntBqlaiOMGkPa/Eke2YktOoHIwaJzEddGe3B9dgLtT76EAo1xi3qzttuaJwcwdfMMnm09gD33K5aux+TAEYS14c6dvQUIZApBINvxpHkcRk1h2rInkupyaHoQF0auo6i1EV0Hjm0Bwltzy5nJMYzevoUaeRH21nUymzcdZEqg5I5kt/f43KzeBXnqU9KjArlqazr7KXclEhMMBzFrm8ON0V70zk2isKEDdW2HmA/Bdjk8zgV0X34TopAf+6qb0VJeB4NKz6Ij1rP4ZDIuRA7mbfN48/Y5RLRFKG3cC5Ekcx2DPw7LcNCHa2/8I55p3IN99btZWfO1yokjCJk8S7m+MQQyhSBQcaaRqWFWnCkdKlZSRU9ZpnBl7CaUdRXYs/fQjpO4Zc6Eye5uVIj02F23GyKBCPO2OVApZLLLOz0ORgqaq1uYh32mHSRDi8OCvplR3JwZhay8HjUt+yEQijOtq2nrT8DrQvfl16FbSqGjvA7N5Q2sOmY6vhNp6+QGG7K7bfj+hdeRV9GEotq2rJbnhVf/Gqeqm7G/sYN9v9ZCEjiCsMGJxF2++QhkAkFg2RMXTDDNpyd7Iu1Q7B47LgxcRlCeh6dOf3bzgczQOwwP9GC2tw/7y3ajpqQaP3z3e/jmK3+DXQ0d+K0vfD1jTQrM5LRoxlt3ziMgV6N291FI8hUZinL6u2Wbn0bvhVfRaSzFiY6j0Cg06yIJgZCfdU4slPyC03ozqQIAACAASURBVKov4GUJyUhL8XDOBiqzTOeny1v/YXQoXfkPz/8UQV0JCut2QyiWpB+8x9gihUZ+8P2/wK90HUdrdfOaqplyBOExCoq71foQyASCQA+xqbkpVqugvrJxfQN56CrKonZn7C4GfSY8/dKXNtxetjfQc/MqojMLqNaU4Tuv/yPeufwmnj70DH7nl/5XljY50w4ijOPmCbzdcxk5JTWoat6HvC2MRNgqfMh7/vbZH6BNocbJjqNQK9SfuEMlUkxhwpRDIF8sZVkgKbfD2MwwIwYF8mWve4puoYyhRMDIIZj8Tih0j3a+fJ4AHr8LtwdvYVfd7gcEgaIs6HPK5UB+E+QPQjkB6Pe1ajau913H+7MTqO46CYVKt1XQpvW+LrsFY+99H7/73FehK9CuWovAEYS0ioFrbDMQyASCYKUv2MwIOlv2MVveRg8Kmbpp6oWuuQ7l1dmZ/W+jGDx8vdNhw/D1a3COTSOZSCBfIsPuxj2MHNDDP9MOcl579cZZRPUlqGk/xDIZ7tSDwiRvvfNdHC2txhOtn/z9cPtczBxjdy2iWFeCeDLOHH6JNPDy+BieGQSp9k8feBbjs2MsS6E8XwFtgZ75pQRDAUgkUkYoguEQupr34eq9y8xX5VD7EaY+p6yClHQ6GPazOVRqKGeVPFebMTISjeDPf/zfUXb0s1AZyzdFpEQuycmG5sxa1P0b7QyFQZ4urcL+pr2rTkXOEYSNos5dv+kIbDVBoJ0O+R9QeuV0hDdSe/cm+3DDOoBnXv7lDeFHu6VYLMZ2Y0Lh5oafJajQTDyGPB5vU6IsrnzwLnKtHrx0+HNMDUoPfnJWXOsOcEOAruJiWqzevvEeJpNLKGk7BPEnRGCsoqkHp0TCAYT8XuYIl4jHwBcIIZbKV9VEIhGHzTKNSMgPuVLLdr18gejBtfFYFMGAByLK4b9JTpOORTNcfdfwTFMHaoqrPnbh65+4x9JFq2Qq2NyLTMYKmZJFp1AkjyfgYbt+qkdAsicSYbLOsHlNGjxKNx6MBLCrrgOz1hlE4xGMmUaYtuELT30JWpUO8zYzIxTUtsU+hzJjBYzqwk/1X6G26b7k8zIw3o93TKMo3XUE8gLtAwwJP4d1lv2uMZQy2ax3Xgb9bpZOWypTrirclQiYxTQKHl8IraGUmTxWCGk8FkEebzkp0qPIBt138LW/w++99NtQypSrmlscQVgVTNxJW4nAVhMEqsQ2Y5mBN+DB3uaNZ0+kyIWe6XvoD8zi5HOfXze0tBNxOW0wm6bYg0at0UGtWcnoRsWdUiy5DalqV3L0kz2Sx+ezXRaRC9pZkTqWVY3JyWGq3qVUij2A6HN6kBEhoIePz+OG1+uGXK6ETLH8gCHHQSIOlEWOQjMf9ZD6tMHeu3sD4WkrjtbuZ33x+t3MQVHz0IN63WA9dOFHy+xShAT99/Dx0b+x3+8fVP/hZz1X4VcZUNXYkY4uYWb8Hu5eeQvlte0gtT0t5HWtBxhZICzi0fDyokBqdHKApCJVkSD7nLB/50f/DbRI17ceQHPHk4y0CEVSVsSJfAUon7+uqAKFpXVMZpTrQCovgEyuYimb03Fcf++HOFlajb01zcsLH5tSOSwCZeWgglL9k/fYoq1WajA42c8SSZHpIBQJsPlKf7fY5uC+72dQUVTJwottbhuKtEVsnpFGr1BbBJrPRCx0Kj37TKcyYMFpRV5uLiMKtPCzWhVY7sdH36lr7117hxU/Im3VmetnsFTXAW1FA3h8wYN+D929iPd/9vdskd579EUUlzcgEY9CXqBD0OcGTyBEPBpBMhlnIa3hkJ/9LlNqEPA6IZYqmLxSyQT8Xif7bhVoCkH1FqhOAzl+0s8qbSEi4SAioQDkBRp2rt/jxE//6T/AWFqHPYeeQWFZHUIBHyMYpok+9nsqkcDSUgoF2kJ4HAvsO6vSFTM5PPydfP1v/xj//svfYEWgVvNd5QhCOr4ZXBubisBWEwS7y4ax+9kTyca60YPSKN+a7EZILULn/iPrbi4SCbNqihNjg6iqaQQlISoqKYf4/i6UHp5ypQqRcIip7YUiESijYWV1PSMNHpcDEmk+rPNm9iChok/08CU1q0QiYZzB5bSzgj+0ow34vVAWaNiDJRQKsJ0dLVrUpkqtQWFxObvHeg8iOrM9feB5IhieHIDZasKpJ57D/raDrMmVRfvBgnO/Eh777H5Vww+ds/I5W59WrqIKiKvsIZ2Xc//c+z/Tr+bFOYyEg5BUtUKtL15lY59+GhGEi299my0oRADsVhNb6N1OC6KhAPudFnzaPdKDPzeXB/vCDMIBH8pqWmGZHWPpmZfuk7rZyX7oiyrZguZz25Gbmwef2wZdYQVbnMxTA2jffxqdh19gC006jsHuC9B4Hdhf3YR8iZxlkaTaD1RsipwMqY4ELdj0O8mLHAzpZ4lQwswMIqGYzT2hQMDSUpMJgmp3hKMRiIUidg4laYpEw8vFiXJzmPaMwmPpb5S+mzQR9E7nkhaCakyEomFWAZHMElR3gt7ZPRIJZsb493/zb3C99yo+f+JluAIedH35X0JT8uG05kQQZicHIJEpEQ0H4fc44PM6UFXfgeGey6ioa4d5aghLSKGqsZOlsqZFvLJuD0b6rqCu5QAsphHk8QXQGcvA4wlgs5rgdS2iumkvhnsuIZmIY/ehZ0E5DCYGb2PfU5/HaN81lFQ2gbQIHYefx7X3fsRyMdy99jaa9hxlpJIIi9thYdo9kufld77LtBwnP/fPGQl8mAi88g9/gj/5/G9Dr1z+Hj/q4AjCoxDiPt9yBLaSILDsiYtmjE6P4Pj+9GRPpN3P9ck7EFUVoblt/TtQv8+DnjvXEYmEsO/gU7h59RyGBnqg1RrgdNpgLCxlGgGRSAzbohWhoJ89VF/60tcwOz2OsZF+aHVG3L5+ERqdASq1lj2Y6TyN1gClSg3T1DhsCxaoNDrQ/UrLq+B2OZGbl8uunZ4YZaSgoroeLW2d0BkK1z1fHLYFXH/vHVx6+3UMTvRBka/E80c/w6IYVkob00N/ufT18jv9W/45hdT98sfs71S86MHf7p+bosc32X/BNCe0aJJmZfnnh95ZRcTl32l3/uFz8ljSJp9cDWP7E2lzYiOCQGpkm3UGbrsFS6kl1LcdZARhdmKALRAypRqGoioE/R4o1Xq2w83N47MHPeUnSCRi2PfkSwyXkd4rTDNAqYBJKxEO+mGZHcWeQ89h4M45mCb6sfvgM9h75MW0Jf8ZH7yF8PBt7C2vZ6YDX8ADtULDKm6qC7QgHwRa8Ol36jP5CJDZgDQGFJWgUWrh8jrY32nBJ2dG+htdp1Pr4XA7IMuXwePzsB0/+S3QdVrWthsGjQGUCp3KjFNKbuJ0FH5JobIGjZF9RmYI8oGQEYFJxFhfvv3GP2JqdgKVxVXwR8J49nf+FPry+g8toEQQPvjZNxlB2//UFzDWfwOVDbsxPzPKyNvTn/86bl96HSUVjRjpuwqxRAatsZwRCTIfkTaI5Fta1Qy3c4FpHSyz42jpPMbk61iYRevep0DOhHMzw5id6EfL3uOMgDfuOozh3kuoae7C5FA3m+vTI3dhKK1hGomSqhamQUgk44zI02dF5fWsnxRV8zAR+Om3/gx//MKvo1CtW5XfDEcQ1v044y58XAhsJUEg+y6pNy12Cw7tPpyWIdPD69ZUD5zSJA4cXn9FSFITD/R1Y2J0kC3uk2ND0BmKUFZRjcnxYdQ3tbHFfWSwF/rCYoQCfvb56RdeRn/vbfT13GRaAJ/XzR4sHrcTen0RbIsWKJQFbKFZsM5BJJagvLKWqX8FQiHTVNDCrCxQIx6LweVyMJX3qee/uKG6EUQ23KNTKBNrMTw5xMJKTx18Bu31u9OCe7oaWXQt4sxwD8LaYpRUpScd9sLcJDwOKzMh0EISi4RZASC/z8mIDNm8iYiptEWYGrnLNAFkf7ZZZpimgAoxlde0sf703z4HSmpEiwsly6G0wLRIELFo3H2E7W7pZ1pESD0tWaWvw6fhR3Pl1vlXcVhfhAN17Y9Mn50uWaSjnW+//g+MHOxu7MR33/oOhO2HUfCRdNgzY/eYj0dZTRv7rty88BpikSAUKgOci2a0H3ga59/8FpRUVVFXApd9DqlkksmGCHdNUycG714C+QGodUWQygqY7EhzR2SPSAZpgsg8sGiZZv4QBRoDM/+VV7dhoPsck2Fl/R6Yp4cgFucjkUgw4mgsqcbC3AQzTZDpgwiJ12PH/mMvMY3UwwTh1b/7Y/zZl78BzSoTjnEEIR0zjGtjUxHYSoJAu5fJ2Qm2gyk1lm14nCsV4a4N38B0yoVnXvylDbXpsC/g5pVziEYjqK5rRiwaRVVNPQb7u2FfXGAVIIksCIQitujTot62ex9b5Hu7r8O+aEWBWoNgIAC5UgmtrpCRB2NRCVPjTo4PQW8ogrG4jD3MyARBuxbTzASLT6+oqkNfzy2otTpGdjaSIrr75mXETTacan8qo0s3k+r81avvYF4oQc2uwx+yVW9ImFl8MdUAGLr4Gl5s3ovWNIQBbxUUF+6cw//P3psAt5mmZ2IPb4C4D+IgCN73TUnUre5W39ecHnumPGM763iz3k3K3somtckmWTvx2rVxVZxax065xuWJj/F4Ls94PFdP362W1Lol3jcJEgRxEiAB4iIAMvW+ENRStygCIAhC1P+pWKTI//i+9/vxf8/3Hs8zshmHset4RpwWlD9AXhwCYHKl9qC6/8j7bkbDuPz3/xf+py//d1DLVWn1UQAIaZlJOOggLXCQAIHCC5Pz4zh//PmMlAd3shfFXOetc7g4fBFFWhnOvf45iCsPDx1vts8JeSIuv/sGErZVvHriFXZFEwAhr0W22eLZ9iWd825P3MJl2zwqm/tQZWosyD6mM45cHEP5LdO3P0BdIoZnugahLdAFMp2xErX3n//i26g99QrUhtq04vTpXLcQjpkevgyNYxFffOazaZcOCwChEGZO6MMjLXBQAIFi21TeuGCbwzODz+15lthl77FjbnmWCWXm12zYMijQe/TEoXoRZWMoq2UO89dvYnt1AxTWIW9FvakBXc09BbvgvHvrAkb9PmjbjkKm0adVspaNbQr5HAqFeGxziMwO45XeU2iqaSzk7qbVt39441vwaWtg7DhaMHLOaXX8EQdRwuSF7/4/+Hef+Q2Ydaa0Aa0AEPZqeeH8fbfAQQEEUhFcsM1zFn9H495jzZTFPb88x0lXp/vPYmxhDBcsN3Dq5Veh1hwOxrZsHoZQcAM3L74PyXoCvfVd+Ivv/Bn+5kd/hfMnnse//83/FQMdhZWDkBojlYC+d+t9DHs9UDb3QqU3ozwLQZxsbHbQ5xB4DgV8sM+PITw/ii+ceB5tdYeD8Is+n3/5i+9A2XMKhvoHyx0P2u7Z3J+qmcY++gUa41G8fuaVjIjeBICQjcWFc/JqgYMCCLTbp+qFwe7j95QGsx14ynswb51FW0MH1/aTzvzV6Ruwba1j8OnnIL/LLZDtPR7H8yhnYnrkDgLzVpxoPIL66gb85IMf4Xu/+DaO95zEK+deh15jyEqJLl/2eO/6uxh2LKPEWAeFsR4KjYFpl9MpI8tXH3N1H3qOKTHO61hC0L6AxMoCXj/5AloPCThI2Wl4Zghvz45C1X4M2uqGx5ZGm8I/9vlRbIx+hN969WuQZ5iQKgCEXH1yhOvsmwUOAiBweaNjCVMWKm98ac9jY++BdY7Lsk71J+v6qVGOw7t33gcMChw7dx5SaXrseXvuUAFcgPIOLLNTsN4ZRrc2mUVO+Qak5EhshVSmuLhiYfpck84MjTLJ1V+IjYS33vjoLaxsJSA3t0Ki1kPOjIZEHlWYfc7EjsSdQFnyPucyNtfcWJsbwdnWXgx2Dma0I83kngd97NtX3sLI+iqULf1Mu0xlpY8T6IuGQ3AtTcI3dAn/6vVfg1KqzLj/AkA46KdQuP+uFjgIgEALOi1O5G480Xtq1z4+6oB7uQfWWbTf9R7cfzxROL8z/AF0Ha1o6OiESlNVsAvhngxx92SyRzgUhMO6hKWhYagSFSzIQ1UTVG4mu4/GNhgOMifCRiiItoZ2rosn0p1CbSMzw3jnxnuIydSQ1TShTKaETKWDqFJ2l5Hy8QELLHoU2+Sa/YDXiaLwBpwTN9CqNeK5E88z/8Bhbxdvf4hhjwPbVTXQN3QwQ2WhAz4K/2yseeC2TCA0PYR/9dnfYG6IbMCNABAO+xN+CMZ3EADB7XOz9kJrPS1KeytbSnoPZpkSNsUK+Mlpcaw6cHnsMtbLE2juH4CxpnZPJYOFOu0UD/V63LDNzmDT4UWnrplr5v/vv/1jjM+P4bd+6bfxwqmXmDzn/ja1MAGbaxlmQy30WiNklaTeV7iLLc3n21ffxkpoA8raViSIHrlcBLlaz8yFxHBYaN6QJAFVgjkY/GtubPjcKMc2Yl4X1pemcbb7OAa7Dq/HYKfPzKJ9CT/48CdAdT00de1QaI08f9ksuPv5uWS1zPAG3MuziLlsEPtc+PILvwLZHrRCBICwnzMmXDsnFsg3QKAPmo3odBfG9xxeuOc9WJpFR1Pnpxa++w1Eu+VbU7cw5pxBY38/VHo9NDo9k6Y87o0WHv/6GlYddixPTUEaKcbZnjO8CyWxnD/95p/gL777Z3j57Gv4na/+9+hu6f3UkIkJb846yyyHVOFAIIK8DoXcKFQyvTgNcle7wxvQUNKbXI1ESSkqJHJIFRpm3SMuf2K9zCfooZ0m0fsS4RIR+JBmQCy0gdJEAgH7Avz2BfQ1deO540+Gt+BRzxGFu771029inUSwNAbI9LV3Q0hEN747ZfF+PqPEGkrhH499AQj6YR+6hC899Tra69ofKVKVTp8EgJCOlYRjDtQC+QYIzJ7oWMKKy7Zn9kQSeqLKhbXAOk71nU7LjjaXDReGP0SofBs1HW3QGqqhVGv5w37QL6O0BnDfQZTpHwz44XaswDE/j5Ddg/66LhztHHzgUm9c/Cku3HgfRzqPYbD7BHsKHrbDJo79ibkxpuhtNjczdS7x8z8udlmwLeCdq29icnEKEo0R+oZOlEgUiGzFUVxWwaEIqoQoF0tRXi5CMfFAlCRpoZNj/Fi172FjvqdJQYIT5BEgamrK5+BwQQyb0RA2wyFEwxus8VBCmghFwIbLBvv8CIo2ozjVewpPHX3mkWA20+fgsBzvXV/Fd37xbWypDShSVaFcroaiqhoisYyprfP1HNI8c/gn4MO6y4ay+Casdy7gVGs/nj76dM6YLAWAcFie3EM8jnwDBCJLmV2a2TN74se5BzPoaOzmJLt0G+3uJi2TeH/4ApQ1RqjNNZAqldDqjaytUGju6fvHReMm4Zi1VQ+8LicCnlV4LBbUK2rw9NFnmEd/pza3NAOn14Hm2jb2Luz0wqXkUfLyEMe+scrIug2FbJOdxkvKgzfHb+D6yDVsREO82Ch1ZsirqhkkxAHEEnHEt7eQIC2Ju4s+60eUkJZEclFi3YlEgr+oFRcVobi4CCVFxSgrLkE5KTZuJRBaX4XfbYOPqhDWvajVm3Gi5xS6W7o590No6VnAv7GO7735XazGY9A29yJSXIyyShlkah2DBU5oLC7OGWDg8A89B/EYgn4v/KsOlJIGScCHlbFreO7YMzjRfZzBci6bABByaU3hWvtigXwDBFp4JubHcP74c3siv2HvgXWOyxlPpuk9+KQBaQc+Z5vD+7ffx5a4DDVtrRAr5OxVkEjl7FUohIWRXmCUX0DKkasuJ/yrq1hbscO7tIy+hh6WyX4UMEiNm4AR5SL41r3obe2HQqbY8ZkiTQsCUfTSbDI384637BCEY2jA4UgIzlUnll1WLDuX4fK5ORQTCgeZVptUJsvKRCirEHGYhWxAktAEzJICXZVcXaCUKWHUVsOsr4FJX8Py2YfFRvvyssniomNzY/jphX9GQiSBobUPW+UihONxlIkqIZIqIJLIuZqFFDjps5oEDvRFN7sbnrgrPEYiXdvb5PFJAj6Wfg76Ed5YA+JxyCtECK3asTR6Ba01jXjt7OtQK/avukcACFk8EMIp+bVAPgECS+E6rBwWIICQbUt5D2aXZtHV3MUf4r02kom+ePsCLKvLaOjuRplUgq0ScPhBodJALK5EaVl+6u+TO5oEL1YkA03egs1QGEXxLSxPT6MoGOXYdUN15sx6tAhOL07xbrmjoRNikXhH05FgDYE5z5qH8xL0agMfny9X717nVDj/cFmAQhAX71zE9ZGrKBVLoTE3c4nkdmkZook4ogTkyNOzTaqid8EBfburQV5aXIIyyk8pLYOIzgmsYXVlDq7FKaikSjw1cA4DnUchyrGnYKdZEADC4Xo+D+Vo8gkQmD1xeY49B517UOqjWPnCHr0HO01mLB7jEswPSaPes4yaxmbo6+oQL95GcWkpJHI5pHIlJFKKY1cwyQvtKrPxNCQ9A4lkMlssxuWJG/51BgWbkSjKUIzImh+LUxMoixcxQ2R3czdElLW/h0YSvQSu5FI5Wmpbdk3UtKwsYNlhZTe5SWfa113VHoYlnPoEWiCw4WdG1gV6Rl3L8HhdLDNN4JY+X+RJIEBbVlYBpVwFndqAWoMZjTWNqDXWs8fnoACvABCewAf2cRtyPgECsSdOLkxwohwR9GTT6ENvd69wxj1pCagV6mwuk/Y55I4emxvF+9ffgXvNA4O5DubGZmj0BqCkGNFEDLHtBL+IKGadil1z8hsBh6JiflGR94TAAMey77o46XtJURHKS8pRul2EjfU1LC/MYWVxAcWJbRzvOcXJl7nwkHxywOTFodJG4kYgN/luAGcjGGA7EDhrqW2FVqVFeVnhciakPcHCgYIFDsgCAkA4IMMLt03fAvkCCMnyRisDhL2wJ9ICRYsb7Rz2SrKUvpUePJJ2J+R2Jy6HqcUpWB2LICVJ8iiUVVRwTJS+Jz0MpQwMYptRxKJ3vzajLB1dhCJO1mytb0NbbRtMenNauQTZ9vuT51H/XatOtNYTPfWD2vY73YPUN+0eO2r0Zk5ilDJnwsGWouXKHsJ1Hj8LUKkre+Ho625FCXkB44kEtjnUQMC9GGUlZfxZpJwS+j8pmdLP9Owe1PMrAITH73l74nqcL4BAhEZLKxZ498CemPQe2DFnnUF3Sw8nhQktewvQi3RsdgTEEUFJi+mSvtAcWGzzLBlda6x9LDgT0rFSsoyREtnoi39iEHf/InJQi0k6/T/sxxAI2IxvIhjagDfggy+whjAllZaUoogqGyiJtqgYkdgmorFNJLaoTqUIZaWlEJVVoKykBNsEHOJxIL6Jou0EpGIp1DIVVHIVly+mQg75mGcBIBz2J/YQjC9fAMHjc3Ny3F7YEyPRCOcw+IMH5z04BFP+wBAoXktlp5RH0VrXnrYHIxwJY3xuFIFQAE01TahS69M+N582TIZ3thBPxHmHSd8jkTA2whvYoCz2zei9v3EIiHUqkiWP1Mg3QjvOZGljSXLnWVKCirJyVFZUQlopgUQkYbBEO1JSJ6Ucm3wsMPm040HdiypHAqENrHjs8Pp92CqvwEY8hqnleUwsTjEY0BrrUFVdD3WVCQqVHpUyBeccpOaA5n8zEsIG8RqsOrHqtMJlm4fXY4dBXYWu+nY06GtQGo+hdHsbBrUOerWeK1W4MmKfPGQCQDiop0q4b9oWyAdA4PCCK1ne+MKpl9Pu2/0Hfpx7MIOelj5OOBJabixAuSHzy/OoUleh0dTEC2C6jUJGDvcKDFVGDjnIJYpd8xnSvXY2x9FiQJ6RSDQMX8AHl88DfyiArW3wLhOlpdiIRuD0uWHz2LHq9yEUDXNuxWZsM5nYRoCAhauKQEx6nBW/vc1lrxVlIojLK6CUKmBU62HU6KGiklgCFXR+Io7KChG0Cg3TiFOuTfld8LBfC002dirkc2gOCXguOa3wBv0IbgPXp4dh9TpR334UrT0nUSlT5fQ5c64sYOr2BbiW53C0pRetBjPKEwnUVlXDoCHwm/vqHQEgFPJTKPSNLZAPgJAL9kR64dMithH04/geBZ6Eqf+0BSjp07nqQFNNM+dFZLKYede9nI9BL/aGmibOZ6Cddj4aE0fFY7ygOL0urAbWEC8qQqK4BBb3CoZmRuAJ+CBTalFlbIDO1ABddQOkctWeeDhSYwuHAlh1LcNlW4BrZQEe5xLKi0vQWdeKjtpWSMn1HYtCKqpkQEGubBLEouTVTGycD1se9D3Iw+Pz+zBnW8BafBOXp+4gsA30nHoZWkNtTuYrnTHSMzU9chkTN97DsaYu1Cs0MCo1aDDWM+DL1bwJACGd2RCOOVAL5AMgkAwzsyeq9ag11mU83pT3YNY6w7FyIqgRWu4tQN4ACgV1NHZlxExJPaHdNyUwkkJnXXUDgwyK6ebqZXr/aAmI0I6fXM6OVSeCiRg2EgkMWSZhca1AbaxDc9dxVBnqOGH0oNraqhOLM3ewMHUbsrIKDLb2QSeRoXx7GzqFGjpVFcfAkzoRT26iJ32+1wPrmF6ehW3Dj4tTt1Hbexp1Lf0ofwQzaD7mlciUrr7zPci3t9FvqkejthoN1fUM8vY6ZwJAyMcMCvfYkwXyARBId4Hi1c8cfy6rneU970EogOM9J/c0XuHknS1A7JTjc2O82JOgUzalqATi7K4VBnHVOhMnku5WQpnunFD1CCW5Wl02rG9GsbKxhuGFKRTJFOg88gy0ejOHBwq1hUMbmBq6iJW5MbToa9BqqIG0pAQ1agMMWgMT9Ox10SnUse/UL8oJmVmawZzHgQ+nh9Bw9Dyq69uZTrmQGoGYy299G6pEHL2GWvSxtPzeBM0EgFBIMyz05aEW2G+AQElfy04r5qzZsSfe7z3oY3pgwXuwn49y0tszDVFFJVrrWrPiOvBv+DnfhDLOKWShJeGdPbzwKYRAEs+LzmUsrXkwbl9CeZUJbX1nOHTwODYSA1qcGcLChoXpaQAAIABJREFU6BU0q/VoVOtQpzXArDfn1I1dyLYJRYIYW5jCW2PXIK5tQ33nICqy5EfJ1zhDQT+uvPEt9FUZcbK5G/XGOt70ZAPsBICQr1kT7pO1BfYbIDB7om0OJcXZsSeGo2GuXKCM8+PdJ7Iep3Bi+hZYsi+CvswGM8yGuqw8ABQGmJgfh9vnuseZkGn8lq5BHoNZ2wJuL01j1uuGqf0oGjuOHbjrOX1r7n6ky27B6NU3oSstQ5fejM7aFpiqjCgrLc9q4dn9jgd/BAkyXZu8jffnx9F65jWodTVZPWcHNZLhq29BsbGGk/Vt6GroyIqRUQAIBzV7wn3TtsB+AwRKfKPdZJI9UZp2v+hA8h6suFd4R9vffgQK6c7iQhldWDh4VwtQzojL60RzbQuqVLqsFyryHhFNM5FG1ehr0uZMoHDCvN2CO4vTGHVYoW7uYWBQekgEox42AWurDoxdfRO15SL0mRvRbm7hZz6b3emuE3yAB4QiIbx7+wIu2xbR/dTnoNToD7A32d/asTQN59BFvNZzAh11bRkLdQkAIXvbC2fmyQL7CRDulTfOjeGF05mXNyZzD+ZAXggh9yBPD8Td27Dy49woq2V2N/fsKbRDAlFE00yETKQMSQmMFY+gaaaQwszyHN4avYZ4lQkNXScgKnDXcy5nxzo3CvfkTfRrjTjdNciVD9mCBAoZUZNWyj6V/7O67mEJY+JzuD9PxOVzQSaW7ktpHz1XF4cv4x3LFNpPvwbFYwoOUvPtsM7Ac+sD/MqpF1nVk7gw0m0CQEjXUsJxB2aB/QQIlOy2aLeAxIFO9p7OaIyce+BZweziNPraBva0QGV0Y+HgexYIhjcwbZli+dy2+vZHKj+mY7ax2VF4fC4YdSboNQbIJfJPLXxU6ja1NIO3J26ivK4DtW0D6Vz60B2z7nVi/sa76JYp8VTvyV1ZQ5PlnpsgVVLyOpSWlIEAACWNEjugWFTJkuGkAEqqiEQNbnUuobqqhvkasA0muiLBo5HZOzjZfZorRajCQiFVory0HJViCfNL0CJPPxPIyxS4WFYs+OalN9Bw9nWodKZDMW+j19+B1ufELz/9Wa5KSdcmAkA4FNN/uAexnwCBgMHUwiRrDVCiWiZN8B5kYq39O5ZyCOaWZnkX20TKj3vkNyDtB8pJIdBBEtJaZdUDu9dF+yJ+NvQRtmuaUd9xdP8GluaVk7TLRLlMvElJ2mVaIO//f5qXyviwwPoqxj/4Jzzf1IXj7Ue4tG6nRqE8SgqlkA4BL1rUrc5FrAXWGCxMWsbh8jnxyunXMGudZqZIqVjGIR8CZURfXCmu5OMi0ShOdJ3ETy7+iCmnXzz5Mgt6EVsk5QTRLpmYJAnkySrlaecOkN3+8sd/DTT1wtDUfaAlqBlPxi4nvP3t/4J/cepFdNS1pv0ZEQBCrmdBuF7OLbBfAIHzB1w2di2/mGF4IVW5MMO5BwP8shPawVmASJTsbhsaa5phrKpOe4e0U4+pnHJ0dhTBUAD1pkbo1Dp2ddPvf3zlLdgrJKjrO5PxAuJxWuFcnuOdsqmuDWqdiYEI/Z9YEXeizaXYPz1zMoWGy+u8bhuDgUqJHGteFyKhDWh0Jkjlah77qsvGi2WlVIHiktKHLpB0T9Zx2CNV74plEkXWGbzQcQS1+podH4LhmTssnEVgYMVtg06lY+ZH2rFvxqJY21jjHT8t6KRRQIs7gQnyBLC2gX8VoWgIR9oHWT55k0peF0bZI/HlF7+K1tpWzgcSi8RQSpXs3TNoq2FQGx6ZF8Jg6i6wIhDz9Q9+jIZTr/DcpBopnMbjm/xfsj/NWbq78E8aJBoOMvNlBdMk7+7uZxruzQhrOCTvnZ14E83T5sgl/NoLX05b00QACAf3ThPunKYF9gsgEHui1WHll9C5o0+n2ZvkYfcqF4Tcg4zstp8HT1kmmUSJQg2068z2BX5/H1NVDuTipsWGKhYuLc9j29QEnakx4+Fc/MU/4MaHP+Z8ha6jz/A1xJUybPh9rOxHiwZx9NPivxkJQqmtxmY0hKErb0Gu1DJbHy38TruFmQ6J23/ZMgGPYxHdx55lwFBaXgHL9BBTL0vkKlQZankxpfOAYkRCAYgqpfD73CguLYVcoQGxLaq01VBqjBnRWKcMcPXn38RnWntxpKWH+/WoNjRzGyYOG1RheHYI4XCQcwkoMZBEi+QSJYceAiE/ewLM+lpWJnWvuaCUqaCWq5kWXSFVQVRRwQBBViljGm2DxsggobSkGHq1Ia0S2KGpW3wtApZvXn4DNrkGutb+B3JKvO4VeN3L2N7aZoZLVZWJF3dSX6QyaQJaSU/OFkpLy/l39DOBM/qZbJKkwwbI67KViHP5Kz2jJXx8nCmzS0rLWG6drpW6djgYwPLCGEpLKzhZUqkx0GWYtdG+NMPcGilOBjo/QSJPRcV8LWr3fw7e+Prv4fe++m+hSVNETgAIGX/EhRPybYH9Agjk2qTqA8qAr6uuT3tYKe8BCTsd6TgKuVC5kLbt9vNAShwcnRnmuHR3c2/au6Td+kTUutOWSXbL2twrsJWJUEVc+xL5bqd+6u8EEGKxKLqOPI3xWxewODsCiVQB4tmn7xQXoIWapLdnRj9Ce/85Xgis82NcIUHeB6dtHifPf5F3lP41F4zmFl4oCAzYFia4HC9OO3KvE8GAD82dg5ifvE2Yg2v4i4tK2LNA5yg0Oi7vXZi+jRPnv4hTz/0yL4CZtstvfxdP62vQpq9JLsrb2xxOoLwCyvMhdz99J5BC3gL6DBHvBP+tXMS/I+8B5R3Qd/o9zSeVnZLKKuUe0LzyMZtRXpxJnIrvUSH++Jho5J6nhxZk+hudRwCEhNSI6CmyGebrxBJx0Cbhj7/xhxBXVOJI51HcmryN7s/9S2hrWx8gtBq/9QGsC+O8iNOir69pgkyhRnm5iGmsyeZBvw/lFWJemKPhjaSHR6qAx2GF1mBGeMPPIEFMXpSyCgaFZA9i0iQvkFgsgVShQbmoEh7HEsQSGdz2RZSUlGHizgXoTU0s6HTk7GsIB/0cRrr05rdx/PwXAPIyxGNQqHQM9ggUVNe1cX/uBwg/+Ks/wB/+yr+BTqFJC0ALACHTT4JwfN4tsF8AgXYa47MjeHrw2YzKf1LeA8p4p9JIoRWOBah2nVjvaEFqrm3NmXojselRKeR7199FqMoE08DTWfEcpABCR/85jN/+ABKZihcWWvRpIXfbLTA1dMLnsePyW9/h3WJ9Wz+ikRCkMhUvRjMjV3Dula+x1PPC5C0MPvU5Ps+/5uFdp0pjBIUylGr9vfDB0two7EQuVSnFmRe+wguPb9WOxrYjuPPRG3DY5nHkzKsMEChUkWm79eFP0C+RQF1WgUqRmBcv+nyoFRqu8JFL5SBVTqpUoO/0d6lEikBwgxkt6XeUuEgVKTKJHBuhAHsUiPqclFHpmPXAGgttrW+s3VWmLOZrk7eI/kaMmCR+xdchvYtEnO/Pf1Oo4POvQSVTwRfwsseBAEMwEsRffv//xZWhj9De0IGSsgp87nf+GIb6jgdMQABhZWkaSq0RRCA1M3YNja39WPe5MDN6FWdf+lXMjF1FTX0H7NYZPkah1jGQmZu4if6TL8HtWIREpkRxSQmHfJaIrbLrOHyeFVjnx9HWc4r/RvNHwJG8SdNjV/lcCikdOf0KLr/9PRaCIi+DY3kWXpcNLT2nWP0xEt6AVlfD4SqnbQEv/dK/hlJreAAI/PBv/jN+77P/Fao1+l09PWQAASBk+kkQjs+7BfYDINALitkTl2Zw/sTzaY/pQe/BMX7xCa2wLGB3r8Bim+cYNuUP5IpGmUZJVQ5XXDaU13dAozdnPPCJOxf5RU67QadtjnfrkVAQ/jU31Npqdj9r9DUIrHsZDMjkanY/025TLJHzokGegfqWPvYy2BYn0dZ9is8nN7hGV4NwOMDhAxJ8im1G+Fy6D/2O3NUt3Sf4+NDGOtRVNRyeIM8CHa8z1vPONZNGn4lLP/s7fLa1F4OtvRmV0WVyn/069k///k9Az8yXXvwyLty6gKqzn4XK1PiAB4HmjRbkjr6zvMunnXu5SIztLVqo53D+M/8CH739fQ4DRSIb7GkQie96CgI+dA48hbmJGxwOoJ0+5SEQ+RTNVyIRg8M6i87+c3A7rVhZmoJEquR8EwoN0T2vvPuPqG/tY2BFYJKePfIObUbC7M2IBP0MDOpbBzgcQaDkl3/rP0KlNT4IEL7xn/AHX/pt6NMMwQkAYb+eOuG6ObPAfgAE2t0Q+yG537qae9LuK3sPrHO88xC8B2mbLe8HEvBzeV1oNDfxLjQX+Qg0CApL/WLoMnwKLWraj6SVZJb3wef5hgQ8HLfexysdR9Bmbs7z3fd+O7fPzVUVVIHxw3e+D7fWBF1zL7v6U428AuTFMZqbUSGS8AI8eedD9J54gb0x9W0DeO9Hf8VendMvfAXO5Vne1bf2nkZgzcN/Jy8ELerVtW0MLgigEWg4cvpVBh8k3EXCSwQQNqNhVBnrOZeA7vn+T/+GAcPZF38V9uUZLM4Ms4eIgB2JRVEfyKswcPpVXPvgh+yZOnLmFe5r6tkn0PLGX/0f+P1f/V0hByE1sYRuQ6EQjMbskm/2/vgJV9irBfYDIFAp2/j8GI51DbLbM532gPeg8xi/VIRWuBagBEOqp29v6MxY+fFRo7o6ehXXXCtQtB3h3T69xJ/URgvZ9PV30CuV43T7wGP/mVhYWcB3bl5A7fEXoNA86J5/1ByTV2DyzkU0tA1wGKEQm8e+CO/ln+I3X/u1tOdJ8CAU4kwKfXrAArkGCNmWN4YjSc2FYDSIwS4h96DQH1OKMY/PjiKxnUBnU3dWyo8PGyMlyb1z6wJG/T4Yu05A9Zhx9Odq3mgHbJ8dRoXLipf6z6IuC5n0XPUll9f5sx/+Jcpaj8DY1F1wio3ZjpMqKS7/+Bv4Yucg+pq70865EgBCthYXzsubBXINEChjmoR+iCTpRJrsiUnvgQ1Tlin2OlAildAK3wK+dS+Iq0JSKUVLLSk/5kaiNxwJ4f07FzG27oOquRdqQ+2nMsYL3zrZ9ZDi4D4q+1ucQJnbhleOPo2GLEo+s7v7/p81Nj+Gn43fRPXRZzkpsZDludOxBr275iduYGv6Fn7z5a9mVN0jAIR0LCwcc6AWyDVAyIY9kbwH88uzoO/Huo8fqD2Em2dmAYttgSl764z1rNqYq6TFRCKBC7cvYNTtALRGKKsbkvXxJbuT32Q2gsI4mhYaKq9zWWew6ViCsbiYKZaNWmNhdDCHvfjR+z/CQkkpTN0nUSnLXmcih13K6lI0Z67lOUxf+Cf8N8//MmoN5oySSAWAkJXZhZPyaYFcAoSk+qINozMjeOnMK2kNI6XYSLXwg93H085ZSOviwkF5scDM4jRrLBAV816UHx/W2QXbAi4MfwQn1fZXmaAy1PHOM8V6l5cB7uNNKPktuLEGUgZM+H1IOJfwdMdR9LX2MufAYWz0mf/WW9+FSyRBTc8pVMqUj12uCSUlUmmrd+ImnmvpQk9jV8YeNAEgHMan+5CNKZcAgSR6aTe57FjCuaPPpGUpcieTYqPgPUjLXAV5ELnFx2ZHEAgF0NXUnXNhLSL2uXT7Q9yeG0OxxoB4pQwiZRWXDoqlpAVQkrNKinwYmOxFZZQ+9zI8KxaIEjEElqbRqDHg2ePPQq9+POWPM7Edzen33/sBnBUSaJt6oKyqvsdOmMl1DuLYRDyG+fHr2LTO4pmWbvQ192QMDqjfAkA4iNkT7pmRBXIJEIg0hWLSVaoq1FU37NqPlMdhemESgz0nmUteaI+nBYjPf2pxCiXFxWita2OWv1w3el5G50bw3vX3sFkhRqWxHqHtbYjkai5bq5QmiXJyVXaZy/4nQUEEXtcyVh2LEJNOQMCHtaUZHG8fwKm+02lnv+eyXwd9re++9V24S8sBtR76+g7miSjUyhWaw8CaG66FCYTmhvH5ky+hpbY5bXGmT9paAAgH/fQJ99/VArkECESIQjvJdNkTic2NvAek3HisS8g92HWyCvwA0mogem2VQoMmc/YvznSGSeyANyZu4vrYdVSoqqCqbcX65ibixcWQq/WQqaqY+IiodPcqmJROf+4/hhYS0gMgxr8Nvxf+VQeiQT80UjliXiccc6NoMtTiqaPPcI4BSSo/yW1oegjXZkcRkMghNdZBW93wAMfAQduG5pOqSmyzI5BvJRBanMCvv/o1ZpXcSxMAwl6sJ5ybFwvkCiDQh4hEXige/Wwa7Imp3IOphQkcF7wHeZnrfNyElB8dHjtn3huriGlu/3kMSK6YnrsPbr6H9WiUd6ISjQG+cBAevxfFpeUc5059sdIfqzAmvQ38RUINJKjwCQGelM3oeaWW/L7NbH4MBMgzEIsgvLGOUIC+fIiGApCKKplRbyu8AbdlEuF1DwY7BzHYdTyjTPd8zFkh3IOom7//1ncRKC1HiFgSSdTJ3MxiW/kGeCl7EP/CxpoHdssktBUiOMeu4rWTL6KNJJ3vijXtxXYCQNiL9YRz82KBXAGEJHviPL9j02FPZO+BdY4FZI52HsvLWIWb5McCSeVHD1rrWqBV6fLu8k+Frq6NXsXI9DASRUVQ681Q6EwQyzWIFxUhEA5iPehHdHOTGfpSEsMk3lRSVsYLQEoqmhT8KL8mqSK4zWJJZSWlkIolHBYQl5YiHt5AYNUBr32JQUKtsRanek6jubaFJZKFlp4FKBfph+/+I9a3gcrqBnjCQUi1RlbaJPbF/cw3obml/AISZHItzWArGoamrBzLY1fw0uBz6G7qRllZUsUxF00ACLmwonCNfbVArgCCy+vE+Nwohwp2Y09MkSnRQnKi91TOSHb21VDCxdO2ACkFjswMs4ogJS0WCq8F7VKpDJd4Oqg807Jigc+/yjz7dx0EXB1RUSFmul5SZiR1SKIBpvwB8hakPAxSiQwmXQ3qqxtQX10PI4GPCgEIpP2QpHHgjfHreP/G+1CTMJi2GvY1D4oqRFBoTVCo9azUmBRnSoZoMsk9IbloqiChctpoJIg14p5wWSEXSaCTKWAbuwaazc+cex0GrWFfaL8FgJDGQyAccrAWyAVASO3YxmZG8GIa5Y0p7wEtIEcOsfeANezpH2vZf/x1z619n3s7k5fbwT4x6d09qfw4zRLATeaWnCk/pnd34ajDZAH67AxN38F7V99BvLQU1U09EKv18IX88Kx7EU8kIKqUoaJSyl6G0nLRPQ8QhYPI8xOPxRjkxSJBRIIBBn2V4kpUydWQVYiwujQD68wdNFY34PmTL0Kv0WfEaZCNvQWAkI3VhHPyaoFcAARmT1xZhGd9FSd7Tz2y/ykwQbkHJ3tPo1Isyet4c3Wz5IK/xS8nioFT2RYtiqv+VZbQJVcphU9od0quatrplJQmdzupnQv9DdvgLGgSsyFbKCUKqOmlJZGhrLScE9hK7ouV56r/+bgOJa1S2MmgNaLe1JAzEqV89F24R+FagD57iysWDM8OY2JuDIFgADKlBjKVDpVyNSokMmbeLC4u5XwRChtsRkJMRBVcX+WkUfq5WmdiD1dvaz9LXueK5CtdywkAIV1LCccdmAVyARBW11YxuTCO1vp2LnF8VHtcvQf0UiIXc3QzAveaGwu2efgCPlZ8U6o1EEkl8Ec2sORcwopnBesbawiGguzCLCsvh0gkhkhcyTHM2GYM4XAQkUiY5WlLS8q4xFOtUMNUZYK5qgaVZWJsrK/B7/MitrkJrUKDBlMTtEoN744INDwOjZUffS7uO+3KDpun5HGYA6GPhWkBASAU5rwIvbrPAnsFCCkVxpGZIbx05tW0vAeT8xM41XeGXXyF3GhslJxGQGDRbsFqwAuxXIbgVhR3ZofgWHVAbzShua0bjc3t0OoMOSlZI0Dgcq5gdnIUc7OTWPN6YNaZ0V3fhdL4NmKhMJPp0O8UMiV7IAp54SVlzzW/D2317dAotYU85ULfHmMLMIjf3rqXSJqsOwFXqFDydCoRtVA+KwJAeIwftiel63sFCJmwJ4bCIcwtz4KS2I50HC1IE6c8BevBdfYSrEUCKJNJMLUygxWfAy0dPejuOwalSpPX/pP3gkDDrasX4VheRL2+DvVaM7ZCm1CK5WiqaWIvRCF6FojnYmxulMMp7Q0dLO4kNMEC2ViAKw0opyAeRzga5qRTCm2uBdZAlVTbRUh62O7yX9Azt7Wd4DADe+uKSzhpVi1TsTdOJVczC2IZV60kS17z1QSAkC9LC/fJ2gJ7BQjrAUpGm9qVPTFVuTC5MIFT/WdQuQ9Me1kb4W59e2QzwlwOFsciIkVxOIKrCBUncOLMeRhravdy+Zyfy8BscQ5D1y9DFC+GSa6HaLsEzTUtqK6qLjivgs/vxbRlmnMrqPQvV8qP2Rg2BQIpeS1BO84tSiWlnSdVMCbzSsi+sUSMw0oEumgBKSv9BHdCURGKKb+kuPixzRPJxn75PocrDTajrPMyZ5tHdCuBSoUWpZUy2L0u/rwuu2zw+X2gMlViY6yoqERJaSmXpMbim4iEg1y+WFJUDK1ahzqdGQ3V9VCKJYj4VxFa96JKqUGjqZFzgOj53G/AIACEfD9Jwv0ytsBeAQKR4lBJ2zOD5zmpbqcWCgeZNZG8BwMF5D2gxYISDBdsc5i0TiOATawE3TA3teLoibMQF3gYhOy9vubFjasfwrGwgFqFEVUiJZpNTVyCl+/Eq0c9gKz86LCirroOZkPtvu/WyN1MC3wkGmHyJqfXyTvNjdAGJ42KJQqIZUpUSORcMldSWsa/jyco1ySKyGaYwQKBA3GFCBVlFeyq3orHOfmUE9+YIMmHaHgDZXd3p7QrNelMvNDQuTQH+dyZZvwSKMAT6HNJ8zZpmcSS04pKrRHODT+uT95EvLgU5uZe1Lf2QSpXZV2CSADRbV/E4tQdLM2PolZnwrHWfhSFAkxw1dvSA6O2+p53IddmEgBCri0qXC/nFtgLQEixJ05bpvDcyRd27FsqT2F8bgynB84WjPeAdiasPrkwhmW/A56tIE6cfRbNbV05t3M+Lri5GcX48C1M3L4BbakMLboGtNW2okqt451uIbQZyxQ86x4ufaSE1lwunMxqGI/B7XNh3jaP1XUvRFIFRAoN7GurmLXNw3Z3p0kJo1pDHXS0Y6wyoVKqYGpmpme+627+pL2IPTHFi0C184G1VV5gXCvz8LpXUFJUxLam3JDWmkZISkoQWHUCiTiqq4zMl6CQKvdtwSmE+d1rH2gOCciNzI6gVKHB8NIsJpfn0DpwDo3tR7k6YT8bUSoPX30LzsUpvHDsGYhjUagqxOht6b3H15KrZ1YACPs5k8K1c2KBvQAEqkhYWJ7jXVpPa98jvAekuTDLO/VC4D0gwELxytnlGQwtjcOztYHOI4Po6i3MvIhMJzoajeDOjY+wNDmBWpkerbpGtNW1FwQXAe3aSA6cnp2Oxs49KT+mQgVUVjprnYFr3cuse+uxTdZpsLps0Bjq0NJzEnpT474vLvfPE2kwLM2OYHbsGmLhDXTUd6C3uQtbgTUkwhtoqm6E2WBmcqX9dmVn+vwcxPHk7WFv5Pw4AiVluDxxE+auE2hoP5LXebt/7BSSuPbeDyAvKsJATRMkWwkc7TjKQCEXIEEACAfxpAn3zMgCewEIbq+Lk8+Odg7uyC+f4j2geuUzA08dOO0s9cez5sGIZRSWgANigxYnzz2Xk+qDjAyfh4ODGwHcuX4ZrulZ9Nd0obeph5OyDrqRi3/aMsk76SQVcWbVLARIV9c9GJsbw1ooiBKpAhP2RSz73GjsPoH61gGUV4gOepifun8wsIbhq29izb6IvsZO6ERixIN+tNQ0cZIp2SEXC0/BDXyXDm2EArgxeQvOzRiuLYyj89QrLOVdSCJWo9ffRdBuQb++Bq0GM5rNTSgvTeYpZNsEgJCt5YTz8maBbAFCuuWNlHtAlQvxWBwDnQe7Q+c+e+y4PH4FIWkx2o4cg9FkzputD+pG4yO3MH3zJprlJgw09cFYVX1QXbl3X6LmnluahValRUNNU1qSuZS9vuJewdTiNFzhIEZtC1iLxdB+5CnUNnUf2E4zG2MSWBi7+T6W50bQY26GSSJHfZURreYWBtt7WXiy6c9BnEOfRwoFTTuXcXFuFPVHz0Nf05wTIaT9Gs+Vd78PY2kZzOUVeGbg3J68CQJA2K9ZEq6bMwtkCxAoXECc9iTxe7Lv9EP7k6pcII2Gc0efOVAXN/WFPB7vD1/AeuU2nnr5M49FAmKuJtpmtWDo8ocwFMnwdO9TUMlVubp01teZXZqBY9WOxpomTgbbaVGkuSPOiRnST/D7MGFfgtzUiNbe0xAfgpJJr9vGcW9jpRTmSimaqqrZq5ArV3bWE7SPJ1JI4eb4DdxZWcKauBINPac5D+RxaH6fG8MXfoQBrQHP9JyERqHJKhlYAAiPw2w/4X3MFiB411cxOT+Olro2Tsx6WKM4PzHp0c7voCsXiO3xw5GL8JRGcPbl11EpefJq8W3WBYxevgxzuRrnes4WBB8Blb1SLTs/Rw9JWqRnaMIyiXHnMhaDAWgbu2Fu7s46c72QP+6b0QiGrrwB5dYWzGIxempbUUcqhmU7VwcV8nh26hsBvutj1/Dm2A1oe0/DWN/BVSSPW7v482+iuawUrw8+B61SmzFIEADC4zbjT2B/swEISVf9CoanhvDy2YezJ9IxxCkwNjuKp4+dP1DvAZWs3Zy6iRv2MZx66TVmP3xS28Tobcxdv4mTdQMYaBs4cFc2eaJGpoeQ2Iqjo5GUH2U8NfT8eP1ejC7N4PLcOMpNjWjsHOQqg8PeAuurmLj+DtSxKM609KKjrjXryp/7FSg/6aHhvxHDIDMNfhxLp9+n/r8foQ6qZvrB9fdgoJBCbQtXjTyu7dKb/4D20jJ8/swrLP+dib0EgPC4zvoT1O9sAAKRyCw7l7BkX8JsiKJIAAAgAElEQVRTx555uPcgtAFyIW9tb2Og48iBWpRCIR9OX4Wqs4lZEJ/0duujDxG3uvFi/3OQS+UHbo71wBqTbVWKJGgyN6OiXMTliLcXpzEfCUPZ0Amtse7A+5nvDkzeuYhitw0na1vQ09Celiw6VYmkKIWZfdPn5EVLLlFwngeRPhEZFNEQO1cdTHcuFcuSXA0oYm8fAXtym4vuq7BIgQgCbtSyrbwgz+PfvftDiNqOwNDYibKyx89z8Mnn4NJP/xbndEY8M/BURhshASDk+xMl3C9jC2QDEEi1cHpxinn1G0yNn7onew+c5D0YwdODz2b0ocl4ALucQPSq1yav46ZzEq9+5ddZLGmvLfmSTL0oP+YX2On3e7lfUjVye9cXcuo4utdu5Ehupx2WW3fQKNJhoO1gwVvKNrQoLdoWUK2rgVKuxHsjV7C4BRipQkaRX1rrvcxXrs9dnh/H+vQtvNDWj676dq78eFgjL9nwzG1UqXTQa4wYnx+FSqZiTgF6NkQVIs66V8pUdwmg4rCsLECvMfBxicQWUxKLRRJcGbmEOkM9TLoaUIWBTm2AzW1lLg2zvhaLjkUUFxWhzthwr0wznXFTP35y8aeYLy1HTdcJiCUHD07T6fdux4SDAVz6zn/B77z+66jVm3f9/KWuJwCE3Swr/P3ALZANQHB6HBieHsLTg+cfGh+lMrbZpWkeW3/7wS5A6xvruDp7A25RDOeefWVHe9PLy+f1YCOwjtr65kfOC+3MvKtuhENBmOs+BkjJ37sQCYdRU9vA1yBOgtmpMSxZZpmAiUSdiA6WGh1P992JaS/VJ7qXb9XNWgx0PpXwzU2Po0pvhMFYg0XLLJx2G9SaKjQ2tUFvrEHpLkDo+gfvQLQawasnXsnILbqfDyx5nDw+F1Z8biyjGJqOY1BpjWnfkkESu83JXU4ALuk6T8fty5wKiTjPCR1PjIqpnTh1IAnAkn+j36caUfgSzz+FPkrvyxVIuvYJ2O2dRXF65AoUXgde6jnBNNoPa/Sc/59//Z9wtv8cTvWexZ9++0/Q29IPtVzDVMMEFMh7QIqaFNYhbw3RX0srZSCvAwEBf8iPnqY+TFjG2ZvQ09LLfCGNpib84L3vMUB4/ezn8M8XfoiS4mJ85qkvQKdOX6GTWCz//GffRN3Zz0Bt2B/q8o9BenrznvbDtcuBI9ffQVMogFdPv5R2OEgACLmyvnCdfbNApgCBXnwrLhumLBN47uSLn+oXfUCX73oPzh9/DhUHnHxETIk3rKNQdjaivrF1RzvSuMZHbmLkznUmTIpGIizuUlEhgkKphn3FyomNKpUGbpcDHpcD/nUfOnuOMAggBr/y8goEA344Vqxo7+qHRCqDUq3Fmz/9PhMXnTr3PKrNdYjHYiivSLpWiauAFvk1n5cX/NLSUthtSwxS6P+TY0OYmRyF076MpcU59A4cZ2BCAIFUJOUKJSzz0wxYWtt70dzaicaWdhhNj34BX7/8PkqcAbx65MWCSoIbnRnGP117B5K2o2gbOJfRcx8JbWB+8hZkSg3HtYl1Lwkwkmp+pLnAwOE+0JDyvGwnEvCvr8KxPItKiZwZFu/PdyBa5XWvC5UyJWQKNQMRulo46EdsM8q7YZL1LmYX/jZWXcvYSiSgUOlQViG6CyqSoCUb6uWrP/1bvNbai6OtvQ8V5CIPws8v/5S1BFrMrXj3+ttcGUL6IiRqRPLjFWXl0Kp0cHodDBBIurxKqWNAQACBvA/UNwIbtYZaBhJaZRXa6ztxZ/oWCx11NfViaOY2hyt6m/tY+OhRbdlpZcpp4nj4aOgSrgf8qO45BYlMee80n2cFk0OXUVRcjPbe05Df7UdGk3/34LVVB39ulWr9A4Btp2tRuenQlV9AVClDW99pVEoU9wAl0WnTfFLbDWRubkZw8W/+M/7Dr/5bqNOsEBIAQjYzLJyTVwtkChCIAY80FegF+TD2RHrRzCxO8wfqoL0HtOiPzA7j6tIQznz+C5DJdy6jSgGEd974ES/sJLns96+hSmfgl6ZjZZl35hSjJRCg0eqwbLVAW6XH5uYmex7oZybx8Th5N08LdkfPAMaGb2IzGkWFSIRLH7zFAKKyUsJggTwDnT1H+frmugaEghuYm5nAZ3/pa2hq7cTM5BicjmWselxwOWyo0lcjGgnDZG5gcHDt0nsMfOg+hmozpsaHefc7ePKpRz5Hw7euImyx43zbaWhVVXl95h51M9JqeHd+HDFDParrdgZ0D7sG0R2/+YO/4MVaLJZAJJGjpesEIuENBmUVIjEIRMQ2I5Aq1AwgNtZXgaJizqKnBX34+ttM0iNXaFAhkqDKSHNkRyQUhN06y9dobD/CYQ+iWSavAi0uEpkK/jU3fy7ofta5Mb6+QlWFsgoxRJVS0OKl0dXAYG5GeXlmRE43PvwxjkrlONs+AKlYCpKXol0+f2f0k7II/Sa5oKUShckLQGCAFjudWodJyzgTTRm1JjQYG3F19DIDiaMdx3Fz8jqHIk72nMbV0Y8Y4J/oPs2LPJUm0j3vNbotecCKijjXKHXPVH+oJ9/44df580Gl0FdGrkB29Dmoa1uTQkp32/itD/DBz/6O7dg9+CzbiEADcVusOq0oLRMhEgqw2BLZfs3rxMa6F9W1rXA7ltjGlNgZj20yFTYZQKHW8TXqW/rgsi8iQPTe7cfgcS4h6PehprELbhJlC23g7R9+nRkbmzsHGVA6VxZgqmvD3MRN1DZ1IRza4Hmle8+N3+C5JB2IUtbm+NgeP/z67+OPfvV3oJWrdwUUNHQBIBTMa0foyE4WyBQgEM/92MwIjnYRe+KDuwd6gdgcVozOjuDZEy8cmPeAXlr0wqNQyJ2pW7BGVvHsr3wlbYBQ19gCuVzJu3JTTR2uXnoPGp2Bd/q3rl9CU0snausb8e6bP0ZHdz8kEhl7E3T6anz04dv8Iu3oHsCJ0+d5F3rz6gW4XXZIZQrMzYzDvrwEmVzJO30CDnqDCV6vh1+9gcA6v4xOPfUChy8WZifhctqxOD8Ny8IMzjz9IsrKylmgifo4NTGMhqY29mToDCb2gpBbmxQoH9UIIIQW7Djffop3joXSxhfGcc3tQFltG1QZEjoRQLh58Sf3XvylpeVo7z/Di4zPY4e5sZt3817XMqikkBZ/j2MJlVIlRGIJjLUtWJobhb66AZaZIQaG9S39IBe/WCrnEAQtTHQeUTfPjF1jgKDUGiGRKrC26kIsFkE0HOTFilQFyfNAAIEWRNvCJPpPvYTuY89mXI0xNXwZMvcyzrb0ch4BhQUor4A8V7RIka4ILeb0f/qZchXiiThE5SJsxjdZSI08AlQySSEHOoaSEOl3ZSWlrFxJYlT0/xTWSN4jeQyFFOh6lEAai20yUOZrxza5H/R5o78REKF7Uz+2Elv4j3/+P+OnF/4ZL599jQHT2V/799CYHwzhEUAYuvoW7/hpYaddPS3cpvp2zIxeRXPXCVim76CkpBjVde0MEDajYZhq27AwfQfNXYNYWZxm0EfAjT4/bucSe3fMDV0g2xFq6D3+PCZuf4iJOx/ihS/+NqwL46hp6GDAcPTc67j05nfYs/H+T/4GZ176CkauvYNjT30GIaLHTsTRO/g83vjen/Mz9fRrvwFx5YOEVv/4//0R/uCLvwWjSicABHqh0Is4FArBaDQWFC1mobzsHod+ZAIQuLzRvYLh6Tv8gf9kI+8BUegWF5eiv33gQIbP7t01Dydg0ZuOePqDZQnI2+vR0Ny+Y5/oRb9iW8LU2BDUWh1EokqEQhtQKFS4ceUCwpEQevqPw7/mg0KlhkqtxfTEMO/aaTcYiYQgkykwPzvJnwv6fUNTK7/0FuamsGK1QCqV846PvA1qrZ53rPSiJsVIh32ZwxlypYo9BAQgyIMwNz3G3gWTuR4arZ7DDvOzE1ixLqJcJOJ8Bx3lIlSbGWxQGIIAR13Do/MoyPNQ4trA60df2jHx7SAmcNG+iA+IO8NQD31NU0ZdIIBAL3/yENgWpzhDXl1VzTtCepmTu19rMEMklmL05vswN3QiHosyeFBoDKhr7uEdYlV1Pdx2CwMHv8/FQKC+uZdDE6SxoNZWIxT0w2mbh1pngkpbDefyLO9eafebiMVYXliu0ibnmOSJJXL+Xc/x5/i+mbbbl3+G+ngMJ5q6GAjQdSvFkrsL+jZ7rsQVldiMRdnFTiCSQYBIDBLxSgKEKC/mFI6gYySVUv6ZchMIIJAuBP2fwy4kgL21xZUT9DsCIQQQSKadwEAiHuewwT2AEI0kgUI0wonA9Hvq45/+/Z+wgmadqQF2jwOnvvY/QFPT/MACmvIgVIilOHH+Cxi/fYF3/jRv7hULXvrSv8a19/8puaufvMlMi2pdDQMx8ta0951h3QsS3woH13m8NssEOgeewgrltTgW0Tv4HAtqLS+MY3F2GL3HX0BRcQkfMzl0ETUNnXBYk3O4MHWbwSKBvIa2AUSCAbYd3XdlaRq1jV0YfPrzDCYe8CD89R/hf//8b8GoFgACP98CQMj0Y154x2cCEFLsieRFONV35oHBsLKj08ou/edPUlw7v+VL9CzSzoYY90hWmGL53fxSB67N3oKzPIJzz+2cpLjTzDBwWF7Cmm/1QMScCDhQzgHlJDyKm57GT8eSK7ymtpHj4TuPaRs3PnwP4tUoXj3xckE9lKFIED+8+g5W5Ro09ZxKayeWGgAp8TmW51gCmHaZlFRH3+mrueMYvB477zwbWvvh8zigVOt4IaQdJi0Q9GWdH4NUrmYgIJWp4FpZgMM2x+7sKOchONHUMYhVlxWuFQsog51CIRQ/p50ohQ+oHxRuMNW1c34C5SPQz3SvKkMtlBpDRjan3eu1n38Tn2nvx7GWvrSz5DO6yT4d/O7Vt7l01aSvwbd+9k0k2o5AU9cG8u6kmn1phm1LizJ5Wijhj/5OeSR+nwetPSfx/k/+GuambnbvB/1eFJeUsreAPEHkaSCAQCEIGeU7SORscwr70PWI+bC6tgXrPjfWVp2c5EvgL5GIwWhuYTBBYEqjM/GcEljcDAcRDm+wN8nrsiEaDUGuquLNgG/Vga4jT/P17wcIP/r67+MPv/q7HGJIpwkhhnSsJBxzoBbIBCB4172YmB9D60PYEwNBP3sP6IPd19af1zHR4ki7FKt98d4OJsXcyC/XyRu4sjKM17/8G5wH8KQ3r8eFhZu3UVeqxpGOwuOF+OD2h7jl9UDXdZzd97sliB3UfNIueuLOBU6qIwBwf1w9V32iZ5vc6xUr81zFYNY/vtohtydv4y3rLGqPPAO5Upu2icjbQZwQtJu/P7kx7Qvk4UAClBM//gZ+9wv/Esr7EjAfdWsBIORhYoRb7M0C6QIE3qF67Biauv2p8AJ5DyhbeWRmCC+cejmvWfFE2kTCPwu2eXYBNpubmZ/h/ra4YsGFqY+g7mphoqRCXXD2NpPpnc2Jm9c/wpbNh2d7ntpRhTO9q+3PUZRF/+7wR7BsbaO64xikCs0TOWf0mVuxTMI1egWvdR9Hd0N7WqJW+zMre79qJBrGH3/nz1Fz9nXozC2PlSdkt9GTLPQZhQrn+k5zbkY6TQAI6VhJOOZALZAuQKD447LDiiW7BU8dezABjrwHxKlPsdHe1vx4D+jlSXwLK65l+Pw+jntS1QTFUz/ZKGFqZH4UNxzjGHj6/BNLtUw2W1qYxeLtIfRomtCXp7nK5gEn1c2rs6Owbm9D09jNbt8nCdgRkFuaHcb6zBBO17XiaEsvpIdAmOrNy2/gTiiI+iPPQCJ/0EWfzXNSCOdQEuzk29/Fv/v8fw3VJ/ISBA+CkKRYCM9o1n1IFyD4N/yYYfZEDervY0+kF5nVsQSqX3/xzCt5SXije3rW3FxuWVJcCoPWAPMuxCuUrHhz9jZWttbRe/ocJxo+SY0TTG1LGLl0EY1iPZ7qfyovc7UXG7u8LlyfG8XUuhdiUxP05hbO/j/MQIHmiUr2bDPDiK3M43RjJ4609h0KcEDPAuUxfePn30LUWI/ajmOoEEv28ogc+LmUrDr09nfxYlMXTnQey8h7KngQDnz6hA7sZoF0AQLxtg9P3WHq5PvV5Qg4TC6MczlUb2vfbrfb099T5YsOt53Fopispa0/bZcejeGjyasIyUrReewEVBrtoV5sUsamRMvlpQUMX74Ic7kGz/Q9/dgsOKFwEJeHP8LsuheB8gpI9LWorm27Sz50X03+np6sgz+Z5ii04Ydl8hZE0TCK11w40z6AzsaujBadgx/J7j2wOq34xfBVxPRmGJq6ufzxcQR9lKA6de0tmKIhfOnZL0AizkwhVgAIuz8rwhEHbIF0AALt2O1uGybmx/H8qZfu9TjlPaDcg5fOvLqvO9Jk+eIqFpZnmaqYSrzaGzoyth7lSlyduoGYvByqWhPaOh+vrPBMB0wsj/PT45i/MwRThQYn2geh12aWRZ/pPffjeFpULg1dhq+oGKEyEcpUVaiub2eugfupj/fj3vt1zRR9MxEoLc+OQllSgpjLiu7qBhzrPLorS+F+9Ssf1521zuLy/AQ85SLUdg5y5cHjAhJo3vxeFyzDl6ALB/Dl576UFeAWAEI+njThHnuyQDoAgdgTF5bnuC76fvbElPeAaqO7W3r31I+dTk6VL1JMenFlgeu5u1t69vTypIqHG5PXMe6ag6E9yUIoVxyOeGjKjjRXbscKZsdH4LVY0a5twJn+s2l7W/ZlMnNwUaLxvjR0CRslpdgUy+DbjEBlqIWuupHd1elqL+SgK1ldgjUfthLJMML8OLbCG6gibgHHIrrMTTjSTsAgKXl92NuiYwkfjF6DbXsb5u6TUGqMzAJayI3mbn78BsoCa5Csu/HF81/IChzQGAWAUMgzLfSNLZAOQPD43JxjcD974v25By+dfXVfsqtT5YsEDCjRkEIKqfLFvU4fkb8QZ8PthWFITXqItSp09R1jsqLHuXHyZsDPXgP3/CIqwgl0mTsOjLhqv2xJpFzXRq9hankOalMjtiQKWNw2lEtVMDV0sGZCUvNg72JJexkDewm2tpiJz+degXV2BLKKCpiUGqxZZ1EUCeJ0zyk017YculBCOnajefzppZ/DWyFGRCRFTWsfcxQUmjeB3nfrqw5YJ29CEQmi39SAI20De2KLFQBCOk+IcMyBWmA3gLBTeSNJPlPIgTKru5p7cj4GAgRcvrg8zy9OeoGq90H2lyogbkxch8Vng6zGALmuCo2tnRCLKS76sWpfzgeY4wvSC4wYGuemJxB0eVAUiMAgUuNk72mIReIc362wLkeJbxOWSVwbvYpyhQbGxm54wgHML88DZeXQ17Qw4yFRHqfUGFMLUC4WopTgE1F3kiBUMp9gHS7bPNz2BSjEUjTXNKFkM4LF8evQSuU403cG1VUmgYH27qN0Y+w6pl02eIpLEBdLYG7pR6VU8YCw1kE8deQxIGBnmbiBJtJ8WJzCLz3zOU7W3uv7QQAIBzGjwj0zssBuACHFnkheBBJcoXbPezA7gpfOvJJT70GqfHHZuQQKYRCvO5Uv0m5wPxspVF4du4q4qATlajkCiTCa27tZoCkb9b397Gvq2mQrEiEiimjr/AxE26WI+wKQbpfjVO9pqNJUlctHX/N5D3puxubHcGfqNrZKy1Db0geRQgPvhh9OrwvEBBqORlh4SULMe1IFysvFKC2vYAZKomguLRexgBMJHJGcMzEiks4CfSd65vhmlKmTiac/GPCxToNcqoBepYNeY4CktBRu6wxWLBOoUmhwrPMYyyYTHbHQdrbALy6/AVcoiIRSC6vPDWNTN7SGWp6LlHz3ftuP3m+xaJgJqsI+F5q1BrhnhvDKyRdRZ6y7J9e+134IAGGvFhTO33cL7AYQiD1xfG4UbQ0dqLqr+pfyHpBYU2dTV876SCJHlIhIjIzEqWDQGFFjyC9zHJH03Jq4AYvHCm2tGWvxIEQy2b08hZwNdg8Xoh2q1+NhLYjYRgiy4goEHG7UV5lxtGPw0HsMsjGd2+dmb9SiYxHLjiVsBAOcsyBX65mIifQZyMNAYk5E47tdXIxt8iBRoQQpFW5toWh7C4nYJkjaNxYJM+8/0fjS13YiDq1ah1pDHepN9agz1rOOgdCys8CN8eu4NnYd+pY+OEJB2FbtMNZ3MN1yWTnJZ+e+giWw7oVl6ibW3Hb0NXYiSqJe6x68dvZVfhflepMiAITsng3hrDxaYDeAQOyJtydu4ZVzSXGmj1kTh/HymVdz5iIlARgqX1xxr7ByXF/7wIEm1JFr0bJiwcWhiyiXVqKhsxs2nx2+4Dqa27tYaZGYG/PVwuEgFmansGyZh05ZBW2lCotTEyiKxnG67yxqd+GByFc/H/f78O4xvokQAYBIiAWKKMRFibgUqiktKduXxelxt9t+9Z+kqj+48R57hGrbj0JurMesbR4WmwUypQZaYz17GEg3I90ER6JupsqRVccSnLY5FG1vo62+HdVKLZbGr8HnXMYLJ17gzc/9Jd25HqMAEHJtUeF6ObfAowACvRxtzmVYbPPMf0CNvAfEmiirlKEjR94D37oX00tTrENPfAodjZmr3eXcMPddkBYNEoH6aPgS3P5VdPQdQaVahSmiwfU6USEWw2iq5S9NlZ4V9LJpFDIgYSaXc4UloZ32ZVbNIxKoWp0ZPrsDc5NjMOvMONF9Ejp14cg0ZzNe4RzBAplaYMm+iCvDHzH3ColeVTd0QmdqRLy4hPVY1gI+BEIbiFAoKBFnBxCFKUmpUi6Rc9iNtBKiAR+cSzMs7128vY2BjiM43n0CcqmcRb7y0QSAkA8rC/fYkwUeBRBYgGlxCmq5Gg01TXe9B8SaSLkHe/ceUH4DeSiohJLUH/davrgnQ2RwMvWb3NVXRz7CsssKUaUE9Y2tMNXWo0QswtrGGjbC9JKK3PsiPoKkzG4cZaWlXC1RUS7imDRxt9MXvcAUlXKE1/2wWuZgXZxDfDOGFqLa7RhEnak+by+vDMwhHCpY4EAtwAnNq05+lxDD6lpgHVSaTRLWRShiL4BULIFKrkaVugrVVTVQypUPpWXP50AEgJBPawv3ysoCjwIItDsemryNp4+dR3l5xT3vAaHs9iw07e/v4HpgDXPErZBIcJz3WNfxrPpfSCcRACBCKcvKAtY3/AhFQ/yiIld16isWj6OcdjRicllXsuuavyoquUqj3tTASW5U0im0/bEAeYSoemXRbmFwSvkJ5HamuDbFt0lSmHIS6HtJSRliBPQI8IUCnJgYj21yx4isq1pnQmNNE2r0Zp5HoQkWSNcCAkBI11LCcfcskNjahs2/jQ/m4/BHt+/9XlJehJO1JWivyi2RyE4Agd3qHjvGZkfwwumX7+Ue0P9Jc+FhokjpTCO5/dxeF2aXZjgRkbTiP6m+mM51hGMEC6RjAfL2ULnj8MwQIvEY1FUmqPU1iJeUYsG+yKW6dpeNNQKKiotY66FSooBYKufvpWXl2IyEEQquc+kifRFAoHCQVCJjz1pHQweMSi0iG2sc1yaWvWqtkWXPq1S6nOXppDNe4ZjHxwICQHh85qogeuqPbOMXMzFcXkzgn8dj8IW5soebvAJ4obkU55tL8WprGZTi3GTx7gQQwpEwSyiT+45edKncA4VMyQk92bRgeAMUQwwEA+wqJ+Kl/chGzqZvwjmHwwK00C/aFzE8fQeRRAKG+nasRiO4MX4DofgmqqobYDS3QmusgyhHVQZEhETMiE7bPBzWafhcNi6H62/qQWzdg1W7BdVaA3pb+lCl1gneocPxqO15FAJA2LMJn5wLEDj43mgMf3Y5isW1LeJcSaKDT+CAKkkR/ttT5fj1AQIJe0+m2QkgeNY8GJ0ewpHOQUgrJSCKWyp3fPH0KxmX+5A3wru+ykl9FHPXqfW7qi8+OTMvjDQXFqDql5sTNxEpKkZMLMGoZQrBeBytPSdhauhE+QHwD1DZ3MzoR0ypXKurQaPWgOiqHfW6GvS39TNvgtCeXAsIAOHJnfuMRh6Jb+PDhTj+x59HsLT2cVhhp4vopUX4X85X4GsD5Rnd52EH7wQQkuWNN/HKudfveQ8oyYcS5jJpkWgEK24bnB47E4z07ZGeNJN7C8cebgtsxqIYnRvDvMOKaLkI024biqQKtPWehaLAKjwIJK8sTmLy9ocwKdTQlZVBVlyCo+0DqK6qzjpkd7hn+HCPTgAIh3t+czY6u38L/+HNCH40Fv+Ux+BhNykpBgZrSvD1L4hRo9ibF+FhAIHctFbHElyrDhzvPcWljhNzY5x7kElIwOf3ckkkeQ3EFZVZqS/mzMjChQ6NBej5vD11G45gAPZoBNb1VZiae1HT0Mk5A4XewqEAxm9dQDzgQ1uVEZWbUQw0d8OsN2fsnSv0sQr929kCAkAQno5dLRDf2sYtWwK/8q0Q/JGPcw52O9EoK8L/9mwFvtK3txfiwwACLezjc2NorWvj6oXJ+XFolVVoqm3erVv892T54gonh1H5Hmk1PCkKdWkZSDgoawtMLIxj1mnD7PoqNqUK1Lcfg0ypzfp6B33iyuIUVmaHUVNWjlqZEn1NXfcYSw+6b8L999cCAkDYX/seiquHNrfxzxMx/JsfETpIt21DXlGEr/aX4Q9fyo6UJ3WnhwEEp8fBdMPkMaDcg8n5Mc49SMd7QOWLM0vTfCxleh+G8sV0Z0U4bv8sQGWJY4tTGHWvIFAuhrGphwWYDktbmLyFTY8d6q0YjtS2oqVG0G04LHO70zjyBRDoPUwt9U5O/fz/s/eewXFlZ5bggUnvgcwEMhMJ7w1hSYK2iiyKJVuSotW901pNa3sietuoe2a3589M7HbE9s5GzEb/2F6jiW0TMzvT3ZJGpmVaKpVKZVhV9CRIwnuXDukt0htg47tgslgskEQCCZf5bikFMPHeffd+92Xe8z5zTr7sW+Lz+bYNjNOFo9EodDodV8qzS2uvJzbx3dEk/u3biRx62ISYV5GX/wUAACAASURBVIKvdPLw7S/nFyBQGeKay8qIgPo6Bpn3gDKvqdb7RS1bvrhgmmNsiPulvpiDkbhDC8QCy9YlTDssWAgHIattg76urUBm9slpkCT07KOPIAr50FGhRX9zDyoUFQU5V25SQL4AQhYAZDIZODwBePxBBEIRJJIpZuZNbDLCqGd/5/PKoZBLUKGQwaCtRHn5xyX0O3kYzK4hBxD28W6OJDfx0+kU/uSfcvEgADIB8Nu9PPzvn80vQGDsiatzoHJGYiCbXZ7B1XOffaEFItEwIwciUiAqXxzoHNqRt2Efzcp1XSAWoHLFEcsyUho9KmvbIJYpC2Rmz5/G2uocotZFVKZiePXEGRi0NQU/52KcYD4AgtPjx8T8KtLpDHvZXF7Qe77gOuKJLYDwvCbg86BSSKFWyVGn1zKGVwIG7U1GGKs1ID2snQAFDiDs491LOQj3LRn81veiiJATYYf0BlTJ8G9eEeCbg/nNQXD5XBidfYj+9gHGdFhVUYWGmsZtLZAtX6RERGKRq6qsgqHqYNUX93FpuK4P2QILpnm8PXEbJTWtqO0YRNkBimMd8tQRCfkx8dE/oU0sxutDl6B+rKR62OPirp8/C+wFIERicdwdnYVpzYWHU4tIpTN5GVhpSQm6W+vRVKvDcF875FLxS0ECBxDyYvrnd2ILbuBP34zhnYUt2uEXtk2Aqhj69KX466+K0FixN2bFp3MQXleQi8qOsblRpmQ2tzL7XO8BlS/aXFY4vU6Ul5Whr62fJTRyjbNAPixgd6/hnfHbCCk1qOkYAl+wN09ZPsZ00H343WtYfXANw7panO4YgFQkPeghcNfbRwvsBSBcH5nCj351/UkYId/DJKDw+VdP4vOvnEJp6Ys3JQ4g5Nv6z/QXS23i3cU0/s2v4rCvv4QHYRNQS0rwp+f5+IPhvW/ITwOEV0VRrNiW4A14mAJatVrPtAGebQFKGFuahEQkZRK4u2VW3GezHmj38UQMNpeN2Y9AUywRA72XTG7x9vMFAojFUtAHLxqLIB6PMTIsHo8ULIXMA0NPiY2GJhiqaoqa1580LX51/30sptOoPXEWEnnxxuFdtmV4J+/giz2n0WbcWRXRgd743MV2bYG9AIS/+a9vYXR2CRsbL+fN2e0AjToN/u3v/9ZLS285gLBbC+dwXiC2if/8IIm/vZ8E8SKwRkGgZ5pKVIL/boCHPxzmQy3ZGwcCdf00QDhV4mbhBRILIma6q2c/mXtA5Yv0ZEcUzCLBVvmiVCzLYZbH/1BSYyTPyYOZETi9dihUahiM9ajQViGS2qKntnvsiMYjDCQkkwlWzUES0BKJjLnrotEwYrEoe5+8LiRFKxFJoK2oRqOhEXKhFH63CzbLKgI+DyoVlSzkU6dvYMCt0Buphb6/PA1hUw9qGjoKfbovnd/E3XfQxRfgQnsfFBz74kvtdVwO2AtAuDM6i19cuwuPP7Qv05VKRHj9/CBeO9PHeRD2xcK76DQQ28CPJtO4uZpmHoXIUzkmYh5w2liGK83l+Fo3Dxrp3sHBswBhYMOOa3ffY7LCume8B1S+SLkGPB6PPflSImIxNAIEFHZ5OPsA7pAHjS0dEKmUGFsYxZrHBlWFBsb6ZhjrG6HWVKF8jxs4qQr6vR6YV5dgXl2E3+uGRqlBT/MJlMRTWJqdgpgnxEDHEGp1dSyRtJDaxuYGfvj+T2HmCdB66grzsBR7I8pm6/138IWOQbTXthS7OQpm/nsBCB/em4DN4YFAwMOKxYlVmwPpzOMHyz1YqKGmCs11esTiSWgrFbhydoADCHuwZ95PTWU2seLbwFvzaaz6NxhQeKWxHE0VpThfX4aTNfmVAc56ENbmE+iILuHB9Ah7YiUFR2pUvkha61S+SPK2pL5IssSF3OjJnqSu703eRXQjAU1tLVZdZjiDLnR0D6Cjp5/JNR9kI4/D4twkpkZHIOGL0Kxrwrrbg41IAie7T6HBsH0i6UGOMR/XisQi+OHdd+BXaNB24mxOXVKZ19z4TViWp9FEHpeWXvB2kBcTi4Qwfu89eBwmtPWeQ11zD5N93m1z202suExRUZ03DYhbv/oOvtjcjZPNPVxJ+W4X5oidtxeA8O/+w3dZeSKFAWxODytjrNKoWAiTNneqYojGEwiEwkyJN5FMs59CIZ+luakUMoiFAtaHSCRg79mcXna+oboSay4fzGsu/K//w++grPTFD6NciOGQbqw5dwZ/+mYc/9tVAfr1+QUG2SllAcL8mBeK1evY2MjgRGsf6vT1IPXFZcsSEqkEuwFJfbGQG8W+Z1emMW2ahURTAXc8gFQZMDh8AVXVR4eUhwCMz+PCo5FbCHt80Mu12FiPwlhpYKEI4qE4ro2IuSi8kKyug742N92PVCqJX//j/wuK2xubemBs7ETQ72IaIIl4FMQzUKmtQcjvRnVNM0pKS+GwLkIiVWL83ruIhgOopbBGYyfCQR9UGh3SqRSTdy4tLUU45IexqYtJPlMCobq6FrFoCD7XGqqNzfA6LSyZkq4llatQVsZDKOBhgMPrsiKRiKKpfQhyFZWQvSwb+ZMr+ODGmzgpV+B8Wz+kYi5Z8bje30+Pey8A4f/4Tz/GgmmNhSlFAj5a6g2o1WvYfRqLJeAJhBBPJLGxuYnNjU0IBRSaLGHvUSsrKwWVOVYq5RATQCgpgcXuxuLqGtajJCMM6DQq/M/f+joHEI7qzXaQAGH8nhXp0Z+wksbXTl+FN+hh+gsyiZzlJOgLiLXu2fUm/oaZlRmYfFaUKSQwB9bQ2nkCrR0njvzTGoUkVpfmMTc5CiVfCtkGH8pyMfrbB1lew3Fp5DlYta3g9vgt+MRy1Ay8CmVlVU7DJ4Bw+90fQKXRI+hzIh4LY3b0JtaDHkhkKlRqjZDIlUgnE9Do6uFaW0Vk3Y+OvvNYnnuEkN/FjiEAMDP6EZq7TkMklkKrb2T9hUM+dA1eYud4nGbIFJXsWPIY1Lf2YeL+e0gmomg7cY6Bm7G772B+4jZe/cI32TEEDC5+7hsMWOQKEBam7kIT9OC1ziH2eeTa8bfAXgDCjQdT+Mk7txCJPp8/h7wBSoWUeQeUcin7LvMFQgxUkGch84IERzr3jdeGcfX8IBdiOKq32kEBhDvLady4No3SqTfxhYtvsBvC7Xez8sXetoGCi3Nn1zuVTmHeNIcJ0zRKlGIkBaXoHToDpep4Zs0HAz7MTDxC1OlhQKFWpWcehfKy/fE+7eVzQ5Ucq2ursDktUCkqYdAaQBLjdyfuwCuSoWbgFajUupwuQQDh1jvfZ3wJ8eg6IusBBhLs5gUoVFq0952Hz22DSLKVWGuaH2NgwlDXgelHHyIRj6DvzGcxN34LdssCauo7sbmxgZ5TV2A3zyEei7DNnX5S/9jcZCGMRCKGjUyGeSactmUY6ttgqO/Egxs/x3rQi46+C6x8WSpTsf6rDI0oLc2tPHlu/Db00QAudQxBe8SUKnNaJO7gJxbYC0D46P4EfMEwQuEoRqeXWDghH43YFXs7GlGhkEIqFnNJivkw6n71cVAA4f3pIH764w/Rsr6A3lbSqZezMruWAqW0pfWiaoyRuQfwpsOASowTQ8NQawrjyczjdmJ2/CEidjd0wgp013ehXl+/X7fpjvqNxqKMbdPqtKBCXsFKOb1BL6wOMyoUarTVtzH2TofXiXcXxhHTGGCoz62CgXIQzEsTSMajbEykmihTqNnPdCqBCo2BPfFvbm6gnCdg4IHCDwKhBOl0ElpdPRQVVVieGdmqPBHLWIiiUmNAPLaOeDQCvlDMQggEJsi7QCGFVDKBaCQEqbwCsXAQpeU8KFQaFlagvwtFUpSWlTHAUqVvYBoSuQKEex/8FK9UGXCm5QQri+Xa8bfAXgDCX/ztD1Gr17K8guB6FFVqJXugo9wDjy8Ib2Ad/lD4hUZSyCSoVMqYd6FarWLhCGJhlIqpqkqA8blV/E9/9M+4EEOut1o6s4ll/wYe2vaeNfqia7vCG/jxVApf7uRBJ8tP1cKz14ungbF5Mx7+5L/gN1sMaG/ofFy+WLhxziXLIt4b+wBlGjnq2jpYOKEQ28rSHBbHx1ASjKFH34aT3acPbJoUtjHZVmAhD4FchZoqI3xBLywOC9MXIO4MAgTPNsoD+dHtt+GRVaCl99yBjfeoX+juL/8eX+7oR39Td87hiaM+t2Id314Awr//6++zJELKDaOqg8Za3WOAEII/GEY6k2HVZjKp+DGF8sdWJtZF8jyQp5jCDwQIqjUqxqlAfc6t2JBKpxkF85//q3/OAYRcb9D4Y2Kjv7n/Yq7rXPt99vhkZhPeyCZ08v0BB3Q9qoxxrU4i/PP/Bb995jwaa5pRrdaxEjoSaTqK7und2pVCCovWRdyYuwthjQZDZ19h3ASF3CLhdcyMP4R1cgp9+k6c7j4NwR4y9J9nKwIElENAHgKVTIWaaiP8QR8sTjNU8gq01rdDuUMdhV/few+zyST0PWcg5ur+4XGYEZt7gKvtA2g4ZE9QIX9WDnpuewEIP3v3Nt65+XDb0kbyJCjlEqjkUshlElDY4OlGmz8BBHp5/aHn0jSfH+zE1790iSNKyvXGYB4E3wYerO2/B+EnUym8sc8ehEdTC7j193+JL7c3MeZEAgjG6jqW5EbKjvQUmEwkUKOrRW11LStzzDXJKlcb5/t4chkv2Zbw7uSHqOpqw+DpC/m+xJHub3riIaZv3MRwfR/O9p7f81iZh2BtFRa7iXkCjNW1CKwHWMhAKVflBAieHQwRTf1q8i4SVXWobe3b81iPewdjH/wEp9XVGG7rK2qGzeO+js+Ofy8A4cbIFFNtnFwwsfLErKJjPmykrVSir6ORAYxXTp9gpY8valyZYz6svos+DioH4b2pAL77nV+iKTiHP/xv/ph9wVNsizLLLQ4TcwsnknHotTXQa/QoLy+HzWmDy+dg6JLABCWZUcXDUW1WlxXXZ29D1KDDQJGBg+yaTI2NwPJoAuebhtDZ1J3TUhErJIEB8hAQe6aOKgXWA7A5rex+oZAB/cxXuzN1Hzety1C1D6L6JVLj+brmUexnduwGpO41fL7vHGqqOFXHo7hGux3TXgDC3/zXX0JTqYQ/uA65VMLCAA6PHw63j7ErZjZ2/vDK5J6rKqHTVjCgEVqPQqWUwe7y4vf/2ec5D8JuF3i/zzsogHB3JY333x6F84O/xRuXv4pLp658YmpZdEqgIZ1JIRQOgerViUyIwKVBa4RGpUEynWQbBmk5SMRS9lRJGwlRCR9m8/jduD13D/EKIU5evPzSG/4wx7qf104lk5gYuYuU1Y1XOs9CW7FVRkiegMxGBo1PbcRZQGBxmBkgoDLXcGQda24bA4J0LAEC+mIqKcl/CIzA6bXRm5iLR6HrOg1lEZb2mRbGEZi5jy/0DKOzob2gwn37eZ8fl773AhCIKMnu9qOqUomOJiP4fB7c3iBiVM1QAqbCqJBKnpQoPvEwlGzlHdD3tj8UYYmM9Bnm83ioqlSwkMWiyQaz3Q2lTIJ/9z9+k8tBOKo31EEBhPumTYzdtSB05zsQ8AUMIHQ0dr7ULHTT0YvocVOpFEtCI50CAggioZjp2FOCWigSYuVs5IImQSICDiQjfRA0upSxProwhluWUVz6ytcglR1dL8dLDZ6HA0IBP6bv3oFuQ4ILvRcwtTiBf/jFf2E5J6+d/gwIEJAIF1UZhKPrWHOtQSaRbQECGZH/7A8g2G5qvpAPN2YeYi68jqr2AVZiWCxtaXoEwcUxXG7tRX9z96GD7GKx+0HOc68AYc1FoYWtEVPIl5IOCRRQcqFKIX3sWdgKD2QlnZ4OFgTWtwBCcD0Cj2/L6/B0qIJKHTmAcJB3RI7XOkiAsDoVgnzlI1x/+BGGe8/gTO95lm2+m5YFDeRxSKYScPtczONAAIH61GsMjA2O6t7XXDYmalStroaxqhaVSnVeyYlYbf3iCGJqEU6dfXU30ymoc2htZiceIb7qgDhVih++/T28ffOXuHz6M/idN/4Fq/uXPgUIKIREr8NqDq8DDxanMOV3o7K1D7oCLr0lGxNr4+LEbZR5bBjUN+BEczfkRzh0d1j3RSFcN58AYT/swQGE/bBqHvs8SIDgXEqjJTSHH7z9PRZPpnyDc/35S+R7EqbY3GB0ztF4DE6PnalGxuJRVjFByZEkPkTiSPSiuvaa6lpWIkcZ8LtJjJxZnsYdyxhOf/ELkMoUeVwdYD0UhMftgEymgFr7fA4F8mIsL87hwd3rqNbXYPDUeUikh+fJCPp9WLx3H545IlihbOYgqjV6vDJ0Cc3GlkMFBNstUCQaxsOFcYysraJEY4C+qZtxDhRac1gW4TfPQxYL4WL7AJoMjUWh3llo67jT+XAAYaeW4o7b1gIHCRDcyxsY2nTirRtvguh7iQ9BpajYUahhL8u3BRw2WVIkAYL16DojMXJ6SZ0sw3IYiDmODqMwhcvvAr+cB6OuDgbyRLykTHF8cRz3HFO4+ltf38swtz13zWrG7NQodIZatLR3Y2l+GqbVRbS0dWE9FIDX7US1zgiPx4GVxTlYzStoaG6Hsa4BfL6Q/V2hqoTTYYVSWcFY+UgN0lBbj+X5GciVKvT0ndyzQuSzgyfWv5Fr70LsS+L1s58DKVbGk3EW4z6q9Mx0fzyae4QlnwtriQTK1DrUNHZBcIzopJ93AwZ8TphmRqDGJqrKeRhs6YFerd8VIM77Tc51uG8W4ADCvpm2ODo+aIDwijCMhzMPMLs8jd62PgTCQQx0DDK3/0E3lt/wGDjQBhYMB2Bz2eAh8Z3SclY1QeWWsWQcVqeZ1dzLJQoWSydPRJZtbnxlEvfcM7j6ld/K+xTWrCbMTD5iAEFVocb3//6vce/WB+gbOgOK9dvXzOjqGYRMoYREKoNUKoe22oD5mXHE4zHcuf4eU4YUCIQMICmUKsjkKsRiEVDfA6fO4dUrX9yXXI2b77wFoSeGr77y1bzbZb86pHsiHAvj0dwoLJF1WGMRlCk1TAfhOPIlENPi8tQ9aPkCyNNJDDR0oKmmiXkNduMt2y+7c/3ujwU4gLA/di2aXg8aILyuyLAyNopJU4ihwdAAX9CH8wMXj4zNn06MTKaS8Aa8LLM+EPKx5DrKb5BJ5Qis+2F1WDBjnUO6Uoyv/Pbv5n0OtIlT6aCmWg8+X4C3fvZ9OOyWrQ2fqHqFIqYL0NbRgypdDazmZVSotcybIJMrMD3+AGqtjnkJlhdnIRZLGN3z2KO7DFAMnDyH9s5edk6+281330KZYx1fvfAV8Hik9HZ8Gt0DlFvyYPYhghubcKYS8KfTqO8YgrrKeKQ310w6jdWFUfjXVlArV6E8HESHoQEdDe0QCcRHeuzH5w45HiPlAMLxWKcjO8qDBgifU22CSgI/HLnGvqyaa1sYX75SqkBHU9eRtRMN7OnESOJscJEr2mXDjGkGSTkfX/rn/yLv4w8FA7DbzOALBAwMkAYChUk2Mmk2HsozCK+HIBKL2e8uhxVCkRjEbiiTKxGPRZnngLwPXo+LbQ5iiRSRyDrLA1AqK6Gt0kFZkV8PDo3xwbX3sHLvAYR8IdbDQTTUNDEgSBUmx6VR9QyVQ47OjWIt6ENSJMUqhaAUlWhoHzwyeQq0xl6HmWk8KHl85jHgJWM40dCBBn0Dy7vhPAbH5a7L3zg5gJA/WxZlT4cBEKiiYH51FgumOWgqqtBW34HJhXH0tfezEsXj1GiTJrXGe5Zx9L3+GSiU+U1so/4p/EFJlyzbv6SUlXySEM+Wp2ODvccKj1GCTCbNOANIdpU2DaoYyFYIkMdh6yigpLSU9UmbBokJ5Xvz8HndWB15CM/8Mn5961e4+eg6vvHFb+JffuNfs9DNcWsMHG5sYGVtBWML4yiRyCGqqMKC3QRHwANtbSuMjV0QHWA1gM9lw+LUXSQjIbTXtkArlsJnW4FaLEVfay/USjVb13yv7XFbu2IeLwcQinn18zD3wwAI9GVLSYLv330Hhioj2hs64A/5GbfBuYELWxveMWr+kA93Fx8iKC/BmYufJIA6RtPI61CnHt1H0uzCgLEHP33vR3g0+xBXz36WiTk11DQeuzV+2jgs2XUjwzxhk8tTcAa8UFXXgievhNXrwKJlgZXbShWV0OjrodU3QFlRzRJEc22xSAgeIgxbW4HbvorNdIol1bbWtkDJF8JjWcBGIoqWmma01DYzwqmy0jIOFORq6AI9ngMIBbqwBzWtwwAINDcCAyNT95jIDn3hdjZ1gcoF6Quuqzk3it6DstXzrkOAZ3JlCrctYzj7uS+wyoBibkG/F7P37kEPGc52n8WieZ7xUFD+htluYoyYjcbmguH8zwIGylUhDwO9iCJaKFVApTFAJK9AEkAkHsV6NIz1WJj9DEfDiJBMdCbNyMPo3peKpJBJpJCJZZCJZJAIhUAyjnWvEwG3HdjIMD6PRkMjjFVGSMREgcsBgmL+vL1o7hxA4O6MPVngsAAClbyRMt+ydYmVFJ4+cQaxeAwTC+M40drLOAuOUyMvwp25+/CLNjB8+SrTkijGFo1GMH73Jkpd63i1+8InQkYEpIhFkZgwqdSRkj2PW0hpp2tKYSACDvSKxqLwhbxYD4cQjkcQjkVYXgPxQ0RjERYWIsZPsolYJIGUvaSQCCWM9IuEqiiHgDxrFC7iQgY7XQXuOA4gcPfAnixwWACBNgsiKro9ehNtDR2sRr67uYcBBmJFPE+hhtKyPc3tIE+m+VCJJIk18Wu1OHmuOBkVx0fuwDY6gYvtZ1no6NnNjOxE7vetqhA/E+ai5EWucRbgLJB/C3AAIf82LaoeDwsgbIUZvJhaGGfeApPdhEunXkMimcDMyjQkQjG6W04cq7VgT8hOC65N3YCorgrDRZSPQE/B4w/vwvRwHBdbT6O3te+FT7rxRAxmuxl2t43F1AkkUG0+1zgLcBbInwU4gJA/WxZlT4cJEAgMkMof8SKQ4BKx7BEocFPy18I48yhoK7fUAI9LI5fyqn0F1yavQ1ijRd/pc6zcsJBbOBRk2gv2qVkM1vbgVPfwjqiUyVYWpxnmNRNb/zp9AxNt4hpnAc4C+bEABxDyY8ei7eUwAcJWmMGBhzMj6G3txdj8KD5/4UsgcqIV6xJIRIfq5gk4HKdG8WfTmgl350ewqRShsr4W7V29x2kKOxorlVgSIZNtbh7SVBkaK4zoaureETjIXiB7Dzg8a6wyQKfWscoWrnEW4CywdwtwAGHvNizaHtKZTdy1ZvCvfh7Dn54X4Ot9/H2xRTgJkNwzaTEQUdLTjVgUpxYnodfo4A64GYVxvb4BoXCIhRpEAhFLWjxujTY+Slycsy5gLepBhL+Jps5uGOsaj9tUth0vMTyuzE6jdD2BGrEa7cY2Rku9mwQ6slUkFmYJjJR/QuJZJP183BsJhFkcFtg9a6xqIZqIsWoOCq8QDXYiEWOcFjyeAEKBiL1EQhHEgq0XVXvU6euZiNhxysc57utWSOPnAEIhreYBzoXAwZwng2/fTsIa3ISoHPjvT/NxpTn/ceAXAQTyFpjsq3B6HGxjWDLP47Xhq4wEiEINU4sTTMyJgMNxbFtudAsmTVNYL0khVJpEV9/QsQUKjjUrph7dA8IJ6MVqNGhqGbc/ldrttaVSSRZysNjNUKu0aDQ2MYB41BtVI8ytzGB8YQxuvwcimRIaXT1kldWIbWwgEAkxcBBPJpFIJZg8eTKZZD/JC0PiWXyeAHw+HwKeEAI+HyKegLGLygUiJMIBeB0mEDGSmC9Ea10ry/GgCpDDlMk+6uvCjQ/YC0D493/9fZjX3Oy7eL8aJ/e8X5bdQ78EDmY9GfyH20lkNoDf7OHh+moaM64N/P4pPq605BckvAggZKsZRmcfYvjEWUwvT6Khppllt1OOwoptmSWynR945dgmsdEcCQgtWRax4FhGmUKMtbAHlTo9egdOMxrlo9ySiQTmZydgWVxAtaQC5bEMqqSV6GnpzTuF77OlkCTDTZ6Jo9SIv4C8WyQ6tskXoqb5BMIkt722ysTHhGI54z+o0OohU6hRzuMDxGhIHJbsf/R/TzEcMtEwxuXNxMOy6qPEghkJBxHw2OF32xD0OiEgldFqIwwqDfzWJfjsJjQZGjDYeZJ5HIhBk2ucBbIW2AtA+NHbN3DtzhgytEnsUzvZ04Lf/Y2rLwW6JT6fb1uYQh+WaDQKnU7H3fx5WKSs5+D/uZXExibwR8N8dFeXwRLYwP/3IIkZVwa/f0qQV5DwIoBAUyJX/PTSFHOnEiiwuSy4OHiJzTYUCTHlRyKS6W3rz4MFDq8LRpucSTMegGnTDNL8UoSRRCgTY6qK1fqjE3tn3P5uJ6ZGR5AOR6EVqYBoEq01zWjQN7K8kN2EE3Zi/Wx4htg2qSTyKJRCUgjkzthtzFmXINXWIC2SwOyxo4QvQm1zDwME5TxSSNw/noKsiNjmRoYBB+vyFPxOM3QqLSr4AvjMC1BLZbjQf5HZbL/WZydryB1zNCywF4Cw5vLi/sQ87ozOwh8M53VCEpEAZ/o6MNjdgvqaqpfeqxxAyKv5t+8svbEJSkr89q0kMo/BQa9ui4Uts7EJc2AD/2kkiVl3fkHCywACuZbNDjPjRaDa+cmFCXS19DAueaaqR6GGpQmm2UAlcYXQaAMOhoOYXp6CLxaExmiE2WvFin0FhrpGdPedREXlwepS+L0eTIzeg2VlEbpKHZqrGxHx+sHLAN1NW+txkC5tiuGz+8K9Bp3WgEZD04ETUFF46OboTQQ3MojyhAikU6jUN6C6tgVisZxpWhzmRsxYHNMpeJwWWBbGICopgaoE2Az5cKp9kDGUErjmWnFaYC8AgSwWicUwOW9GIBRGNEZVZy6s2pyIJ4gbdOeNzyuHUadBvaEKMokIUrEQJ9ob2e/UXvYZ4gDCzm29qyOz4CDrOfjWMB8nHoODbIdZkPAfCSS4MviD0/nxJLwMIGTDDMTXoxWEzwAAIABJREFUf/nUFZaT4At4cabvHBsaxWpXrMvsyZtCDcQqVygtKwJET8qzq9OwumxQqNXgy6WYtc7D7DAxFcfahmY0NrdDX1PH1Br30uKxGJOMXl6YgXllEdFIGDVVNWjVt2AjmoDf7UKVSovOxi6olVtu65d9gPcynhedy3I4HGZWDkulkKTjQJTE+92I9nt0eQoxgRieVBIQy2Bs7oGMJWIeLih43tzpXkqRB251Bl7bMvRSOTZ8TnTXNLEqIWJq5FpxWWCvACGbf7CxsclAgcPtx5rby36n95hX67FJs8eWPBaOY6JwJSUoLSkBn89DtVoJnbYCYpGQvZf9TtnJdwsHEPbxvn0WHFBYIes5ePayBBJM5Em4v+VJyAdIeBlAoDEQqx59KVOYgWiKJ+bHcKpnGLLH6nhU1TC7Mg0+X4C+Yx5qeNEXPPuST6eYN2VqaZJlwFMMW6vTo0pvBF8sYtUeTp+ThV/Wo+tYj6wzyt50OvXkQ0cf27LScohFYkglcsjFMsglcmhVWmiVWmSSSThsFrgcNiTjcVRXVrNkUCox5JdvSQPv5IO7j7ftk66z4l5kE/pdrzXsmyfJ5l7DvZmHWEvGERNKoKiug0bfwISWjoo9dmJzUuoM+d0wL4xBVVoKfsiPoaZOtNW1FRTA3oktivmYvQKEp233MQAoYZ9Dpg7LFGW3jmJQYfMpbwBLtWEZN0++T57uI5d14QBCLtbK4dgsOPi/byXZQm7nOdgOJKz6Pw43EEj4zB4SF3cCEGhTtDrMjDRpqPs040EgbYbBrpNbNx+FGgIeTC9NoqW2lW0SxdC2Pohbss1pij1Hwwwc+EK+T/D5U+kcAYSnE3koT4BK5wgkiIVbHP8qWQUjnyKwwOSjH0tIH/XNj+wQjq7D6rTC7XPmvRSSANadqXtYDa8jRLoI1XWormlG2THX1GB2C/lhWxyHLJWAPBHD2c5BGKtri+HjU/RzzCdAOExjcgBhH6z/NDigneOPzvBxonpn7mLyJOQLJOwEIGQJc6ia4TNnXocn4Mb4/BguDr0KIV/IrMMIlGzLDEhQqIGLrX5802SR+bMI/ahv/Lne9lQemC2FJKBDfAlCwdb9sdtm99hxb34cC+EgZHVtqDK2gMcXHiuPwcvmTgDT57bBa54Hz2vH1RNn0GRoPNCckpeNkft7/i3AAYT827QgeiRwsODJgDwHqTTwJ2c/nXPwsokSSFj2beBv7yex5Mngj88KcKkp9xLInQAEGgtJ5M6uzDD3MZW2kUwwEcQ8TZTECJSWpyDgC9HXfryrGl5mf+7v21uAuANIx4G8TeQJqdXVMcXD3TS6lx5Zl+HlCaGsb0eFxlBQwOBZm6RTSazOPgDsqzjT0I7u+naIhHvLadmN3blzDsYCHEA4GDsfq6tkwQElJKYyW6WMvfoylhiSa6O+Fr1bOQkr/g3WV64gYacAIZ1Osy99SlK8MPAKrC4L02T47LkvPHnSyRIo0Rd7c20rDEUSash13Qr9+GzIifIS1iMhGLQ1LH8ll0bKoR/NjiKsVKO6pRciibygwUHWNpSfYFmcQGhhHK93DqKrvu3Ycozkst7FeCwHEIpx1V8w53yCg+xliDthwbuB/3g/CROBhDO5gYSdAgS6ntPrwNjsI7x66jVkGeq0FVUsez3bsqGGNacVZ/rPPwlBcLdC8VmAcjKo0sPl3cpLqDc07IjVkVg6r03dg4svhq59gIGDYmoEsMwL44gvTeDzJ4bRUtPEhRsK8AbgAEIBLupup/R0WCG9R8/Bp1yTmU3MP/YkEEj4wzN8XN5huCEXgEAhhAXT3GN1v3rGZb9kXcRrpz/ziSHRUyOFI8rLeOjvGNitybjzCsACT3ueKDRF1M/iF5T0ERnXuw8/wlwiDkP3MGRKdQFYIfcpkCfBNPsQYpcVV3tOc9643E145M/gAMKRX6KDGSALBXg28H/dTCC9sbewwvNGnHrsSaBwAyUwUrjh8g60G3IBCJkMhRmsrIqBvAgk5jS7PIV6Q+MnKheyBEpU+thY0wxDVc3BGJq7ypG0APElrLlscHjtzINA9wN5nrZrEwvj+Mg0D2FTD6qNLUURVnjeomUyGUx8+FNc0BlxsrWX88Ydybt794PiAMLubVcwZz4BB7cSyLfn4FkjMZDg2Qo3rAY2WNnky0BCLgCBrkdhBqpgoDwEIukx21dhc9pYRcPTjUINq2srsFGooffcnrPZC+aGKNKJEGgMhYOMUMsb8MCoq2PKoE838jb85OYvYeUJ0ThwkSkpFntz2ZaxsTyBK+0DqOXKHwvqduAAQkEtZ+6TyYKD//Nmggkv7SUhcadXJ5Aw/xgkEKnSt14SbsgVIBDxz5J5ASKRGG317Y+plifR1dzNmP2ebnTs3Oosi58OdAzudArccQVsAZJUpmTXNZcVVZU6VgqZZd90ep14a3oEMY0BdS25yYh7HGZMjlxj3AidA6/suOJhaWYEC1N3Ga9CS/cwJFIFs77fY0ciHgWfL0Qo4IGisgqqyuqXrgydF4uEoFTrIM5D7gSFGh69/T18qaMffU3dL70+d8DxsQAHEI7PWuV9pE+Dg6zwEtEn76ZaIdfBEUiYewwSzP7HIOE54YZcAQK5PekpcNG8gMunrzABp1XbCnwhL/MUPN2y2eyUj1Cvr+cIYHJdyAI9PrORgdVh2SqFlCpYhQOVRI7OjWLE54KosRuqHCXEFybvYmb0Oiu9NTZ1M6nmgNcBuVINj8MC1WOdEAKrNQ2dsK7MMAZGh2UB4fUAhGIpmjtPYXMzA7/bjtKycoglMkikKtjMcygr52Ejk4G6ysjOS6eTjI9hzTTHVqlSa0A0HEIiHoFAJIFILGMaDHVNPSA9E6dtCQ1tA6jaBb/Bjbf+AV9s7sLpll5OFK+APhMcQCigxcxlKs96Dugp/qDAQXacDCS4H1c3BDbwx+RJ2AYk5AoQqH+Xz8nolkmPQSQQs39PLU7iZPepJ/TLT8aRSsJkN7HN4HTPMFfXncuNVMDH0gbu9rnh8DpAaozGKiOml6exuAno+i5AkGP9/9z4LQR9LgiEIkQjITisy5gbu8HAAuXOlJWVs805kYhBLFHAtbbMvAb0tE/vR9YD7G8rsw+wMj+K1p5hdPZfRIXaAOvKNCwr0ygv56GpfRCxWBjxWISBj9mxm7Cb51Hf0osKrQFCkRRlPB4CXifLt5CrNLCuzrJciuHLv4Ga+g6U5ij7PPLhzzCkUOFix8CBaF0U8G13pKbGAYQjtRwHM5gsOPjLmwkm2ZylTz4Iz8GzMySQMMtAQgLmwOa2IGE3AIG+0Jcsi+xLt6upm9Eur9g+Sb/89FiIhnd+dY5RDQ92Dh3MQnBXORYWoHuDqmFcXgerfEnrG6Hvv7grgOB1WdmGT/dl0O+GZXnycaiiBJF1P4yN3fC7bQiv+1ChqWEeAPfaCmoau7Ae9LJN3LoyxUIKjW1b5ZV8gQjJZBzutVXI5BVQV9fC7TCx8AP9PRGLwLI0CUVlNdpOnIFAIEY0EoTNNAetvoGBE4d5ATKVGp19F1Hb3M1ARC5t5KN/wpBMgQudg5AdgBhWLmPjjt29BTiAsHvbHcszs8RFf3kjgY0NsPj/QXsOtgMJM64MS1w0BzfxJ894EnYDECgrncIMlF9wZfgq02IgUpzJxQmWvPgsvW421DC/OsvCDMSuxzXOAk+8TI+1Pm48ugGnQMQAgvI5VQ7Ps5rXaUHA52TeA5m8EslEDNFwgOUOJOMxFh4g138sug6SqBHLFOz9aDgIsUwJYjGUKSoQi6yzTV2h0rDQA/VDQCCTSmIjk2ahiEg4iHQywYS6KPRA16TfK9R69u90KsEAB4UzGMBIxJBJp1GprUFFVQ3La8il3fzVd/G5hnYMt55gXgyuFYYFOIBQGOu441kQ/bEttIGfz6Rxrq7s0MHBky/gzCYIJPx6IY3XmsrRbyh/MqfdAAQ62eVzYWpxHCe7TzO3J3kVKC+BWu82io4k+GR+HGo42XXqhbXwOzY4d2DBWIBA57x5Hu/Nj6O8voOFBnJptKnTJk+NNmvSN6D3mDv/sYodJfwBJczDQH9jUnYA2/gp56C8nM9+p+Noo8/2Qb9Ty6RTT96n8ZaVlYJ+EgAuYeJaZQx8MO28zc2t0Aad+/h36p/Gk6sGx/1f/h3eaB9AX3N3zufmYkPu2IO1AAcQDtbeR+JqBBKiSUAiwIEkJO500hRuWE9sQiksQWnpx7TOuwUIxKRIfAi08fe1DzBVQ0o8Iy/CZ899flvmN2LWWzDNg5LUskqQOx0/d1zhW4ASXn9261dwiOVo7LuQc6y+EC3ksq0gszTOyhzrdJzKYyGtMQcQCmk1C3QuuwUIWfIbkni+eu5zzDok6DS3OodKZSWajM2fshg9VVENPIUmiJ+fqHe5xlngaQsQUdIN2wqrZNAaPqbwLlYrjV77R5zVGHC6vQ8igahYzVCQ8+YAQkEua2FNarcAgazg9rswvTiJvo4BKKRKUAmkxWHeln45azXyONAx9CIvgjTHhK3Csj43m2ctEItH8d7oDSxlNqDvPAWJXFW0RiJeB4XfiS8MXIChwJUsi3GROYBQjKt+zOa8F4AQT8QYB0I4FsZQ1yk2c1/Qi7mVWZaI+DyK5UgsggXzPFKpFCuN5BpngactYPfY8etHN7CuqoKx6ySrNii2ZlmeQmxxHJdaTqCjrvUJmVSx2aGQ58sBhEJe3QKZ214AAoUMiGOfZJ9fP/95ZpFsMqLNacHFoUvbWomFGoJezK/MokpdvW04okDMy01jFxag+2PJuoS3Rm9iQ9+A+q5TRUW7TLwLgflRvNLQjt7GLo6mfBf30HE4hQMIx2GVinyMewEIZDqP343p5Sl0N59AhaKCWTP7XkdjJzQq7bYWJt79bKihn6vvLvK78NPTp6RX4kW4tzqHiLwS6sYuyBSVBW+nqZFrEIW8GNDXoae+/VPEYwVvgCKaIAcQimixj+tU9woQEsk4VtdWWYLiqZ5hZoYs/bI36MHZvvPPNU2UhRoW2PGnek4fVxNy494nCxBIICGwCdsSJtx2KBo6UdPYvW2FzD4N4cC6Da/7sTx2E9p0CqcbO9Ckr4eQS0o8MPsfxoU4gHAYVueumZMF9goQWJjB/TjMcG4rzEDvubxOTC9PYqDzJBSPBXCeHRgdx3IWVmeZp6GlrjWnsXMHF4cF/Ot+zJgWMEVKkCWl0LX0QqOrL4jJEyPj9INrIN+bUShCX3079GpdQYKggliwPE6CAwh5NCbX1f5YYK8AgUZFpYszy9Nob+iAWrWl6EiqfSu2ZUSjEQy9IBExndkKNRCJEik+yvKggLc/luJ6PUwL0H1idpix7LJhwm5GmC9EY/fwExGmwxzbbq5N7Iqzj26gNOyHUSRGl74BTYYGiIVijgxpNwY9hudwAOEYLlqxDTkfAIFCBLTBE1AY7j37xItgd69hZmkKZ/svQCR8fg13NBbFomWegYrTPWeKbQm4+eZgAbrX5kxzsAV9sEbWYQp6Ud3Ug9qmbsageNQbyUHPPPwAFWXlMEoVMMiVaDM2QyVTcV6Do754eR4fBxDybFCuu/xbIB8A4eNqhgm8fn6LNIkalTMuWxYZcyKxLT6vbYUafJhbnUGlohJtDR35nyjXY8FYgO6XZCqBVbsZJpcNvnQKC641lKnUaO4ehvSIJTOmUymYF8dgWxhDc2U11Hw+9PIKNNc0QS6VM9VHrhWfBTiAUHxrfuxmnA+AQJOmXALKOicGxarK6ideBAofENviZ85+9oVfhORCJqrm1bUV9HcMPjdv4dgZmBvwvlqA7huP34MF6yKim0CkpBSTpjn44xEYW/pQ13wCIolsX8fwbOfEMuqwLmJ29DpKk3F01rWhSixFaTyKhiojjNVGCPlCLpRwoKty9C7GAYSjtybciJ6xQL4AQjKVZGEGl8/5icoFqm5YMM1BIVO9NAmR9B1I8Ckaj2D4xFaogmucBXZiAdqU6R70BNxYsZsQikUgUqoRzmQwtjwNs9MCkUyJ6poW6MilrzGAL9gbAROJOq0HvHDaluCwLMLjMEMulmKgtRfVchXiATcEJSUwamugU1dDIpIykJyrWNNO5s8dc/wswAGE47dmRTfifAGEJ2GGxXG8/riagYy5Rb9swpJlCa8Nf+aF9qU+/CEf80QoZUp05qjoV3SLx014WwvQfcQAQzrJPFsUivAEvSgp50EkVaJcJIE/uo4l2wrsXici8QjiyQRSqSQJP0IgEEIskTOFx0Qsglg0zJQZy8vLwecLIOIJoVZUokFfD31lFcoyacTDASSiYUiFYtRWG1FdWc0SDsvLyjlAwN2n21qAAwhFdmPQZmi32zExMYELFy7gzTffhM1mw9WrVyEUCvHw4UN85StfwcrKCu7evYvBwUG2gZrNZnb81NQUtFot3G435HI5PvroI3R1dWFpaYmdI5PJ0Nvbi1u3bqG2thZvvPEGysrKcO/ePfT398PpdOLnP/85+/3y5ctYW1vDtWvX0N7eDpVKhR/84Aeoq6vDl770JVRWbpHO5AsgUF+URzC/OoM6fQN0Gv2T1acv6fnVWdRU16KmyvjCuyKr50AVEAOdQ1yoocg+Q/s1XeJU2MhsgEIS5GkgIOr0uRCMhFg+QyqdZn8jieeSsjKW8FhSUsoknulFEs4kE81jstA8SEUSaJRqaFQaiB4DgXIm5VzKAYL9WsQC65cDCAW2oC+bTjgcxs9+9jOMjo7iW9/6Fr797W+jtbWVgYCKigr2tz//8z/H9evXcfv2bbZRRyIR/PjHP8Y3v/lNWCwWtLW14dGjRxCJRNBoNJBKpYjFYnjnnXfYxl9VVYUf/ehHuHLlCvh8PgYGBvBXf/VXDBCIxWIGEM6ePQtiKqQXPfVEo1H284MPPsClS5cgkUjwta99Le8AgZ7AKMzg8NhxbuDiE3Nt0S+vwuqy4ZXBV19mRrBQg2me/cxWRbz0JO4AzgJ7tAB5HtiL/tvcJEwAlJBs+8ebPhce2KORudOfWIADCEV0M9AXCj35EyjQ6/UwGo1sQ/7GN77BnuJLS0sxMzPDNu/l5WV2LG3W8XgcP/3pT9Hd3c2sNTw8jMnJSXR0dDAPAPX7+uuvMxBBx3u9XvzZn/0Zzp8/z84xGAwYGRlh5w4NDbFr0M/vfOc7DEx8/etfZ96KBw8eMFBCngq6xpe//OW8A4RsmGFiYQxXz34WpU9lZ7t9LhY6IK4ETcX29MvZ2+XpqgYu1FBEHyJuqpwFisgCHEAoosUmZcLx8XH83d/9HXp6elhYIJFIsI2Ynv5pM6fQA73X2NiIxcVFnDt3jj3lU4iAwg0//OEP8Qd/8AcsFEGbOz31z87O4vd+7/eYZ+C1116Dz+fDX/zFX+D06dOor6+H1WplXgaTycSuSyEO6p9ACDUCGgQaqK8PP/yQnUcghcAGtXyGGKg/f8jPwgl6rR7G6rond0CWftkX9ODMC+iXsydkQw1U1UAlkgQUuMZZYC8WIPXRNfcalq1LWLYuIxQJgScUs1dpOR+lPD7KeHwWXqCfT0IMqSQy2Vc6gc1UEtFwAPwyHmqqjWgyNKFeXw+5VMFxGexlgYrsXA4gFNGCE0CgXALKOaB4/+rqKvuyUKvVzMVPOQO0mSeTSdTU1LDf6SejJXa50NLSwjwO9HRPngPKLaAQAoUgaOMnQEGAgM6fnp5m/fn9ftY35S0QcKBzAoEAyy+gF4U81tfXWYhDp9Oxa5Jng65JeQnkLs03QKBwApU2kprjhafCCXRNp9fBvAg7LWOMxaNMqyESC+NM77kiupu4qe7VApRnMG+aw61HN+CLBCHXGKCsrkWpUIJIMsGqHDKbm+AJhCgr57O8g5Kycub1ouTE0rIyoKQEmxsZbGTolWY/N1meQgbJeBTYyEDMF0IukqBsI42I1wnv2jJK0in0t/UzCXQO2O51JQv3fA4gFO7afmpmjLwlmWSggDZq2rjpPdqcKZ+A3idvAW3K9HcCFPRUn824JjBA4QYej8cysOl4yj0QCAQMKFDfdDw1+j17PPVFx1Df9D71S/+ma9J71AcdS8fRv6l/OoaSJvcDINB87J41TC1O4tWTl8Er5z2xFaNfti6DRJpeRL/8dKiBkslIq0EuUaCreSsMwzXOAttZgIDprbGbsHldkGoNKFeoEYhHkS4thVheAalSDZFEAR5fwBINKemwpLR0V8bc+txmWAJjOp1CPLqOSMiHsN+DdDwClVgKXjIBn2UBcr4Ap7pOobWu7YWMorsaCHfSsbUABxCO7dIVz8Dz7UEgywXDQZZkSPLPDTVNT4yZFXaaW5nBmd7zO/qyJIBldW4RKJ1o7YNKriqexeFm+lILEOi8P3UfM7ZllFdUIV7OR2ITkKjUkFOpoUTOPAQEuA+ibT0UpEFaCyG/CwGXjZVBynl8hCwLqJGrcKHvPLQvycM5iLFy1zhcC3AA4XDtz119BxbYD4DwtADTK0NbuQ7ZxuiXrUvMs9LX3r+DEQKxeIxpNYQjYZzp40INOzJagR/k8DpwY+wmXPE4oFAjIxJDoTVCptIyD8FBAYKXmZkBhnQKsUgIbtsSShNxlIZ8KI0EcbZziHkV+MdAQ+Jl8+T+nrsFOICQu824Mw7YAvsBEGgKJNREFMvnB16BgC/4hBfB7DBhdnkarw1fZUQyL2v0JRug5EfTHCRiKbqbe152Cvf3ArWA3WPHR49uwEPliIpKlEqVqKiuhUSmZCGDo9w2NzeQTMThc1oQ8TnAi0Ww6XXgfOcQOho6WfiPa8VjAQ4gFM9aH9uZ7hdAWI+EsGhehFQs/RTFMqNfNs+zvILW+rYd2Y4En2xOK5OQ7mnpZeELrhWPBag65qOHH2I1so5NpRYSbQ0qdXUQCES7ziM4TOtR3kLI54JvbQUZtw2iWBiX+s+j2djC8oW4VvgW4ABC4a/xsZ/hfgGEJ2WKthW8euryJ+zE2CPtq2yzv3z6xfTLT59I8eYl8wIrTzu7g1LJg1qccDTMwiaUW0G5EgSOKNGU2PsoEZTH4zPe//LHCajJZII9SWbSGZSWlDB3uFAghF5jYEqWzbWtUCvVR8ZNflB2fN51Rqbu4aFpAWGRFBJdPdT6BgjFElaGeNwbhR+8TguCDjPCplkM17fjdNcQpOKDFZg67nY8juPnAMJxXLUiG/N+AQQyIzEqTi9NsRJFkVD0CcsS/fKCaR56rQHG6todWZ2FGh6LP4lFkgMPNdCmT6Wat8duYdm2BJlKBY3eAIVaA5SXIkSZ7Ikok7dmjHuPN/+y8nIWSqHSua2YNLFcprbK5ui/jU0i7IOIL4JcLAe/tAzhQBBeuw0+lwsKsZzZsKWu9RNVITsy2jE/6P377+MueaIaOqCt74BEpipI4JROJWBbmcG6eR6tUhnOdZ5kNM5cK1wLcAChcNe2YGa2nwCBPVlbFllstaOx6xM2ow3StLYKm8uGi0Mvp1/OnkybdDbUQGWPlUr1vq4FhUMezT3E9OoMZBUV0Dc2Io4MYukERBIJJHI5pDIFRGIJ8xAwIFD6mJq3pIQBhe3oeRmVLzH8M3rfDeZxIM8KgYdEPIbwegiRx6/SDUDGlyDkdsO2vIhqhZZRUBs0NQXN+3/twYe47zBD2dIHbU0T+IJPgsx9XfhD6JzuAb9nDSHzPNSxMC52nfyEpskhDIm75D5agAMI+2hcruv8WGA/AQLViVscFixZFnH59JVPDZjolynxsKW2FdrKqh1PiBjxSBaahHbO7UOogSotHs0+wKRpGtUNDRCplIimE5CqlFBX6SCVyVnY4CAy5QlAMD6LaAR+jwtelxNlG0B5ehOOlRUoy8U423cBVRU7t9+ODX2IB96ZvIu7DgsULX1Q6+q3iIuKpEXWA1h59CHahCJc6DqJCjmXb1OIS88BhEJc1QKb034CBDKVw+PA7PIUhrpPs4TFpxup6K3aVuD2u3Gu/8KOLUubJnEtUIhCJBCiu+XEjs993oFZMHNj/AaiJWlUNdZjU8BjIYQKtZZVYlCo4LAbPWWSKNZ6MADXmhXx4DqiXj9ibh9ONPagt7UXfN7HVSOHPd7dXP/B9AhumhcgbemF1thaVOAga6+gzwn75F30V2hwsuXEpz47u7Erd87RsgAHEI7WenCj2cYC+w0Q6Gmc2BMpYe9Ea+8nRpClXyamxL62fihy0FugjXLNZWOJjh2NnVDvMl5L/ZA34tb0HUiqKiGoVEIol0FvrINEKjvSpXM09ng8BrdjDX6XE+n1KNbXnKhT6lnOwtPlpcfl5vcGvXiL6JFlKtR1ngSPLzwuQ8/7OH0uG+wPruFLPafRXtea9/65Dg/XAhxAOFz7c1ffgQX2GyDQJkZMiAumOcZ78GyjcAFt8pSvcLL79A5G/PEh8UQci5YFBEN+JgCVq8ufKKFvjN2AbzMKfWsrtDU1qNRWs/DBcZL1zbL3hQIBOKwmOJeXseGPYLCp/1OgLCcDH8LBH43ewFQ0gsqOIUiL3LVO6zp9/z2088pxoa2f03U4hPtxPy/JAYT9tC7Xd14ssN8AgQbp8joxszyN/o4Bpnj3dMvSL8+vzuH0iTMQC8U7nhedG6JQg3keAp4APc94KJ7XEZVLjs49wv2VUVS3NqOqrg41dY0MGBz3RjS/XrcLtpUlrM0voKpcjlcHLh0L3ohwdB1vkvdAXonajsGCKGPc6/20HvTCMfI+Ptvej7balr12x51/hCzAAYQjtBjcULa3wEEAhKxIE6kzDnad/NRAovEo4xGg2DopPebSyENhd9uYfG97Qwc0L+G4pzLJ+3MjWAhY0HDiBOqaWlko4Th5DHZin2QiAZtlBeaZGchT5RhoOAFj1c7KSXfS/34cs2RdxEfmJZTUNENraMzpEol4FA9u/AKutVX0nv4Mapt7dhQe8rlteHTrLawHPOgdfh21TT17yjWZn7jDWB0ZzgOvAAAgAElEQVSrapqYINReG4HgO2/9A77S0Y9BjkF0r+Y8UudzAOFILQc3mO0scBAAgb7kSGmPiIQ+c/aznxoG/d1sN7G/E3FSVrVypysWT8axZFqAL+TH2f5zKCvdPuPd6XVidHUcMVk5NPV10BvrC5q1jsBTKOCDy2xGxGxHo9ywYy/LTm2fz+NuPrqBiVgEFR0nIc1RlIsy/6/94j+D+ATUVbUQSxWgRD+RWAaPy8L+XaExMCBQ19KLSMgPn8cGvkAMr8tK9aaQKdSQKStZqSEdSyWn5Tw+YtEQE1+qb+mD3TzPylLFMhVCfjebvlZXB+vqDKSyCvg9dujr25k8dMDnQF1zL2ymWfD5QrR2D0O6CwbQ2+/+AJf1dTjb1n8s80ryeY8UUl8cQCik1SzQuRwEQCDTuXwuBgCo4mA7RUaqSlgyz4MIkNobOnOyNgEMYi+kqgaSlz7R1vep84mq99HKOHyCFNoHhiBTKAvOa/A8oyXicZgX5+BfWEVPVSva6ttzsm8+D06QBHLIB7fPyUJPnoCHEUsppAqmz7FhbEXruc+zDTWXFg75cfu9H0JZWY1oOMCYKi3LU0yGuZwngKGhAxKJAolEFAqVFubFCQhEElQZGjE/eRc+lxX1rX0MVCzNPEBdcw9kSjVqm7qxZp5nQEFZUYVSIrEK+UCARKXRMZBQXdOMhcm7CPpcUKqr0dDWj5lH17Ey/wh9w68jnUqipqGDeShkisqc77uHN99En0iMix1DkEvluZiFO/YIW4ADCEd4cbihbVngoAACPeUTMRLlDGyXjEibhHktd/rl7DpSlQQJRC1blpi+Q1Vl9ZMlXo+uY3xlEraNINpPnoKyorLolp+qHRYnxpC0unGyoQ8GbU3ebUBJo8SQ6Xy8+dPvtC5KqRIqRQVU8gpIRBJ6WEcqnXz8SrFcAyFfiPGFMazxRajuPQ/JM7kqLxssAYRb734fVK5Kao4BjxNl5TxQDD+ViKGp6yRSiThikXUGDOLRMPM2UDiAwhNypQZ1LScwcv0XiEaC0OjqkIhFUdvUBeqb6JApv0NnbIHXZUHI70Fb7zk4bUusT6lMBYd1kW3+jR1DMC2Os+upq2shU1QgGY+j++QlGOo7cgYIt379fVw21OFcO3kQcgNOL7Mb9/fDswAHEA7P9tyVd2iBgwII9JRP1Qz0lLhdmIGG6wv6sGieZ5t7nb5+hzP4+DB6OqWSRW/Ag7P9558oRU6bZnBz9SEGL7/GiI6KtRE74+itj6CIluJK/2Xmrqb8ECoXpSTPmmrjc01Dx5Fd6amfAABt/kQPrZSpmEdIpahkCaa0zrT5J1MpkOw305ngC5nWhJAvYtfMsk2WlZayJ/Is2+Ts6ixu280oq21jG2sujTwGtCmTrDI96VM+y8ZmBplUkoUKyBuQSiWQiEUgkSrZOMnTwBeKIBTLoKyohkgiw5ppDvFYmIUmSDODQh3UN3kWBEIxy2sgQEHnq9Q65klIxmOsH/JWUKPwRGTdz9gxqU8CLfFoBNU1TZCrNDkDhJu//Ht8ua0PJ1u6ucTNXG6KI34sBxCO+AJxwzs4DwLZmgiR5ldnmYt7O94C2lCIOGnNZcXFoUu7Wh5W1WCaZ3kMvW39zIV9f3kUCY0I/afO5fzlvKtBHOGTLKZlmB+OoUtVD5FAjH985wdweO24OHgJtbpaBgAoBEAiUvTEz16KCogEIrYpJunJ//HmTxt8duOnn0TQ9PHmX/aEcnqnCaAkwvXzh9cRUGrQ0PnpZNYXmTUrpUyxf+JOIK9EOp0kMmuUlGyBEEZrvZFhngX6nY4tLStnapAEVAjMMJ2MVAIlBFxKSUirjGlm0LFlPD77SR6Q0tISdszmxgYIKTFdjc1N1kdZGY+BAnoRoCDPA12fwhTUXy6NwMjMez/El7pOoqfpk3TlufTDHXv0LMABhKO3JtyInrHAQXkQ6LL0hE9hBn/Ix0oat2tuv4tt8I01zahWfxwm2OnC0UZhd9tZVURzbQt84QDu2MZx5nNfYNUKxd7oyfrBjQ/hnVmEw2rG9976DmqqavD7v/UtDHQMIZXeevKnRE9iqRQKRAwE8Hl8ttlln/pLS7b0Jna6+e/E7vTE/f7DjzCfTqOq8xR7+i72Nnn/fdSnE7jcfYopfHKtcCzAAYTCWcuCnclBAoSPwwxUzfD6tjZNppJYtS3nTL/8dGdboYZ5uMgtLJNhIrSCz331t3e9hk67FWs2M+obW6Cq2JnCnmllETbzClQVavCFQjS1dGx7/YDfizs33ofdZsaZi1fQ1nEir5vudhedHBuBd5o4EhSwe+wMFAx2DqGruYc9Ae/H5r9T41My6y8e3UBMa0RD59BOTyvI46LhIEbf/i7zHgy19++obLMgDVGgk+IAQoEubCFN6yABAtnN4/cwVsWm2hZot+EsIBBBMtF0DIUIcqFffnpdKNRAZEgT1lmoOhpw/tVPl1fuZB3pqXbs4R3c/OBtDJ9/DXWNLZh4dA/RaASR8Dr8XjfOXLgCoViMoN8L4h8IBHwQicTwed3Q6Y2wWlaxHgpAU6VDVbUBdpsFxtoG8ARCrCzNIuDzMlBgMNZDLJbA46YEu3JEI2EmGd3Q2Mrea2nrYiqPTocNfYNnUKUz7GQKnzrGvLoI1+Q8uisaYNTVgfgpKDdAIvqkVsauOt/jSWTvB3OP8MHKLBSt/Sz7v1jb2Ac/QQuPh8u9544F0VWxrtNu580BhN1ajjvvwCxw0ACBPAQUZvAGPRg+cXbbeTL6ZesywrHc6ZezHdJGM7syg/cmP0TT2VPo7s0tpp3th0SRxh7dxfije9DX1EFvqMXi3BQaWzpA8fz52XH0DgxDKBTB7bKzDPq7N69Bo9Whtr4RFZUaRMJhxGIRFpOuqW3Cmz/5LpSqCnR0DyAY9KGyUgNlhYYluznsVlhMS0gkEtAZahGPRdHS3s2AAQW/KXGOwMQrV77IAMVuXPxejwsLd++htqwCw88J9RzYDbjNhUi/4+bkPUxHQtC0D0Gl0R/mcA7l2uO33kLdZgaXuk5Bq9LkTCN+KIPmLpqTBTiAkJO5uIMPwwIHDRCehBlWpvGZM9s/1dMxNpcVi6Z5nOo5A7Fo5/TLT9vQ6XXg9sIIUKPCwKnzuzLv0vw0rn/wNsLrQQgEQihVagR8bnT3nYTbacfK8jxq65qQSMSxvDiL2rpG5kEgAaX27j4oFCq26Vdqqpg3gTb6D99/i8X4u04MsgQ3iVjCPBJMfCkWZcdTaILH4yESCcNY14RgwMc8DdX6GpahX1ffguHzl1mCXa7Nabfh1z/+HpYejqKxpgmneobZS5mDWFau18z1+OB6EDdnRjDqsUPbcRL62uIQK0olE3j40c9g3NzEZwcuQK/WceAg15vnmBzPAYRjslDFPMyDBghkayqXo0REKmXUPefpMBqLYNm2zDLmScNhN41yER4sj2E2YceVz30l5y4IqBAIsFlNkEikDARQtjq55JXKSrY5+31uyGRyhIIBZNIZSGVydlwyGWfeAyL8oZAAbf7aaj3LdHfYzBAIRUxGmmL+RGREjIf0b0oEJE+EVKZgGffEDyESSxEOBSAUiVl/BFYoXFFb37wrDwJ5QCavX8fN936FexN38Dtv/C7+5Tf+NSqVR4sfgspex1emcXt1DuL6DjS0D7JKgEJtHmIbvfcOWsRSXO49C71G/6RUt1DnXMzz4gBCMa/+MZn7YQAEegI22U2spI74CrZrW/TLqwxIvHLyMmNIzLVRH6NLY7jnnMbnfvO/zfV0tplT2Rtt0iTkxErgqMxtY4OBg7KyMqTTKZbUR4l+xL1P3ADsvdKyLRrnkhKkkkn2Hv2dcgvSqRT7G/1OjfWbTkMoErENn/IYqP9s+ID6zGSIAIjPgAYdLxAKd831/+juDaTNHjjMq3j39q9xpu8cPn/xS+g+glz/FG5Ysq3gg+kRuAA091+EVt+Q81oe5ROIkGn0zlsQhPzo1ddhsOUENCrNcynDj/JcuLHt3AIcQNi5rbgjD8kChwEQsmEGUni8Mnz1uS5USjQk4iOqwe/YZQ346toK7prHUDvUD0Nt7uRLh7Qs+3bZ9VAQs/fuQpsSoaZSB2/QC7lEwSo+KCGUBK92A8b2bcAEuDJpWJ1WzNqWMWKaR4laj5becwUhBz0/cRvepSm0KivRW9eKBn0dpCLprjxD+7kGXN/5twAHEPJvU67HPFvgMAACTSHLmqjXGlBTtT2DHz25E3ESJTVePn1lVzOPxWO4v/AASwkXXnvjN3bVRyGdNDV6H7EVOy62DUMlU2ET5OQoYdUlxHIpEoqYXkYustsHYR/GfBiPYNVuxqLTilHbMjIyFdr6LjBGw+PUiJmRtBs8q9Noq9CiU1+PZn09Ww/mdeJaUViAAwhFsczHe5KHBRDIJU/aC3bPGs4PvPJcIxKl75J5EdrKql3RL28lPNpwbfo6eDVqnH3l6vFesD2MfmVpHksjD9CjbsJg2+AnPDcUuqDcEJJcJjbElrpWKKTKPVxtf05lCpWREMxOC6x+D2bsJljDIdR1nkR9ay/4AtH+XDgPvZIU9cT9dyFKJdBjaIRRpUa9toaFE46a1yYP0+W6eIkFOIDA3SJH3gKHBRDYxu20YmZlGpdOvfbcZKwn9MtuGy4Ovrore1LOw6JtCSOWcVS2NaO7r/gIeIjsafHhI+hKZBhqHYBU/GmWQloTtvnaTSwRs1ZXh+oj+nROQCEaj8LudcDmcWDJbcOoaR4bQgna+s6jpqETQpFkV/dLPk9yrq1gdvQ6vNZltFUb0VZlhLGyCsaqGlY1QtUsuylVzecYub4OxwIcQDgcu3NXzcEChwUQaIiBdT+WzAuoVKpRb2h87qjdPhcWLQtoMDTuesOiioZ5yzzumcehbm1A/8lzOVjpeB9qXl3C3IP7qBNocKptCHLJ8yWDCSQQOLA4zFhzr8FYbUTzES4x3BKHSjHNDYvTikAsjHA6DZPXgSWnDTKtAR39F1FZVZOzDsJuVj0WXcfS1F0szzyARixDq64OKoEQUh4fBrUOOrWOhW+oeoVrxW0BDiAU9/ofi9kfJkAg74DFboLFYcHFoed7B4hcacW2DI/fjXP9F3ZtV1IkXF5bwQPTGFApw9lLr4PPL9yyOTLU1NgDLD58gJ6qVvQ2nmDKiztpRFZFoRmLwwS9xoD/v70z7W7rSO/8nwSxEgCJjSDAfRfFReIiido322132+3OSTqdTM7J5M18kPkiM2/mRc5JJklP4nTc3WrL1kpJpEhR3FcQBEmsxL6DnPMUTdlyayEoLlieOsYhBdWtW/Wra9X/Vj1Le+Op/Vx2onVoV4GelUgsDF/QD19oC9F0GsmSErhCfiw77bC715EBhGCorm2F3lSLcq1OuJJSEqd3FfJeSSRiImPklncDbscyNh2LSETDMFXo0WyuQ42xGuWSMsh2dlChUsNYYRCCjPJZ8G7BiT4eOXdzFgg5NyXcoZ8SOEmBQH2hY4bZ5WlcGbguEgK9qbwKv7w6j562/S9yb2qLFpB1zzoezgxjLeHFpVs/E/EECq0Etnx4+vAuQvYNXGo/j1N1HdBkmfyIjmYoAyclviJh0dHYKbJk5kvZEwyxRBThWAShaBihWBixRBypnR2kUbL7czuDVCaNZDq1+8mkkUqnsb2zA6lEAlmZFLKyMkglUkhp8ZeUoay0BESCPgqpDGpFOTSqcuGBUK5QiaBaLAjy5Uk5mX6yQDgZ7nzXLAictEAgV8ZF+4JYvN61lR1PxLHsWEQoEhJR/z6kkHcEJQWask1h0WfHTqUKl298Am3F/t6uP+TeR30tBWl6MTqMtekZtOhq0V7dggZLo8i1cJBCrLxbHkwtTYqFr7vtjPB0yNciYluQIEiRGNiNT0E7WRRngr7f3tlGZntH/CQXD0r5LCmhdNC7SazKKH6FhMRCmTAspPgYeymu85UJ9/tkCLBAOBnufNcsCJy0QKB/mFc3bcIw7vrgzbf2fM+ocdE+j8HuCyj/QAM0cdaeiGHd48D8xhIWvKtQmHS4dP1jaLS5Z73/vilNxGOYnniOhRfjsKoM6KxpR4O5XsQ4+NDzbuHhEPCImBS0KLY1dKBCXfG+LvHfMwEm8A4CLBD48ch5AictEAjQusuB2ZUZXDxzWZzVvq2Q1fry2iISqST6OwcOhS0tfuFoGGtuOzYCbqxurcMZ30L/0FW0d+6mP87lQt4JTx9+i6QvIHYLqjVG1BiswvCT3mwPq7zycFhfEcKqwdoEs8F8WM1zO0yg6AiwQCi6Kc+/AeeCQKBjAzrnpm1wiuT3tkKLlG1jRRxJXCWbhbLDMzCk7WWy3ndtueEKuuGJbGHeuQyJVoX+C1dRW9+UM2KBUkyPjw5jY3kJdRUW1Out0KsqUK2vFjsGR2Un8GMPhw3ycLA0oKUuP+w3SFzSLhVF75yzzWIr6EOZXAmpshylUjkkdFQgfspRJpOLuRYhsFMJZFJJZNJJZOj3ZBLJaAjbqSSMOiM6Gk6hs/k0as21UORwDIb8+5ep8HvMAqHw5zjvR5gLAoEWZ/JmoLDIN87dfidT8tMn10g6+z2K3AG0CNKZdCDsx6bXiUA8hHA6hlnHAjYCm6hvbkP/+auw1Lw5+uNRPBDBwBZejo9gavwZ5JCgs+4UTOV6lJcpUKWrgqHCIMQVnZEfRyF7EIfLLvJpUBTM9oaO47jtvu9Bu0IkJO+Nfie8F1RGK5R6M0plcsSFQeI2IJHsCgGJdDfvBcUjIDuD739SbIIdskXYzmBnZ1skziIvBpFA63vhULKdgbxUAlmpBJl4BHGfC2G3A83Vdbh09jKqDdXH4lq5bzBcMacIsEDIqengzryJQC4IBHHM4HZgbmUW57svQPUO+wL6x59cHj8k/PJ+n4Q9K/hwLCxyFmyFyW0uDl/Uj6XNFTj9LmyXANa6RrS0nUZTa4fI4HjQwDeRcAh22yIW5qZgW5pHLBKGQaNHY1U9rLpqqCRyaJVaIQjIBoBEwWEeI+yXC9UjbxByO11aW4C+wiA8HE4yTDD15cnkE0zb5lCq1UNjacCOXIUSmQIylQZShRJSmUK4MpKRIX0Okip7jxE9G9tk3EhGjukUUsk40okYkpEQStMpIB6Ff20eiAQx0NGHvlP90KrfHn8iG/ZctzAIsEAojHks6FHkikCIRMNi4afsh+/bGdgK+ERIYON7Aiwd5sTRzgItCvFkDMFwEP6wH1FaENIJbFM+A6kEmRIgEo8gEA0iHI+ID/2ZBEY0GkEiGRcLEwkgtbJcGFqqFWrx0ajU0Co1kJWWYSedQUlmRyz+KrkSWpVWJFJSyVXi+OCgAuQweVBbP/ZwIPe+rrYekVjruAqJlOezz/F4egTbah1U5lqUKMohK9dCqamEQqXezbB5TDsrNG7abUinkohHw4iF/EhEAihJxBCwz0OVTuJm31W01bdzaOXjekhy+D4sEHJ4crhruwRyRSDQ4ktnxCQSKPTyu8qr8MuuNVx7h+fDUc/xnmhIZ1LCbz6VTgoDSorsR30k33r6O/qd0jnTdjUtVrTwi0/Z7k9ymSuTSCGXykQsCFrUyOee3shzRQy8jeWuh4MX8yuz4tino/HUkb8pU4THuyN3sRYKQGVtgkxXBWWFAeVavcjFUJpDCY8yFF8hHkXY70E86EPS50TIvoBOawOu9l0VIpdLcRJggVCc855Xo84VgUDQNtwbmLfNov/0wBtzBfwYLIVfJmPFBmsjLCZrXjEvtM6SUAqEA+LYJ5FKoNHahCp91aEPk4TInad3sBqNQlXTDHmFEWp9FVTkypkHYop2FiJhP8I+FzIhP7wL4+i1NuLK2csikyOX4iLAAqG45jsvR5tLAoEszVccS6C8CX3vcWOkt3RyeaSAR1f6r+Ul+0Lq9G465t0cDpueDZHoqbm25VCGSO1+8+QOJt3rUFibobU2ocJQLXYLPsSO4FA6d4BGhG1LIoYtpx2hTRuiq7O43jmI/s7+Yz2iOUDX+ZJDJMAC4RBhclNHQyCXBAJFryNvhgX7Am5f+PidA94Lv0xJnLpauoWhHJeTJ0AeDmtOuzguqquuF2mjP6SsrK/gD6PfwSMpg6n1DHTkTqhU56Uw+CkHEgoir8PmKjwLL1BbVoaPBq7DyjtiH/LI5M21LBDyZqqKt6O5JBBoFujtc8E2h+72MyId7rsKGf0trS2BwjVf6L147JNIOx0UD2Bq6SVmlqdF38tkMmgqK6EoV0P1/Uf5/U+5QiFC+kYj4Vcf8lSIhsOIBAOIhcMisQ9FKjzd3CWyV2abP+HYIbzhhnseDiTeTDqTSPREeQmyLQ/H7uOpfQkSaxMM9W3QVBhzyr4g2/G8rT7ZKYS23PDYZpBancMX526h/QOF1WH1jds5OgIsEI6OLbd8SARyTSDQG+iKYxnhaAiD3effu4tAyZ7I1a7/9DmoVepDovLnzZCRocO1hgdj92FzrcJUUwuj1QqlRiNcHTMl22LxksrlwlhPUlb22kfE65dIIHIBpCn2/67hovhd+NWnkEzExU/JTgkklEgoHoff5YJzdRXKUhkunb2CU42d74w2eWQAsmyYhBDZDEwtTEBTrkVXa09W/f7m2TcY8zhR0XYGuur63eOEkpIse5Ff1cnzwbexjOTKDH7WdQ4tNU35NQDubVYEWCBkhYsrnwSBXBMItIDS9jTF/b899O5jBuIVi8ew5FgECYuB04OHipB2BO4+/ROmV6ahMepR334KGqMRUpUC5RotFEoVZHLFrjcC+deXlX1QtEXhW7+dEcJh17c+iUQshmg4hHg4jHgojI3lZWyuLKNKa8SNc7dwqun0icYfeBdwGo8v4BW7K3tRMkksvK8MTzzGk41VqNvOwmhtElyLpVBcBR8Zey6+wMenB9BkZZFQqHPPAqFQZ7aAxpVrAoHQOr1OLKzOobO5C/oK/Xt3Ech6nkTClb5rb00Zvd8po+1xCsd7d/QuEtIdWJqbUVFlgs5ggqaiUggD2iE4zhwNIrpjOoVYNIJQwA+/14uA1w233Y6I04OzLWdwpe/qez0/9svgMOvteTiQQSm5e1Jo5nfZi8wsT+HO9HOU1LWhtv2sEF7FVmhHaXXmGaSOJfzs7GXhqcOl8AiwQCi8OS24EeWiQCDbAjpmoLDK57ovvJf5q/DLZVJ0t/W+t/6bKviDW3g08QgTtkno62thbmyEzlSFSr0BKgq4I82dhYq27yl7I4Vg9rmc8DgccC0vwyDV4sbgTZHeOZfKnoeDbX0Z7i23sK0gL4eflmQygX998DusSqRo7b8O+Qdm7MwlBtn2JRGLYPL+V7hiqceFU2fZuyFbgHlQnwVCHkxSsXcxFwVCtscMIvzy2qJIG33z/EdZTWkkFsGz6acYs72E9VQH9BYLKo0mVFToIJXJcv7cm44jIuEgtjxu+N0urM/NQ5uR4ebgLViMlqxYHHVlOg6iOXI47SIb5E8TPY1RVMQNO1StvTC+QUAcdf9yrX2vcw2B8Xv4tPs8WvMkKVauMczl/rBAyOXZ4b4JArkoEKhfFAiJ7BBaG9pg0r0/6M5e+GVDhRFNtc3vnV06SpiYH8f9qccwtDSgrq0dxmorysvVeWkpv+tbH4fX7YJjeREbs/NoqrDiev+NnPKEIM8PmlvK3mk2VAs3yL3jmt8++ho2iQxNZy6LnAnFXrYzGTz5/T/i87ZuDLT1HMgTpNgZ5vL4WSDk8uxw33JaIFBEPrIt2Aps4ULv0Htni7wClhxL2HCt49rgjXfW9/g9uDd+D7aIE53nLsBS3wCttjIvhcFPByp862NRuDccWHo5gaTTh0udF9DderCjl/eCP0AFskXw+j2YWpyETqsTtiaUw+D/PrkDj0aPtp7sXFajkSDGHn2NgM+J7nO3UNPQsa8siq71FUw8+SOkcgW6B25CZ7KKHaNEPIrNtUWUayoR8LmgrTTCtI8dDbpuZW4cBnMtjObDyfb5Yvj3OKetxFBLt8jdwaVwCLBAKJy5LNiR5OoOQrbHDDRBFFWR3kwbLA1vDb9MuxJ3xu+iorkOTZ1dMJotkOaQfcFhPWhkpxAK+rEyN4Pl52PoNre9N/jUYd17P+1Qoief34vppUkoFSpo1RW4b5tHytKI+pbu/TTxqo7fs4mRB18hk0mhXKODXKFCKOAVcRM2VudAcSj0phrEYxE0tJ2B37OBcNAnXE4pUBEZBRot9VBrdEIYVOjNCIe2YLY2wbEyDWW5VuzOVBrMQkCo1JVIp5Nwb9gQDflR23Qa8VhYuK6GAz6YrA3wuRzQm6yiD8uzz2Gpb0d9azekUnlWY7MtTKA65MWVlm4RU4JL4RBggVA4c1mwI8lVgUDAKYXvXr6F6n2cp++FX3ZvuXC578/DL8/ZZnF3+iHq+3pR19IGtUab8zYGH/rgxeMxbNhtWBgdQUu5FTf637278qH3y+Z62u2gIFck6qaWJuHYKYGp9xKqswzR7HOvY3LkLrQ6I7Y8m8ikk3A6lkT2TUqOpTNaoK7QIxENi8We/q5cq0M5pcxWqCBXlCOw5cL8y8fi7xpae6HVVeHU2auwL03AvW4T19W1dMG1vgy90SIEA12zNDMKc02zyNJJIsDndghx0tTRh2g4ALIjIFfYjt5LQpwostwFcG2sQLY6h+ut3aipqskGL9fNcQIsEHJ8grh7uWuDQHNDdgJ0zODxu3HxzOX3The9EVJkQ0oF3dXS85qLJGWJvD87jKqeDrSc6oZMnt2b3HtvnsMV6A3Zub6GxZFRtKiqMZTlFv5RDm3Pw2Fk6inurcxCd/oCGtvPZHVLEggTz/6EdDIuBMGWZx1SEVipVCzWpup6sYAH/V6xQEtlcnF0QHkcTJZ6RMNBIRTsy5Mi8RPtCNDOgcnSiIB3E3SEYayux3YmjQ37Aix1rYhFw2Lxp6ORSr0ZO9hBS+c52JdeYt02i55zt0H9igRXRSUAACAASURBVIR80BmtUKo0QiRQO9mU5dkxWCJbuNraC5OOMz9mwy7X67JAyPUZ4v7lrJEiTc0PxwxzuD30yb5mS4Rfti8KF8m98MuUHvje5AOgugL9l69DLlfsq61CqkTb37aFOSyPPEePqRWDXe+OUnncYw9Fgvjn4T/CX1mFjn2IwR/3LxYJYXluDNFIQBwLkCCirIm7xo8lYvFPpRIg18FKQzVSyYQ4YiCxQHYD9JyZa1uQjEUQDm4JWwSqG/J7oFCphbslfU/Cgo4xttNpgGwVYnTtNlTq3WySJATIDoKCHdHuBYXdpiMFuhcdfVhqW0V72ZTRB/+JIZ0Bl9p6oVKosrmU6+Y4ARYIOT5B3L3c3kGg+SFjtiX7AqxVtagx1753yugfe0oWRDsGA52DIoLfyNwonmxO4vaXvxbHCsVakokEXjx9CIkrjFs910QI5FwpNG//du8r2OVKNPdf35eR4V7fhQdHPCqiUFJIZlq806mEEAd7IoEW8h1atKUykQ9jZzsjFnUKQEV2BXSdCEiVTAgPCvqOhISIjikpE9/vpZQmsVWCEuwIEbst+kr1qR55HtDvJBKoPv0diRNqkwJs0a5GNuXBv/8v/LKjD+c6zh5rcK5s+sh1D0aABcLBuPFVx0ggl20QCAPZFdAxg9O7ict9V/dFJhaPinNtcqkz6kx4uDgCU28H2k5lZ/y2r5vlWSX/lhcLT56hpkSLC93v9w45zuFNL0/j/toSpA2dqOI8BHA6FhGbGcGnXefRzDyO81E8lnuxQDgWzHyTDyGQ6wJh75hh3jaLmxc+2pcvOF1DUfsoVTCFRx51z+Lml38Jmezo7A7onuFQAPSWbjCZs5oSCqEcj0dFxEa5QvnqWnrTDfh9Yrva+JY2Q8EAUqmkCOz045wFWz6veDs2GKtee/OktsaGH0DmjuLjszchzaF4AyTo/uX+V9hUqNEycKMowyz/+MEZ/q//g2uWBlzqOseRFLP6Pyo/KrNAyI95Kupe5rpAoMnZC4JEAZP2G5c+FAmB4vqPrbxEqbUSH3/+V6/N8/zsS9z70+/EImSqsuDmJ1+I5EsHLbTVHPBvIRGPw2zZtTbfcKyKcMitHV3CSO5tJRIOIRoNi+MP5Y+s3O22JXg9TjS3dYo4DW8qtCOQSMSFEKCxpFNJrK0uIxDw0047ysu1aGnvfO3S2akXiC45cLGxD1X67MTMQfns9zq7047/GL2HTE0LmnPMTmK/YziMes/v/weasIOPeodgqjQVvLfNYTDLtzZYIOTbjBVhf/NBIFBgHTpmWHet4erA/tz06E2ZXOd+N/J7NF0YxPlLr183MfYUI0/uoba+GZvrdgycv4L1NRs87k3o9Cbx1q43mKBUlcNhX0Ew6EfQ78OVm5+ioakNtqU5rK4sioyL9Kau0VYiFovAtbmOKrMVMrkMm+tr4u2+pe00Vm2Lr4IxkXAwmS0wGKqwOD8tPCqqLbUwVpnh2twQf75w+RYWZ6fg87mh0VRgavI5Kiv14nzd7/OKDI7U9pbXDZPZiopKPVZXFkSfybVRq9XBWlsvrOvPX3x97DTOtfGXOKWpQ3drT0499bRrMm9fwP97fg+yptNozyGPi+MCRcGbTNEgPuo6j5oq6752zY6rb3yfwyPAAuHwWHJLR0QgHwSCMDzctGPBPocr/df3vS1OCZ++nXkIQ087es++brU//nwYX//7P6G5tRNVZotYSEefPBALb0dnL+yrS8J/nQzbSAD4fR5UW+vxq7/+73BurOHxg29EICKqX6kzgnYBaGEPh4JiB4EWbtryJ4v6crUWmxt2NDa3i0Xd49oUxm0kRKqtdWJ3wWFfFnWXFmZgrWnAX/zNP8C2vCB2IGiH49s7X4F2C5pbT6G9sxdet1PsLpAYiEbCoh0SMLQLQX2w1jagQmdAPBbFpWsfv/YG6vW4MDf8BPUSHS72XjqiJ+vgzaZSKbxcmsRvn92FqqUHnf3X3rkDc/A75d6Vz779LaoSUXxy5iLqq+pEKnEuhUmABUJhzmtBjSofBAIBD4T8wvCQIu79NMnP2yZkK+jD8OIoghUSDF259Vq13R2E+7j9sy+hUCqFOPj6q3+GyVSNmrpGsatQVV0j3uCT8V3/+vbOHvzFb/4B8zMvRV0SAbQIUyTGTDoDY1W12IGgo4poJILaugaxeFNZWZpHTX0jzOYaeL1OYQ9BuxQbDjv0RhPUai08biemXoygp+88/uq//Q+xo7Hlcwnr9z/87l+h0xuFrUEgsAVthQ56vRGpVBpu14Zw3aRjk96+87u7C8kk6hpbxLHDuYvXXxMItCPieDGJ0xX1ON2cm4abZI+wtL6C3z7+Ggl9NboufCLcCQu1RIJbeHrnn9BVocet3ouoNpj3LYQLlUmhj4sFQqHPcAGML18EAm092zZWsLa5imuDN/dFnjwgni+/wHhwGT/74tevXRONRkDGgZU6g/iedgP8Wz6x2FMWx3QqJRZxakO4rpWWQqFQ7m7hx6Lw+32iDi3AIIe3khKxkNMOAbm50c4DLdoUUpj+mt70qT3aZaAdCXJ/ozrRWERcJ+6VSoo+qSg0sMGEYMCP9bVVyGQy8R1dW1pSingiBplULq6hnQ+fx4XlxVkxjr5zl4RRIl1H96mpa/ozA8eZl2OIrWzgctOA8PLI1UJHS2uuNXw3MYwXzjXU9V5Gc+dAwe0mUBRI5/RTXGw8hSs9F2CsNPKxQq4+lIfYLxYIhwiTmzoaAvkiEGj04phhdR4Xz14W8Q3eV+hoYnxhHI8c4/jk13+XdzkXSBQlyf++pBRyxduDO5EQiEWjYueAhAQVMlwkYUPHJPT9j8vI/buQuiL49NwnKHuH8eT7+B7H39Muiz/sx/LGKr6begZPqQTtAzdElMN8Lxur85ge/j3aKBlTWy+arI1QK9Uc7yDfJ3af/WeBsE9QXO3kCOSTQAiGg1heWxRv8h2Np/YFzelz4vHiCEpq9Dg7mF2WwH3dIM8qkf2EbWwCbSoLzrRlF9L4JIdKOzkevxdza4t4MDuGLbIV6bsOc11rXu0okOBZnR/HzMg3aCjXYqitB201zdBr9WxvcJIP2AncmwXCCUDnW2ZHIJ8EAkXKs63bsLphw/Vz+ztmoG3qp9NP8cg+jk//+u+KOpIiRQAc/vYOSjcD+HzoF3kXupd2hOLJOLwBHza2XHi5uoCX6yvQNZ5Ce+9lqLW67B7+Y6wd9Hsw9ui/sL3lQn9DO9qq62HRmWCoMEAmIiyWHGNv+Fa5QIAFQi7MAvfhnQTySSDQQBzONXHMcL5nCMofBRV61yD9IT8eTD7EpiSKj7983RahmB6PiZFh+OdWcKPzEqymmrxdlEgo0I5CMBKCJ+DFinsdo8vTcIT8MDV0CNdIStl80ouu17WG+YlH8K4toN1oRU99K2oNFpgq9FCr1OJ456T7WEzPf66NlQVCrs0I9+fPCOSbQAhHw+KYgYz8ulr3Z4G/vbMNX9CHhzPD8CnSuPXZr4ruSZiaeA731JwIjtRE6YlLX7dLyFcgZAQai8eEWPCGtuAmb5dNO8ZXphHZAZo7B9Fy+hw0lYas8jtky0PYSng3sTj5BLb5MZiU5eipb0e90QKTVgedugIV5VphO7ObH4JLsRNggVDsT0AejD/fBAL9Q0xBk8ij4ca5110X34WbrnNuOfHty/vwyzP4+PO/FN4KxVBejA5jfWIKl1vPob2uvWDd58ioM5FKIBKLIBgNwRfywyWOI9y7n4AXgVgE6gojrI2nYK5rgVqrh1yugkyhFB4pb0qmRM9OOp1EMh4TSaGCAQ+c9gWs2WaQCAehU5ajukIPq75KHBtUVRig11RCo1KLYxy5lEVBMfx/lu0YWSBkS4zrHzuBfBMI4pjB5cCifR4DpwdRrtx/+lxaQDwBDx5MPsJqwoNrn34hYhcUaolEwnh2/xskHG7c7r2BGlONOO8uhiIyM2bSImEXuYUmUkkk0ykkyOMjGUc0mUAslUQqkwYFZorGowjHI4jQz1hEXCuXylCuUKFcUQ61shwKuUKIK1mZFEqpDCqpHEpyXSU3VUkZFDK5qCOXKcQODR8fFMOTdvAxskA4ODu+8pgI5KNAoNgBy45lkNFdb8fZrEjR22AgEsCsfQ4vHDOQmXW4dOMT4RlRKIWE0PTL55gbeYY2XT36ms/ArDf/mbtjoYw3m3GQcKBjiXQ6jcx2WgSr2t7e/Y4+ZAib2d4WqZ9LKYVzqQSS0lLBjn5/9Z1EImwIWAhkQ5/r/pgACwR+HnKeQD4KBHHMsLECm2MZN87fzpox/eNPW9FuvxsvbdOYci6gobsLg0PX8v58mMIzjz36DrodBQZb+lBjsIpdFj73zvox4QuYwJESYIFwpHi58cMgkI8Cgca9Lo4ZFnD2VD805ZoDoSChQVvLax4HxlcmsLhlR1NnF/ovXIXyAzI7HqgzH3ARRXRcXpjB2JMHUKVKMdB8Fq3WFmjLtTkfCOkDhs2XMoG8JsACIa+nrzg6n68CgSzXlx2LiCfi6D89+EGTRefN5B3h8rswv76I6Y05KIx6XLh6C2ZL7Qe1fZQXh0IBvBh5jKWXE2iorEFPYxesumohDPYTafIo+8ZtMwEm8G4CLBD4Ccl5AvkqEOiYgLI1rqwv4eb5jw6FM53d046CP7wFu9uBF6uT2Ix4Ud3QiDMDQyJD4kkbnlFGx+mJ51iYmoAiU4Luuk40VzfBoDVAo9IUrIfCoUwwN8IEcogAC4QcmgzuypsJ5KtAoNFsuDewtLaArpZuVB5iFD1KxZxIJhGKhhCIBoV7pM21ivmNRUSQQvvpXpE10WS2HqnhH4kgStg0OzWOiedPkAiG0GSsR3N1o7At0Gl00Cg1ImBUocQ14P9PmUCxEGCBUCwzncfjzGeBQGF3aRchHA1hsOv8kcwC2SmQQWMsEft+dyGAda8DDs8GPCEvAokwYpkEVBotGpvbUNfUCr3eJFJIyxVKkanxTQaCwpo+kxZZHuOxmMgmSemdVxZn4XE5Id0pgVZeDr2qEhaDBbXGGrFLQC53SrlSuNOxBf2RTDk3ygSOhQALhGPBzDf5EAL5LBBokbWtL2PZcXjHDO9iuecit+dbT+F+0zvbSGdSQkAEo2GEExEkUnEkk0nxXSQREXYSJGbID5/EglKmgEKmgEqugpIC6ZD/vFQu/qxVqoUIkJXJhHsdudKRXz3VJx/8kz7i+JBnja9lAkzgBwIsEPhpyHkC+SwQCK7Tu4mltUW0NXTAWGk8Ed4kHMh/PvW9b73wo9/eFv709D2Fet7e2RG+9ZSSh0QCReyjn5Lvf4rfS8tERr8yCQXZ4XC8JzKZfFMmcEwEWCAcE2i+zcEJ5LtAoO1/OmYIhPwigRMXJsAEmEA+EGCBkA+zVOR9zHeBILwZ1peFSLh5gKBJRT79PHwmwAROiAALhBMCz7fdP4F8Fwg0UpfPJTI8NtY0wWw42dwKdKSQTCURjccQS0RFHgCK2UD2COQZQXYF5HVAhoZkf7D7k4wOlRzUaP+PLddkAnlPgAVC3k9h4Q+gEAQCLci0g+ALeDF05tKRTxrF7PcHt7Bgn8fMyowI+RxJxiBTl0OuVaNco4FKpYZCqYJMLodURh+ZyBZILpSpREIYMaaSCSTiMUQjYUTCIUSDISTDEZRlAGtVDdobT6GjvgPVJgvHNzjyWeUbMIHjJcAC4Xh5890OQKAQBMJRezNQYp8NtwPDLx9jYX0JCkMFDBYrNJWVwr2RBIFcqUKJSOhTitK9xD70uzBILEHJ9z+xAyESyH1y17hx15CRgjTtZChZ0DZSySSioRCioSDCAT/8LheCmy4YVJW40DOEtvoO4ebIhQkwgfwlwAIhf+euaHpeCAKBJsuz5cby2hJqzLXi7ftDSyQWwej0CB6/fIRSjRKmujqY6xqgM5ogVylRJqUdgTJIhNdB2Q8C4ENvDAiRQIIhk04LF0rKtZCKxxHa2oJrfQ3O1VVE3F60mptwdeAGzAbzIdyVm2ACTOA4CbBAOE7afK8DESgUgUAxCeiYwe1z4lLf1QOxoIs2vZu48/SPWPba0dJ7FvVt7VBXVIhjAnFcQLEISo/fBXEvsFKSjicSCSRiUWys2jA/PgZFcgfX+66js+k0R1Q88MzzhUzgeAmwQDhe3ny3AxAoFIGwl5uBEjhRCujSLOIIkLiYXZnGH0f+BGiVaOs9C3NtHdTaChENUSKRHIDs0V5CcRaSyQQi4TB8bieWJifgXl5Ff2MPrvZfg0pZfrQd4NaZABP4IAIsED4IH198HAQKRSAQK6/fKzI8VunNqLc07Avf6qYNv3/6R8SUJeg+PwSj2QKlqlwYFeZD1MJXIZujUQR8XpHEybOwgvOt/RjquZiT4mZfE8OVmECBE2CBUOATXAjDKySBQLkNKOwyJXG6OnD9ndNDYuK78XtYjTjRNXQR1XUNUJWrhV1BvhYydqS8Dh7nJubGRrDtCeFazxW0N3Tk65C430ygYAmwQCjYqS2cgRWSQNj1ZlgRMRGuDd5869vzzPI0/jD+DazdnWjr7kW5RiuSKhVKIQPHeDSCtZUlLI6OotPQhOv9NwpleDwOJlAQBFggFMQ0FvYgCkkg0ExtBbfEMUOlRofm2pbXJo8WzrG5MdxbGMbZGzdhbWiCXK7Ii6OEgzyFqVQSfo8bLx4/gDZaik/OfwxNufYgTfE1TIAJHDIBFgiHDJSbO3wChSYQaJt92bEMh3MN1wZ/eGsm18HRuVHcX3qGK7/4JfQmc14fJ+z3SaBxR0JBjD74FuXhbXx27hMo5ar9Xs71mAATOCICLBCOCCw3e3gECk0gEBk6ZiCXx4tnL0P2/dHB1PIUvqOdg1u3UF1TLwIYFUuho5dQwI/hb/4AfbwMX1z+XER15MIEmMDJEWCBcHLs+c77JFCIAiEQDmDFsQSVQiXSQC/aF3B//gkazvejoaW9KC37SST4PE5MPXqEOokO1/rebcS5z8eHqzEBJnBAAiwQDgiOLzs+AoUoEGhbnQTCmnMN53ouYGRhDPOJTVz/9IuifnMmLlPjI4gsO3C17QKqTzix1fE95XwnJpB7BFgg5N6ccI9+QqAQBQINcXVjVYgEfaUB45uzOH3rOgzGqqKf/1g0gvH792CIleH2udtFz4MBMIGTIsAC4aTI8333TaBQBUIoEhIxEabsM/CrtvHpX/zNB9sd0DZ9OBRAIh6HsWo3rbRzwwG3cx0NzW3QaCv3zf2wK1JGyHg8jvJyNeSKtydyojGMPX2Iko0APu69IdJNc2ECTOD4CbBAOH7mfMcsCRSqQKDt9DnbLP5j+D9hON2G259+KcjQ97NT41hZmsMnv/ir99ojUMKk2ekXcDk3cO3WZ/D7vHCsrUChUMJsqQFleoxGw7BY69/b1k+nxrY8L/rR2t6FmrrGLGfu9eqhoB+RSBjaikqRavpdZXFuCv45GwatXairrvug+/LFTIAJHIwAC4SDceOrjpFAoQoEQjhvm8V/jd1BbV8vBoZ2EziRQJgYe4L5mZf48td/j+XFWdz/5mtU6vRiYaU/ayt02N7JiLTLn/3yN1hZnMMffvcvONXdB2lZGWanJ6A3GHG6u18kbnLYV4TL5Ob6mthZoIiMi/NTMJtrgJISuF0b6DlzDl6PE9XWOgycv4pnw9/huztfwWS2iqMP2oloaT+N/vOXQQv4mn0FJpMFtpUFxKJh6A0msfiHQyFotFro9CbRV5/Hhe2dbbE7Yq1tELsb62s21NY3Q6lUYs1uQ8/ZQXFPCh9NxbW5jqWRUbQozBjoHDzGp41vxQSYwB4BFgj8LOQ8gUIWCGtOOx7MP4WmvQHdZ3cXwh8LhJ//6m/x+P4d/Onr36Kzux+RcBCbG2vijZ4CKJnMFly4fBOTL0YwMzkOa00dRp8+AG3TkzhQKFVidyEcDmI7k0FbexdO9w6IXQEKUkQCI+D3CsNIlVqD2clxIQJufPw5piZGseFYFTsQbucGyDZg6Opt9J49j6mXo7AtzYsFnxbzUCgAqVQKY5UFgS2vSDFNhXZCEokE+gYvCWGyuW4X/aio1AuR4nU74fW60NU7iEvXPnoVLZKEytzwEzRIDBjqvZjzzyh3kAkUIgEWCIU4qwU2pkIWCKFIEE+XxrApi+HKzU9fCYSnj77Fv/zj/8bpnj7xVj479QKWmnpU6ox4/uwBauubxJ9NVRYMnL+Cp4+/xVf/9o9obGqDWlMBj8cp6rg2HQgFA6AcEBJJGdLpFKw19cIW4eX4M9FGldmCSCSEnR1gcvwZevrO4xdf/i2GH32Du3/4d1jrGqFUqISoGLxwDddv/xzjz4fx7Z3/hNFYhcz2ttgloPvJlUqMPXuImromIU5mJseEcDg3dB1mSy28HheCgS3YVxbR0NQmbBFmpsZFu7d+9iVk3+8grK4swDU5h15DC1rr2wvsiebhMIH8IMACIT/mqah7WcgCgXYLni+/wFPvDGi3gAq9/VOa5Gg4jDKpVNgN0MJeKpFAUipBMpGApEwiFnz6TiaTi+/IzoB2Aqg+hWymOpl0RrQH0KcEOzvbu9eVlop77NWnIwCqQrsK1B4t7slEXCRWot0Aqk99oL+j9NKpZALxeAylpbtppik6JNUrQcn37ZaJ8NCpVEr8pOuoXzRe+tD3UinVKX3tnnvZKcdHh5Gxe3Cr8wq0ag69XNT/APDgT4wAC4QTQ8833i+BQhYItHhPr0zhsf0FLn7+Ocp5MQQZXY589ycofUl8NvTZB3t27Pc543pMgAm8ToAFAj8ROU+gkAUCwQ+Gg3iyOIJNWRzXbv885+fjqDtIBpDu6XkMWrr+LJnVUd+b22cCTOAHAiwQ+GnIeQKFLhBoe39mZRqPbGM4c/sWqszWnJ+To+pgJBzC07t3oItJ8NnQpyiT7Bo7cmECTOD4CbBAOH7mfMcsCRS6QCAcyVQSw1PDGNmcxsd/+ZsTDWiU5fQcWnWym3j0ze+RXnXjy8tfoEJzckGdDm1Q3BATyGMCLBDyePKKpevFIBDIFiGWiOH+xANMh+z4/Dd/L6z/i6k8fXAX4QU7Phv4GCZdlTBu5MIEmMDJEWCBcHLs+c77JFAMAoFQiJTH0RAeTDzEbNCOG5//CvoiyM1A8RUeffsHJOxufH7hM1gMFjZM3Of/G1yNCRwlARYIR0mX2z4UAsUiEPZEQiKZwOTKFB4uPkNj3xmcGRg6FI652AhFZ3zx4B4M2wpc672KSnUli4NcnCjuU1ESYIFQlNOeX4MuJoGwJxLSmTTWXGu4++I7eEviuPLJz0WAo0IpFLxp5NF38Mwv4cqpIfS29kIulfOxQqFMMI+jIAiwQCiIaSzsQRSbQNibzcx2BtF4FPNr87g3+QBlZh2u3v45KnWGvJ3weCyK8ZFhLI+N4WxdF/rb+1BRXgFpWXHZW+TtBHLHi4oAC4Simu78HGyxCoS93QSy7g9Gg5i2TeO7lw+QUctw5fZnaG49lTcT6nE7QUaI63NzOFvfjQunz8NQYYCsTMa7Bnkzi9zRYiPAAqHYZjwPx1vMAmFvusiAMZ1JIRKPiqOHR9PDWAs50TlwDn3nr0CpVOXczFJoZsrm+OzeXSAYw1DHILqauqBWaYQwoPDNXJgAE8hdAiwQcnduuGffE2CB8MOjQEKBjh4oboIv6MPzuVGMLU0gIQNqW1pxduCiyLB4UsW/5cP0xChmX44hsRVAW1UThrovoraqVogCOkpg98WTmh2+LxPIjgALhOx4ce0TIMAC4c3QRdKjdAqpTErYKticq5ixzcDmWUVCCphr69HY0oGaukbo9IZXiZUOYwpJqEQjYaw7bFhdWhDZGVPBCGq1ZrTXtqGlthU6TaWIhEjCgBI1cWECTCC/CLBAyK/5KsreskB4/7TvHkGkxYd2GCjo0qZvE3anHQ7XGjZ9TmzFQ4hmYpAqlcLQUa3WolyjhZo+4neNSOtMbURCQYT3PuHd3ylNM30v3SlFpVwDk9aI2qoa1FTVosZUi0p1BUpLSoUooA8fIbx/3rgGE8hlAiwQcnl2uG+CAAuE7B+EvaMISsOcyWxjeyeD7Z0dseNAwZjC0RCSqRSS6SSSmeTu76mksHOgRV4qlUFeJoNMKhM7APRRKpTQlmuhlCtFWmcSAJLSUrEzQWmoWRBkP098BRPIZQIsEHJ5drhvLBAO+Rkg4fDqg93fqez+pD8DKKH/Sl7ZCuz+Tt+XCPHANgSHPCncHBPIUQIsEHJ0YrhbPxDgHQR+GpgAE2ACx0+ABcLxM+c7ZkmABUKWwLg6E2ACTOAQCLBAOASI3MTREmCBcLR8uXUmwASYwJsIsEDg5yLnCbBAyPkp4g4yASZQgARYIBTgpBbakFggFNqM8niYABPIBwIsEPJhloq8jywQivwB4OEzASZwIgRYIJwIdr5pNgRYIGRDi+syASbABA6HAAuEw+HIrRwhARYIRwiXm2YCTIAJvIUACwR+NHKeAAuEnJ8i7iATYAIFSIAFQgFOaqENiQVCoc0oj4cJMIF8IMACIR9mqcj7yAKhyB8AHj4TYAInQoAFwolg55tmQ4AFQja0uC4TYAJM4HAIsEA4HI7cyhESYIFwhHC5aSbABJjAWwiwQOBHI+cJsEDI+SniDjIBJlCABFggFOCkFtqQWCAU2ozyeJgAE8gHAiwQ8mGWiryPLBCK/AHg4TMBJnAiBFggnAh2vmk2BFggZEOL6zIBJsAEDocAC4TD4citHCEBEggPV3YwMbuNC+qdI7wTN80EmAATYAJ7BP45LsH/vFWCCnl+Mynx+XxvXDl2dnYQjUZhsVggkUjye5RF2vtEGpjz7eDRGlBaUqQQeNhMgAkwgWMmYFACn7WWQFF2zDc+5NuxQDhkoLnU3M4OQOpvmzcPcmlauC9MgAkUOAF6H6OXspI8fzFjgVDgDyoPjwkwASbABJjAQQiwQDgINb6GZkL/NQAAAOdJREFUCTABJsAEmECBE2CBUOATzMNjAkyACTABJnAQAm8VCNRYKpWCRqNBaWnpQdrma5gAE2ACTIAJMIE8JVAyOzvLJmx5OnncbSbABJgAE2ACR0Wg5Ntvv2WBcFR0uV0mwASYABNgAnlKgAVCnk4cd5sJMAEmwASYwFESYIFwlHS5bSbABJgAE2ACeUqABUKeThx3mwkwASbABJjAURJggXCUdLltJsAEmAATYAJ5SoAFQp5OHHebCTABJsAEmMBREmCBcJR0uW0mwASYABNgAnlKgAVCnk4cd5sJMAEmwASYwFES+P/WTjIB+hg1JgAAAABJRU5ErkJggg==;" vertex="1" parent="1">
          <mxGeometry x="580" y="60" width="933.01" height="750" as="geometry" />
        </mxCell>
        <mxCell id="B0jKKp4YpZ9J5N5QM19t-15" value="Boundary Object" style="shape=umlBoundary;whiteSpace=wrap;html=1;fontFamily=Comic Sans MS;fontSize=18;" vertex="1" parent="1">
          <mxGeometry x="-510" y="342.5" width="150" height="145" as="geometry" />
        </mxCell>
      </root>
    </mxGraphModel>
  </diagram>
</mxfile>
